{"glyphs":{"0":{"ha":1075,"x_min":0,"x_max":0,"o":"m 538 -21 b 49 519 240 -21 49 192 b 538 1056 49 844 240 1056 b 1026 519 835 1056 1026 844 b 538 -21 1026 192 835 -21 m 219 464 b 621 42 271 174 429 8 b 854 575 814 76 906 286 b 454 993 804 863 646 1026 b 219 464 261 958 169 751 "},"1":{"ha":822,"x_min":0,"x_max":0,"o":"m 42 29 b 363 211 333 61 360 106 l 374 744 l 43 651 l 33 683 b 482 1056 239 797 371 901 l 514 1043 b 489 724 500 906 489 815 l 489 211 b 794 29 489 106 517 63 l 789 -10 b 426 0 601 -4 471 0 b 47 -10 386 0 254 -4 l 42 29 "},"2":{"ha":932,"x_min":0,"x_max":0,"o":"m 28 31 l 375 363 b 632 775 576 556 632 674 b 429 956 632 879 565 956 b 106 679 278 956 151 847 l 72 686 b 467 1056 100 908 250 1056 b 799 789 663 1056 799 944 b 456 292 799 638 696 489 l 186 69 l 413 74 b 811 401 638 78 797 113 l 847 400 b 890 24 850 236 867 113 l 868 0 l 43 0 "},"3":{"ha":928,"x_min":0,"x_max":0,"o":"m 467 -21 b 42 268 219 -21 81 147 l 69 283 b 433 88 128 189 264 88 b 707 321 600 88 707 179 b 461 522 707 443 610 522 b 271 494 375 522 326 510 l 260 532 b 663 850 565 653 663 767 b 488 999 663 933 606 999 b 174 668 340 999 238 899 l 139 672 b 94 1014 143 785 121 910 l 114 1028 b 481 1056 217 969 310 1056 b 807 851 657 1056 807 968 b 542 601 807 753 725 679 l 543 597 b 858 325 749 582 858 460 b 467 -21 858 122 693 -21 "},"4":{"ha":968,"x_min":0,"x_max":0,"o":"m 14 363 l 606 1056 l 647 1042 l 647 426 l 938 447 l 938 332 l 647 332 l 647 211 b 954 29 647 106 676 67 l 949 -10 b 586 0 761 -4 631 0 b 207 -10 546 0 414 -4 l 201 29 b 522 211 493 65 522 106 l 522 332 l 29 332 m 522 418 l 522 853 l 126 390 "},"5":{"ha":942,"x_min":0,"x_max":0,"o":"m 488 -21 b 63 268 240 -21 101 147 l 90 283 b 454 88 149 189 285 88 b 728 321 621 88 728 179 b 129 481 728 588 365 564 l 183 1021 l 413 1021 b 794 1042 583 1021 692 1021 l 814 1028 b 811 686 788 924 793 799 l 776 682 b 403 965 707 932 592 965 l 303 965 l 263 574 b 879 325 518 660 879 603 b 488 -21 879 122 714 -21 "},"6":{"ha":915,"x_min":0,"x_max":0,"o":"m 238 428 b 528 44 238 133 404 29 b 704 367 654 58 721 185 b 457 624 689 539 576 624 b 243 525 393 624 310 596 b 238 428 239 494 238 463 m 69 439 b 700 1056 69 803 311 1017 l 707 1022 b 257 610 506 986 315 869 b 489 690 325 668 413 690 b 874 333 682 690 874 542 b 476 -21 874 138 694 -21 b 69 439 257 -21 69 124 "},"7":{"ha":836,"x_min":0,"x_max":0,"o":"m 808 1004 l 660 788 b 485 0 488 536 485 333 l 294 0 b 613 832 332 369 446 596 l 679 926 l 410 926 b 107 664 239 926 121 901 l 71 665 b 28 1011 68 801 51 922 l 50 1035 l 793 1035 "},"8":{"ha":919,"x_min":0,"x_max":0,"o":"m 83 236 b 321 507 83 386 167 460 b 126 794 190 581 126 675 b 461 1056 126 953 258 1056 b 799 804 667 1056 799 957 b 576 538 799 685 729 592 b 836 250 765 447 836 376 b 476 -21 836 86 694 -21 b 83 236 238 -21 83 81 m 221 236 b 475 35 221 114 321 35 b 703 194 614 35 703 97 b 406 465 703 292 607 379 b 371 481 393 471 382 475 b 221 236 269 407 221 329 m 258 828 b 506 571 258 742 325 651 l 532 558 b 661 801 619 619 661 697 b 460 1000 661 922 582 1000 b 258 828 338 1000 258 932 "},"9":{"ha":929,"x_min":0,"x_max":0,"o":"m 692 607 b 401 990 692 935 525 1006 b 225 668 275 976 208 850 b 472 411 240 496 353 411 b 686 510 536 411 619 439 b 692 607 690 540 692 572 m 56 701 b 453 1056 56 897 235 1056 b 860 596 672 1056 860 911 b 229 -21 860 232 618 18 l 222 13 b 672 425 424 49 614 165 b 440 344 604 367 517 344 b 56 701 247 344 56 493 "}," ":{"ha":417,"x_min":0,"x_max":0,"o":""},"A":{"ha":1001,"x_min":0,"x_max":0,"o":"m 67 929 b 407 1046 164 1003 267 1046 b 703 907 542 1046 639 1001 b 906 982 779 942 849 967 l 931 951 b 794 493 804 871 757 774 b 988 36 821 299 897 106 l 969 0 l 747 0 b 697 417 740 103 729 193 b 85 13 568 8 203 -72 b 251 604 -7 81 -14 338 b 586 849 340 690 460 779 b 86 890 488 981 314 1000 l 67 929 m 208 129 b 558 288 297 69 456 154 b 667 633 631 382 686 486 b 615 803 657 700 640 756 b 308 567 493 729 383 646 b 208 129 178 429 122 186 "},"Á":{"ha":1001,"x_min":0,"x_max":0,"o":"m 67 929 b 407 1046 164 1003 267 1046 b 703 907 542 1046 639 1001 b 906 982 779 942 849 967 l 931 951 b 794 493 804 871 757 774 b 988 36 821 299 897 106 l 969 0 l 747 0 b 697 417 740 103 729 193 b 85 13 568 8 203 -72 b 251 604 -7 81 -14 338 b 586 849 340 690 460 779 b 86 890 488 981 314 1000 l 67 929 m 208 129 b 558 288 297 69 456 154 b 667 633 631 382 686 486 b 615 803 657 700 640 756 b 308 567 493 729 383 646 b 208 129 178 429 122 186 m 556 1306 l 706 1306 l 715 1288 l 472 1088 l 444 1107 "},"Ă":{"ha":1001,"x_min":0,"x_max":0,"o":"m 67 929 b 407 1046 164 1003 267 1046 b 703 907 542 1046 639 1001 b 906 982 779 942 849 967 l 931 951 b 794 493 804 871 757 774 b 988 36 821 299 897 106 l 969 0 l 747 0 b 697 417 740 103 729 193 b 85 13 568 8 203 -72 b 251 604 -7 81 -14 338 b 586 849 340 690 460 779 b 86 890 488 981 314 1000 l 67 929 m 208 129 b 558 288 297 69 456 154 b 667 633 631 382 686 486 b 615 803 657 700 640 756 b 308 567 493 729 383 646 b 208 129 178 429 122 186 m 374 1326 b 538 1233 397 1265 467 1233 b 703 1326 604 1233 676 1265 l 738 1326 b 539 1128 726 1221 658 1128 b 339 1326 418 1128 350 1221 "},"Ǎ":{"ha":1001,"x_min":0,"x_max":0,"o":"m 67 929 b 407 1046 164 1003 267 1046 b 703 907 542 1046 639 1001 b 906 982 779 942 849 967 l 931 951 b 794 493 804 871 757 774 b 988 36 821 299 897 106 l 969 0 l 747 0 b 697 417 740 103 729 193 b 85 13 568 8 203 -72 b 251 604 -7 81 -14 338 b 586 849 340 690 460 779 b 86 890 488 981 314 1000 l 67 929 m 208 129 b 558 288 297 69 456 154 b 667 633 631 382 686 486 b 615 803 657 700 640 756 b 308 567 493 729 383 646 b 208 129 178 429 122 186 m 319 1319 l 536 1226 l 753 1319 l 768 1297 l 544 1093 l 528 1093 l 304 1297 "},"Â":{"ha":1001,"x_min":0,"x_max":0,"o":"m 67 929 b 407 1046 164 1003 267 1046 b 703 907 542 1046 639 1001 b 906 982 779 942 849 967 l 931 951 b 794 493 804 871 757 774 b 988 36 821 299 897 106 l 969 0 l 747 0 b 697 417 740 103 729 193 b 85 13 568 8 203 -72 b 251 604 -7 81 -14 338 b 586 849 340 690 460 779 b 86 890 488 981 314 1000 l 67 929 m 208 129 b 558 288 297 69 456 154 b 667 633 631 382 686 486 b 615 803 657 700 640 756 b 308 567 493 729 383 646 b 208 129 178 429 122 186 m 532 1319 l 549 1319 l 772 1115 l 757 1093 l 540 1186 l 324 1093 l 308 1115 "},"Ä":{"ha":1001,"x_min":0,"x_max":0,"o":"m 67 929 b 407 1046 164 1003 267 1046 b 703 907 542 1046 639 1001 b 906 982 779 942 849 967 l 931 951 b 794 493 804 871 757 774 b 988 36 821 299 897 106 l 969 0 l 747 0 b 697 417 740 103 729 193 b 85 13 568 8 203 -72 b 251 604 -7 81 -14 338 b 586 849 340 690 460 779 b 86 890 488 981 314 1000 l 67 929 m 208 129 b 558 288 297 69 456 154 b 667 633 631 382 686 486 b 615 803 657 700 640 756 b 308 567 493 729 383 646 b 208 129 178 429 122 186 m 314 1185 b 389 1260 314 1226 347 1260 b 464 1185 431 1260 464 1226 b 389 1110 464 1143 431 1110 b 314 1185 347 1110 314 1143 m 610 1185 b 685 1260 610 1226 643 1260 b 760 1185 726 1260 760 1226 b 685 1110 760 1143 726 1110 b 610 1185 643 1110 610 1143 "},"À":{"ha":1001,"x_min":0,"x_max":0,"o":"m 67 929 b 407 1046 164 1003 267 1046 b 703 907 542 1046 639 1001 b 906 982 779 942 849 967 l 931 951 b 794 493 804 871 757 774 b 988 36 821 299 897 106 l 969 0 l 747 0 b 697 417 740 103 729 193 b 85 13 568 8 203 -72 b 251 604 -7 81 -14 338 b 586 849 340 690 460 779 b 86 890 488 981 314 1000 l 67 929 m 208 129 b 558 288 297 69 456 154 b 667 633 631 382 686 486 b 615 803 657 700 640 756 b 308 567 493 729 383 646 b 208 129 178 429 122 186 m 382 1306 l 532 1306 l 643 1107 l 615 1088 l 372 1288 "},"Ā":{"ha":1001,"x_min":0,"x_max":0,"o":"m 67 929 b 407 1046 164 1003 267 1046 b 703 907 542 1046 639 1001 b 906 982 779 942 849 967 l 931 951 b 794 493 804 871 757 774 b 988 36 821 299 897 106 l 969 0 l 747 0 b 697 417 740 103 729 193 b 85 13 568 8 203 -72 b 251 604 -7 81 -14 338 b 586 849 340 690 460 779 b 86 890 488 981 314 1000 l 67 929 m 208 129 b 558 288 297 69 456 154 b 667 633 631 382 686 486 b 615 803 657 700 640 756 b 308 567 493 729 383 646 b 208 129 178 429 122 186 m 743 1231 l 743 1161 l 339 1161 l 338 1231 "},"Ą":{"ha":1001,"x_min":0,"x_max":0,"o":"m 67 929 b 407 1046 164 1003 267 1046 b 703 907 542 1046 639 1001 b 906 982 779 942 849 967 l 931 951 b 794 493 804 871 757 774 b 988 36 821 299 897 106 l 969 0 l 872 0 b 732 -108 765 0 732 -61 b 819 -182 732 -151 765 -182 b 942 -118 854 -182 897 -160 l 965 -142 b 776 -267 942 -182 875 -267 b 646 -140 696 -267 644 -206 b 747 3 647 -81 699 -25 b 697 417 739 104 729 194 b 85 13 568 8 203 -72 b 251 604 -7 81 -14 338 b 586 849 340 690 460 779 b 86 890 488 981 314 1000 l 67 929 m 208 129 b 558 288 297 69 456 154 b 667 633 631 382 686 486 b 615 803 657 700 640 756 b 308 567 493 729 383 646 b 208 129 178 429 122 186 "},"Å":{"ha":1001,"x_min":0,"x_max":0,"o":"m 67 929 b 407 1046 164 1003 267 1046 b 703 907 542 1046 639 1001 b 906 982 779 942 849 967 l 931 951 b 794 493 804 871 757 774 b 988 36 821 299 897 106 l 969 0 l 747 0 b 697 417 740 103 729 193 b 85 13 568 8 203 -72 b 251 604 -7 81 -14 338 b 586 849 340 690 460 779 b 86 890 488 981 314 1000 l 67 929 m 208 129 b 558 288 297 69 456 154 b 667 633 631 382 686 486 b 615 803 657 700 640 756 b 308 567 493 729 383 646 b 208 129 178 429 122 186 m 447 1144 b 447 1332 397 1196 396 1282 b 633 1332 499 1382 583 1383 b 633 1146 685 1279 685 1194 b 447 1144 581 1096 496 1094 m 486 1183 b 594 1185 514 1154 565 1158 b 594 1293 625 1213 624 1263 b 486 1293 567 1322 515 1319 b 486 1183 456 1265 457 1213 "},"Ã":{"ha":1001,"x_min":0,"x_max":0,"o":"m 67 929 b 407 1046 164 1003 267 1046 b 703 907 542 1046 639 1001 b 906 982 779 942 849 967 l 931 951 b 794 493 804 871 757 774 b 988 36 821 299 897 106 l 969 0 l 747 0 b 697 417 740 103 729 193 b 85 13 568 8 203 -72 b 251 604 -7 81 -14 338 b 586 849 340 690 460 779 b 86 890 488 981 314 1000 l 67 929 m 208 129 b 558 288 297 69 456 154 b 667 633 631 382 686 486 b 615 803 657 700 640 756 b 308 567 493 729 383 646 b 208 129 178 429 122 186 m 343 1113 b 411 1181 350 1143 360 1181 b 624 1089 472 1181 531 1089 b 739 1247 703 1089 754 1171 l 715 1247 b 646 1179 711 1217 699 1179 b 433 1267 593 1179 533 1267 b 321 1111 354 1267 306 1189 "},"Æ":{"ha":1688,"x_min":0,"x_max":0,"o":"m 1193 -21 b 689 369 950 -21 750 142 b 85 13 546 1 199 -69 b 251 604 -7 81 -14 338 b 586 849 340 690 460 779 b 86 890 488 981 314 1000 l 67 929 b 407 1046 164 1003 267 1046 b 753 806 583 1046 694 968 b 1193 1056 849 956 1013 1056 b 1597 1028 1364 1056 1494 969 l 1617 1014 b 1572 672 1590 910 1568 785 l 1538 668 b 1167 999 1474 899 1342 999 b 814 569 967 999 814 815 l 814 567 l 1097 567 b 1292 735 1197 567 1276 603 l 1326 735 b 1392 319 1344 575 1360 460 l 1357 307 b 1111 511 1292 471 1221 511 l 817 511 b 1240 101 843 276 1021 101 b 1626 413 1451 101 1553 204 l 1660 407 b 1193 -21 1607 147 1454 -21 m 208 129 b 558 288 297 69 456 154 b 667 633 631 382 686 486 b 622 790 658 693 643 746 b 311 551 497 717 386 632 b 208 129 181 414 122 186 "},"B":{"ha":1024,"x_min":0,"x_max":0,"o":"m 569 -10 b 299 0 467 -10 353 0 b 89 -10 243 0 174 -3 l 83 29 b 224 225 194 65 224 119 l 224 810 b 83 1006 224 915 194 969 l 89 1044 b 288 1035 174 1038 243 1035 b 517 1042 332 1035 438 1038 b 888 808 781 1056 888 963 b 706 564 888 683 815 604 b 968 268 869 529 968 428 b 569 -10 968 94 833 -10 m 349 290 b 575 46 349 143 421 46 b 822 263 722 46 822 117 b 501 513 822 424 722 535 l 349 497 l 349 290 m 483 568 b 742 785 686 589 742 672 b 349 979 742 963 607 1001 l 349 554 "},"C":{"ha":1060,"x_min":0,"x_max":0,"o":"m 1032 407 b 565 -21 979 147 826 -21 b 42 518 272 -21 42 217 b 565 1056 42 814 285 1056 b 969 1028 736 1056 867 969 l 994 1011 b 944 672 963 910 940 785 l 910 668 b 539 999 846 899 714 999 b 186 569 339 999 186 815 b 613 101 186 306 375 101 b 999 413 824 101 925 204 l 1032 407 "},"Ć":{"ha":1060,"x_min":0,"x_max":0,"o":"m 1032 407 b 565 -21 979 147 826 -21 b 42 518 272 -21 42 217 b 565 1056 42 814 285 1056 b 969 1028 736 1056 867 969 l 994 1011 b 944 672 963 910 940 785 l 910 668 b 539 999 846 899 714 999 b 186 569 339 999 186 815 b 613 101 186 306 375 101 b 999 413 824 101 925 204 l 1032 407 m 567 1306 l 717 1306 l 726 1288 l 483 1088 l 456 1107 "},"Č":{"ha":1060,"x_min":0,"x_max":0,"o":"m 1032 407 b 565 -21 979 147 826 -21 b 42 518 272 -21 42 217 b 565 1056 42 814 285 1056 b 969 1028 736 1056 867 969 l 994 1011 b 944 672 963 910 940 785 l 910 668 b 539 999 846 899 714 999 b 186 569 339 999 186 815 b 613 101 186 306 375 101 b 999 413 824 101 925 204 l 1032 407 m 331 1319 l 547 1226 l 764 1319 l 779 1297 l 556 1093 l 539 1093 l 315 1297 "},"Ç":{"ha":1060,"x_min":0,"x_max":0,"o":"m 1032 407 b 575 -21 979 150 831 -17 l 568 -74 b 750 -169 679 -74 750 -111 b 578 -292 750 -235 676 -292 b 344 -203 474 -292 394 -250 l 363 -185 b 626 -186 493 -260 626 -246 b 454 -121 626 -126 508 -121 l 544 -21 b 42 518 261 -10 42 224 b 565 1056 42 814 285 1056 b 969 1028 736 1056 867 969 l 994 1011 b 944 672 963 910 940 785 l 910 668 b 539 999 846 899 714 999 b 186 569 339 999 186 815 b 613 101 186 306 375 101 b 999 413 824 101 925 204 l 1032 407 "},"Ċ":{"ha":1060,"x_min":0,"x_max":0,"o":"m 1032 407 b 565 -21 979 147 826 -21 b 42 518 272 -21 42 217 b 565 1056 42 814 285 1056 b 969 1028 736 1056 867 969 l 994 1011 b 944 672 963 910 940 785 l 910 668 b 539 999 846 899 714 999 b 186 569 339 999 186 815 b 613 101 186 306 375 101 b 999 413 824 101 925 204 l 1032 407 m 478 1200 b 551 1274 478 1242 511 1274 b 626 1200 593 1274 626 1242 b 551 1125 626 1158 593 1125 b 478 1200 511 1125 478 1158 "},"D":{"ha":1167,"x_min":0,"x_max":0,"o":"m 574 -14 b 288 0 465 -14 332 0 b 89 -10 243 0 174 -3 l 83 29 b 224 225 194 65 224 119 l 224 810 b 83 1006 224 915 194 969 l 89 1044 b 288 1035 174 1038 243 1035 b 511 1040 332 1035 417 1035 b 1125 550 890 1061 1111 861 b 574 -14 1139 238 939 -14 m 349 267 b 571 42 349 119 386 42 b 957 567 865 42 989 274 b 514 985 925 858 744 992 b 349 810 385 981 349 915 l 349 267 "},"Ð":{"ha":1308,"x_min":0,"x_max":0,"o":"m 574 -14 b 288 0 465 -14 332 0 b 89 -10 243 0 174 -3 l 83 29 b 224 225 194 65 224 119 l 224 490 l 86 490 l 85 560 l 224 560 l 224 810 b 83 1006 224 915 194 969 l 89 1044 b 288 1035 174 1038 243 1035 b 511 1040 332 1035 417 1035 b 1125 550 890 1061 1111 861 b 574 -14 1139 238 939 -14 m 349 267 b 571 42 349 119 386 42 b 957 567 865 42 989 274 b 514 985 925 858 744 992 b 349 810 385 981 349 915 l 349 560 l 699 560 l 699 490 l 349 490 l 349 267 "},"Ď":{"ha":1167,"x_min":0,"x_max":0,"o":"m 574 -14 b 288 0 465 -14 332 0 b 89 -10 243 0 174 -3 l 83 29 b 224 225 194 65 224 119 l 224 810 b 83 1006 224 915 194 969 l 89 1044 b 288 1035 174 1038 243 1035 b 511 1040 332 1035 417 1035 b 1125 550 890 1061 1111 861 b 574 -14 1139 238 939 -14 m 349 267 b 571 42 349 119 386 42 b 957 567 865 42 989 274 b 514 985 925 858 744 992 b 349 810 385 981 349 915 l 349 267 m 378 1319 l 594 1226 l 811 1319 l 826 1297 l 603 1093 l 586 1093 l 363 1297 "},"Đ":{"ha":1308,"x_min":0,"x_max":0,"o":"m 574 -14 b 288 0 465 -14 332 0 b 89 -10 243 0 174 -3 l 83 29 b 224 225 194 65 224 119 l 224 490 l 86 490 l 85 560 l 224 560 l 224 810 b 83 1006 224 915 194 969 l 89 1044 b 288 1035 174 1038 243 1035 b 511 1040 332 1035 417 1035 b 1125 550 890 1061 1111 861 b 574 -14 1139 238 939 -14 m 349 267 b 571 42 349 119 386 42 b 957 567 865 42 989 274 b 514 985 925 858 744 992 b 349 810 385 981 349 915 l 349 560 l 699 560 l 699 490 l 349 490 l 349 267 "},"E":{"ha":1060,"x_min":0,"x_max":0,"o":"m 565 -21 b 42 518 272 -21 42 217 b 565 1056 42 814 285 1056 b 969 1028 736 1056 867 969 l 989 1014 b 944 672 963 910 940 785 l 910 668 b 539 999 846 899 714 999 b 186 569 339 999 186 815 l 186 567 l 469 567 b 664 735 569 567 649 603 l 699 735 b 764 319 717 575 732 460 l 729 307 b 483 511 664 471 593 511 l 189 511 b 613 101 215 276 393 101 b 999 413 824 101 925 204 l 1032 407 b 565 -21 979 147 826 -21 "},"É":{"ha":1060,"x_min":0,"x_max":0,"o":"m 565 -21 b 42 518 272 -21 42 217 b 565 1056 42 814 285 1056 b 969 1028 736 1056 867 969 l 989 1014 b 944 672 963 910 940 785 l 910 668 b 539 999 846 899 714 999 b 186 569 339 999 186 815 l 186 567 l 469 567 b 664 735 569 567 649 603 l 699 735 b 764 319 717 575 732 460 l 729 307 b 483 511 664 471 593 511 l 189 511 b 613 101 215 276 393 101 b 999 413 824 101 925 204 l 1032 407 b 565 -21 979 147 826 -21 m 578 1326 l 728 1326 l 738 1308 l 494 1108 l 467 1128 "},"Ě":{"ha":1060,"x_min":0,"x_max":0,"o":"m 565 -21 b 42 518 272 -21 42 217 b 565 1056 42 814 285 1056 b 969 1028 736 1056 867 969 l 989 1014 b 944 672 963 910 940 785 l 910 668 b 539 999 846 899 714 999 b 186 569 339 999 186 815 l 186 567 l 469 567 b 664 735 569 567 649 603 l 699 735 b 764 319 717 575 732 460 l 729 307 b 483 511 664 471 593 511 l 189 511 b 613 101 215 276 393 101 b 999 413 824 101 925 204 l 1032 407 b 565 -21 979 147 826 -21 m 342 1340 l 558 1247 l 775 1340 l 790 1318 l 567 1114 l 550 1114 l 326 1318 "},"Ê":{"ha":1060,"x_min":0,"x_max":0,"o":"m 565 -21 b 42 518 272 -21 42 217 b 565 1056 42 814 285 1056 b 969 1028 736 1056 867 969 l 989 1014 b 944 672 963 910 940 785 l 910 668 b 539 999 846 899 714 999 b 186 569 339 999 186 815 l 186 567 l 469 567 b 664 735 569 567 649 603 l 699 735 b 764 319 717 575 732 460 l 729 307 b 483 511 664 471 593 511 l 189 511 b 613 101 215 276 393 101 b 999 413 824 101 925 204 l 1032 407 b 565 -21 979 147 826 -21 m 554 1340 l 571 1340 l 794 1136 l 779 1114 l 563 1207 l 346 1114 l 331 1136 "},"Ë":{"ha":1060,"x_min":0,"x_max":0,"o":"m 565 -21 b 42 518 272 -21 42 217 b 565 1056 42 814 285 1056 b 969 1028 736 1056 867 969 l 989 1014 b 944 672 963 910 940 785 l 910 668 b 539 999 846 899 714 999 b 186 569 339 999 186 815 l 186 567 l 469 567 b 664 735 569 567 649 603 l 699 735 b 764 319 717 575 732 460 l 729 307 b 483 511 664 471 593 511 l 189 511 b 613 101 215 276 393 101 b 999 413 824 101 925 204 l 1032 407 b 565 -21 979 147 826 -21 m 336 1206 b 411 1281 336 1247 369 1281 b 486 1206 453 1281 486 1247 b 411 1131 486 1164 453 1131 b 336 1206 369 1131 336 1164 m 632 1206 b 707 1281 632 1247 665 1281 b 782 1206 749 1281 782 1247 b 707 1131 782 1164 749 1131 b 632 1206 665 1131 632 1164 "},"Ė":{"ha":1060,"x_min":0,"x_max":0,"o":"m 565 -21 b 42 518 272 -21 42 217 b 565 1056 42 814 285 1056 b 969 1028 736 1056 867 969 l 989 1014 b 944 672 963 910 940 785 l 910 668 b 539 999 846 899 714 999 b 186 569 339 999 186 815 l 186 567 l 469 567 b 664 735 569 567 649 603 l 699 735 b 764 319 717 575 732 460 l 729 307 b 483 511 664 471 593 511 l 189 511 b 613 101 215 276 393 101 b 999 413 824 101 925 204 l 1032 407 b 565 -21 979 147 826 -21 m 489 1221 b 563 1294 489 1263 522 1294 b 638 1221 604 1294 638 1263 b 563 1146 638 1179 604 1146 b 489 1221 522 1146 489 1179 "},"È":{"ha":1060,"x_min":0,"x_max":0,"o":"m 565 -21 b 42 518 272 -21 42 217 b 565 1056 42 814 285 1056 b 969 1028 736 1056 867 969 l 989 1014 b 944 672 963 910 940 785 l 910 668 b 539 999 846 899 714 999 b 186 569 339 999 186 815 l 186 567 l 469 567 b 664 735 569 567 649 603 l 699 735 b 764 319 717 575 732 460 l 729 307 b 483 511 664 471 593 511 l 189 511 b 613 101 215 276 393 101 b 999 413 824 101 925 204 l 1032 407 b 565 -21 979 147 826 -21 m 404 1326 l 554 1326 l 665 1128 l 638 1108 l 394 1308 "},"Ē":{"ha":1060,"x_min":0,"x_max":0,"o":"m 565 -21 b 42 518 272 -21 42 217 b 565 1056 42 814 285 1056 b 969 1028 736 1056 867 969 l 989 1014 b 944 672 963 910 940 785 l 910 668 b 539 999 846 899 714 999 b 186 569 339 999 186 815 l 186 567 l 469 567 b 664 735 569 567 649 603 l 699 735 b 764 319 717 575 732 460 l 729 307 b 483 511 664 471 593 511 l 189 511 b 613 101 215 276 393 101 b 999 413 824 101 925 204 l 1032 407 b 565 -21 979 147 826 -21 m 765 1251 l 765 1182 l 361 1182 l 360 1251 "},"Ę":{"ha":1060,"x_min":0,"x_max":0,"o":"m 565 -21 b 42 518 272 -21 42 217 b 565 1056 42 814 285 1056 b 969 1028 736 1056 867 969 l 989 1014 b 944 672 963 910 940 785 l 910 668 b 539 999 846 899 714 999 b 186 569 339 999 186 815 l 186 567 l 469 567 b 664 735 569 567 649 603 l 699 735 b 764 319 717 575 732 460 l 729 307 b 483 511 664 471 593 511 l 189 511 b 613 101 215 276 393 101 b 999 413 824 101 925 204 l 1032 407 b 892 111 1007 286 961 185 b 790 -94 815 21 790 -50 b 878 -168 790 -137 824 -168 b 1000 -104 913 -168 956 -146 l 1024 -128 b 835 -253 1000 -168 933 -253 b 704 -126 754 -253 703 -192 b 800 38 706 -72 744 -22 b 565 -21 735 0 657 -21 "},"F":{"ha":1006,"x_min":0,"x_max":0,"o":"m 83 29 b 224 225 194 65 224 119 l 224 808 b 83 1004 224 914 194 968 l 89 1043 b 525 1033 174 1036 243 1033 b 931 1042 742 1033 850 1036 l 950 593 l 911 593 b 576 978 863 924 756 978 b 349 794 406 978 349 917 l 349 553 l 483 553 b 693 721 583 553 664 589 l 728 721 b 778 306 732 561 746 446 l 743 293 b 497 497 678 457 607 497 l 349 497 l 349 225 b 489 29 349 119 378 67 l 483 -10 b 288 0 415 -3 332 0 b 89 -10 243 0 174 -3 l 83 29 "},"G":{"ha":1126,"x_min":0,"x_max":0,"o":"m 551 -21 b 42 518 258 -21 42 217 b 565 1056 42 814 285 1056 b 1004 1028 750 1056 901 969 l 1029 1014 b 979 672 1003 910 975 785 l 944 668 b 553 999 881 899 728 999 b 186 569 339 999 186 815 b 626 101 186 306 361 101 b 950 336 796 101 950 204 b 564 511 950 419 897 511 l 564 567 l 1033 567 l 1043 0 l 988 0 l 965 204 b 551 -21 904 74 735 -21 "},"Ğ":{"ha":1126,"x_min":0,"x_max":0,"o":"m 551 -21 b 42 518 258 -21 42 217 b 565 1056 42 814 285 1056 b 1004 1028 750 1056 901 969 l 1029 1014 b 979 672 1003 910 975 785 l 944 668 b 553 999 881 899 728 999 b 186 569 339 999 186 815 b 626 101 186 306 361 101 b 950 336 796 101 950 204 b 564 511 950 419 897 511 l 564 567 l 1033 567 l 1043 0 l 988 0 l 965 204 b 551 -21 904 74 735 -21 m 410 1326 b 574 1233 433 1265 503 1233 b 739 1326 640 1233 713 1265 l 774 1326 b 575 1128 763 1221 694 1128 b 375 1326 454 1128 386 1221 "},"Ģ":{"ha":1126,"x_min":0,"x_max":0,"o":"m 551 -21 b 42 518 258 -21 42 217 b 565 1056 42 814 285 1056 b 1004 1028 750 1056 901 969 l 1029 1014 b 979 672 1003 910 975 785 l 944 668 b 553 999 881 899 728 999 b 186 569 339 999 186 815 b 626 101 186 306 361 101 b 950 336 796 101 950 204 b 564 511 950 419 897 511 l 564 567 l 1033 567 l 1043 0 l 988 0 l 965 204 b 551 -21 904 74 735 -21 m 467 -451 b 474 -199 565 -394 603 -287 l 631 -108 b 492 -479 769 -253 657 -412 l 467 -451 "},"Ġ":{"ha":1126,"x_min":0,"x_max":0,"o":"m 551 -21 b 42 518 258 -21 42 217 b 565 1056 42 814 285 1056 b 1004 1028 750 1056 901 969 l 1029 1014 b 979 672 1003 910 975 785 l 944 668 b 553 999 881 899 728 999 b 186 569 339 999 186 815 b 626 101 186 306 361 101 b 950 336 796 101 950 204 b 564 511 950 419 897 511 l 564 567 l 1033 567 l 1043 0 l 988 0 l 965 204 b 551 -21 904 74 735 -21 m 478 1200 b 551 1274 478 1242 511 1274 b 626 1200 593 1274 626 1242 b 551 1125 626 1158 593 1125 b 478 1200 511 1125 478 1158 "},"H":{"ha":1324,"x_min":0,"x_max":0,"o":"m 835 29 b 975 225 946 65 975 119 l 975 486 l 349 486 l 349 225 b 489 29 349 119 378 67 l 483 -10 b 288 0 415 -3 332 0 b 89 -10 243 0 174 -3 l 83 29 b 224 225 194 65 224 119 l 224 810 b 83 1006 224 915 194 969 l 89 1044 b 288 1035 174 1038 243 1035 b 483 1044 332 1035 415 1038 l 489 1006 b 349 810 378 968 349 915 l 349 556 l 975 556 l 975 810 b 835 1006 975 915 946 969 l 840 1044 b 1039 1035 925 1038 994 1035 b 1235 1044 1083 1035 1167 1038 l 1240 1006 b 1100 810 1129 968 1100 915 l 1100 225 b 1240 29 1100 119 1129 67 l 1235 -10 b 1039 0 1167 -3 1083 0 b 840 -10 994 0 925 -3 l 835 29 "},"Ħ":{"ha":1324,"x_min":0,"x_max":0,"o":"m 835 29 b 975 225 946 65 975 119 l 975 486 l 349 486 l 349 225 b 489 29 349 119 378 67 l 483 -10 b 288 0 415 -3 332 0 b 89 -10 243 0 174 -3 l 83 29 b 224 225 194 65 224 119 l 224 717 l 135 717 l 133 786 l 224 786 l 224 810 b 83 1006 224 915 194 969 l 89 1044 b 288 1035 174 1038 243 1035 b 483 1044 332 1035 415 1038 l 489 1006 b 349 810 378 968 349 915 l 349 786 l 975 786 l 975 810 b 835 1006 975 915 946 969 l 840 1044 b 1039 1035 925 1038 994 1035 b 1235 1044 1083 1035 1167 1038 l 1240 1006 b 1100 810 1129 968 1100 915 l 1100 786 l 1211 786 l 1211 717 l 1100 717 l 1100 225 b 1240 29 1100 119 1129 67 l 1235 -10 b 1039 0 1167 -3 1083 0 b 840 -10 994 0 925 -3 l 835 29 m 975 556 l 975 717 l 349 717 l 349 556 "},"I":{"ha":572,"x_min":0,"x_max":0,"o":"m 83 29 b 224 225 194 65 224 119 l 224 810 b 83 1006 224 915 194 969 l 89 1044 b 288 1035 174 1038 243 1035 b 483 1044 332 1035 415 1038 l 489 1006 b 349 810 378 968 349 915 l 349 225 b 489 29 349 119 378 67 l 483 -10 b 288 0 415 -3 332 0 b 89 -10 243 0 174 -3 l 83 29 "},"Í":{"ha":572,"x_min":0,"x_max":0,"o":"m 83 29 b 224 225 194 65 224 119 l 224 810 b 83 1006 224 915 194 969 l 89 1044 b 288 1035 174 1038 243 1035 b 483 1044 332 1035 415 1038 l 489 1006 b 349 810 378 968 349 915 l 349 225 b 489 29 349 119 378 67 l 483 -10 b 288 0 415 -3 332 0 b 89 -10 243 0 174 -3 l 83 29 m 301 1306 l 451 1306 l 461 1288 l 218 1088 l 190 1107 "},"Ǐ":{"ha":572,"x_min":0,"x_max":0,"o":"m 83 29 b 224 225 194 65 224 119 l 224 810 b 83 1006 224 915 194 969 l 89 1044 b 288 1035 174 1038 243 1035 b 483 1044 332 1035 415 1038 l 489 1006 b 349 810 378 968 349 915 l 349 225 b 489 29 349 119 378 67 l 483 -10 b 288 0 415 -3 332 0 b 89 -10 243 0 174 -3 l 83 29 m 65 1319 l 282 1226 l 499 1319 l 514 1297 l 290 1093 l 274 1093 l 50 1297 "},"Î":{"ha":572,"x_min":0,"x_max":0,"o":"m 83 29 b 224 225 194 65 224 119 l 224 810 b 83 1006 224 915 194 969 l 89 1044 b 288 1035 174 1038 243 1035 b 483 1044 332 1035 415 1038 l 489 1006 b 349 810 378 968 349 915 l 349 225 b 489 29 349 119 378 67 l 483 -10 b 288 0 415 -3 332 0 b 89 -10 243 0 174 -3 l 83 29 m 278 1319 l 294 1319 l 518 1115 l 503 1093 l 286 1186 l 69 1093 l 54 1115 "},"Ï":{"ha":572,"x_min":0,"x_max":0,"o":"m 83 29 b 224 225 194 65 224 119 l 224 810 b 83 1006 224 915 194 969 l 89 1044 b 288 1035 174 1038 243 1035 b 483 1044 332 1035 415 1038 l 489 1006 b 349 810 378 968 349 915 l 349 225 b 489 29 349 119 378 67 l 483 -10 b 288 0 415 -3 332 0 b 89 -10 243 0 174 -3 l 83 29 m 60 1185 b 135 1260 60 1226 93 1260 b 210 1185 176 1260 210 1226 b 135 1110 210 1143 176 1110 b 60 1185 93 1110 60 1143 m 356 1185 b 431 1260 356 1226 389 1260 b 506 1185 472 1260 506 1226 b 431 1110 506 1143 472 1110 b 356 1185 389 1110 356 1143 "},"İ":{"ha":572,"x_min":0,"x_max":0,"o":"m 83 29 b 224 225 194 65 224 119 l 224 810 b 83 1006 224 915 194 969 l 89 1044 b 288 1035 174 1038 243 1035 b 483 1044 332 1035 415 1038 l 489 1006 b 349 810 378 968 349 915 l 349 225 b 489 29 349 119 378 67 l 483 -10 b 288 0 415 -3 332 0 b 89 -10 243 0 174 -3 l 83 29 m 213 1200 b 286 1274 213 1242 246 1274 b 361 1200 328 1274 361 1242 b 286 1125 361 1158 328 1125 b 213 1200 246 1125 213 1158 "},"Ì":{"ha":572,"x_min":0,"x_max":0,"o":"m 83 29 b 224 225 194 65 224 119 l 224 810 b 83 1006 224 915 194 969 l 89 1044 b 288 1035 174 1038 243 1035 b 483 1044 332 1035 415 1038 l 489 1006 b 349 810 378 968 349 915 l 349 225 b 489 29 349 119 378 67 l 483 -10 b 288 0 415 -3 332 0 b 89 -10 243 0 174 -3 l 83 29 m 128 1306 l 278 1306 l 389 1107 l 361 1088 l 118 1288 "},"Ī":{"ha":572,"x_min":0,"x_max":0,"o":"m 83 29 b 224 225 194 65 224 119 l 224 810 b 83 1006 224 915 194 969 l 89 1044 b 288 1035 174 1038 243 1035 b 483 1044 332 1035 415 1038 l 489 1006 b 349 810 378 968 349 915 l 349 225 b 489 29 349 119 378 67 l 483 -10 b 288 0 415 -3 332 0 b 89 -10 243 0 174 -3 l 83 29 m 489 1231 l 489 1161 l 85 1161 l 83 1231 "},"Į":{"ha":572,"x_min":0,"x_max":0,"o":"m 83 29 b 224 225 194 65 224 119 l 224 810 b 83 1006 224 915 194 969 l 89 1044 b 288 1035 174 1038 243 1035 b 483 1044 332 1035 415 1038 l 489 1006 b 349 810 378 968 349 915 l 349 225 b 489 29 349 119 378 67 l 483 -10 b 354 -1 442 -6 394 -3 l 351 -1 b 351 -1 351 -1 351 -1 b 253 -108 285 1 253 -62 b 340 -182 253 -151 286 -182 b 463 -118 375 -182 418 -160 l 486 -142 b 297 -267 463 -182 396 -267 b 167 -140 217 -267 165 -206 b 264 0 168 -82 217 -29 b 89 -10 219 -1 160 -4 l 83 29 "},"J":{"ha":558,"x_min":0,"x_max":0,"o":"m -18 -126 b 224 308 117 -104 224 0 l 224 810 b 83 1006 224 915 194 969 l 89 1044 b 288 1035 174 1038 243 1035 b 483 1044 332 1035 415 1038 l 489 1006 b 349 810 378 968 349 915 l 349 288 b -15 -162 349 -85 208 -165 l -18 -126 "},"K":{"ha":1117,"x_min":0,"x_max":0,"o":"m 83 29 b 224 225 194 65 224 119 l 224 810 b 83 1006 224 915 194 969 l 89 1044 b 288 1035 174 1038 243 1035 b 483 1044 332 1035 415 1038 l 489 1006 b 349 810 378 968 349 915 l 349 450 l 732 813 b 656 1006 824 900 775 983 l 661 1044 b 907 1035 792 1038 871 1035 b 1111 1044 943 1035 1015 1038 l 1117 1006 b 769 772 1006 954 879 876 l 632 642 l 856 293 b 1114 39 971 114 1022 79 l 1093 0 l 860 0 b 539 554 804 131 676 360 l 349 374 l 349 225 b 489 29 349 119 378 67 l 483 -10 b 288 0 415 -3 332 0 b 89 -10 243 0 174 -3 l 83 29 "},"Ķ":{"ha":1117,"x_min":0,"x_max":0,"o":"m 83 29 b 224 225 194 65 224 119 l 224 810 b 83 1006 224 915 194 969 l 89 1044 b 288 1035 174 1038 243 1035 b 483 1044 332 1035 415 1038 l 489 1006 b 349 810 378 968 349 915 l 349 450 l 732 813 b 656 1006 824 900 775 983 l 661 1044 b 907 1035 792 1038 871 1035 b 1111 1044 943 1035 1015 1038 l 1117 1006 b 769 772 1006 954 879 876 l 632 642 l 856 293 b 1114 39 971 114 1022 79 l 1093 0 l 860 0 b 539 554 804 131 676 360 l 349 374 l 349 225 b 489 29 349 119 378 67 l 483 -10 b 288 0 415 -3 332 0 b 89 -10 243 0 174 -3 l 83 29 m 521 -432 b 528 -179 619 -375 657 -268 l 685 -89 b 546 -460 824 -233 711 -393 l 521 -432 "},"L":{"ha":992,"x_min":0,"x_max":0,"o":"m 83 29 b 224 225 194 65 224 119 l 224 810 b 83 1006 224 915 194 969 l 89 1044 b 288 1035 174 1038 243 1035 b 483 1044 332 1035 415 1038 l 489 1006 b 349 810 378 968 349 915 l 349 239 b 535 56 349 117 406 56 b 897 440 742 56 846 178 l 936 440 l 917 -8 b 511 0 836 -3 728 0 b 89 -10 243 0 174 -3 l 83 29 "},"Ĺ":{"ha":992,"x_min":0,"x_max":0,"o":"m 83 29 b 224 225 194 65 224 119 l 224 810 b 83 1006 224 915 194 969 l 89 1044 b 288 1035 174 1038 243 1035 b 483 1044 332 1035 415 1038 l 489 1006 b 349 810 378 968 349 915 l 349 239 b 535 56 349 117 406 56 b 897 440 742 56 846 178 l 936 440 l 917 -8 b 511 0 836 -3 728 0 b 89 -10 243 0 174 -3 l 83 29 m 349 1306 l 499 1306 l 508 1288 l 265 1088 l 238 1107 "},"Ľ":{"ha":992,"x_min":0,"x_max":0,"o":"m 83 29 b 224 225 194 65 224 119 l 224 810 b 83 1006 224 915 194 969 l 89 1044 b 288 1035 174 1038 243 1035 b 483 1044 332 1035 415 1038 l 489 1006 b 349 810 378 968 349 915 l 349 239 b 535 56 349 117 406 56 b 897 440 742 56 846 178 l 936 440 l 917 -8 b 511 0 836 -3 728 0 b 89 -10 243 0 174 -3 l 83 29 m 71 1319 l 288 1226 l 504 1319 l 519 1297 l 296 1093 l 279 1093 l 56 1297 "},"Ļ":{"ha":992,"x_min":0,"x_max":0,"o":"m 83 29 b 224 225 194 65 224 119 l 224 810 b 83 1006 224 915 194 969 l 89 1044 b 288 1035 174 1038 243 1035 b 483 1044 332 1035 415 1038 l 489 1006 b 349 810 378 968 349 915 l 349 239 b 535 56 349 117 406 56 b 897 440 742 56 846 178 l 936 440 l 917 -8 b 511 0 836 -3 728 0 b 89 -10 243 0 174 -3 l 83 29 m 392 -432 b 399 -179 490 -375 528 -268 l 556 -89 b 417 -460 694 -233 582 -393 l 392 -432 "},"Ł":{"ha":950,"x_min":0,"x_max":0,"o":"m 83 29 b 224 225 194 65 224 119 l 224 399 l 44 292 l 43 382 l 224 489 l 224 810 b 83 1006 224 915 194 969 l 89 1044 b 288 1035 174 1038 243 1035 b 483 1044 332 1035 415 1038 l 489 1006 b 349 810 378 968 349 915 l 349 563 l 610 718 l 608 626 l 349 472 l 349 239 b 535 56 349 117 406 56 b 897 440 742 56 846 178 l 936 440 l 917 -8 b 511 0 836 -3 728 0 b 89 -10 243 0 174 -3 l 83 29 "},"M":{"ha":1567,"x_min":0,"x_max":0,"o":"m 14 29 b 214 294 125 79 172 161 l 339 693 b 167 1006 389 851 333 963 l 172 1044 b 322 1035 250 1036 279 1035 b 435 1044 365 1035 388 1038 l 801 213 l 1099 1035 b 1344 1044 1218 1035 1276 1038 l 1350 1006 b 1286 668 1235 968 1238 856 l 1390 267 b 1553 29 1424 139 1442 67 l 1547 -10 b 1368 0 1485 -4 1446 0 b 1163 -10 1304 0 1240 -4 l 1157 29 b 1247 267 1268 65 1281 139 l 1150 643 b 1086 832 1131 719 1111 781 l 775 -21 l 754 -21 l 411 753 l 276 294 b 397 29 238 160 258 81 l 392 -10 b 183 0 301 -3 232 0 b 19 -10 131 0 97 -3 l 14 29 "},"N":{"ha":1292,"x_min":0,"x_max":0,"o":"m 83 29 b 231 253 194 79 231 133 l 231 726 b 83 1006 231 901 194 956 l 89 1044 b 215 1035 144 1039 178 1035 b 317 1046 250 1035 285 1040 l 1013 225 l 1013 782 b 844 1006 1013 901 983 956 l 850 1044 b 1040 1035 943 1036 997 1035 b 1203 1044 1083 1035 1135 1038 l 1208 1006 b 1068 782 1097 954 1068 901 l 1068 -1 l 1025 -26 l 286 846 l 286 253 b 454 29 286 133 315 81 l 449 -10 b 246 0 358 -3 294 0 b 89 -10 193 0 167 -3 l 83 29 "},"Ń":{"ha":1292,"x_min":0,"x_max":0,"o":"m 83 29 b 231 253 194 79 231 133 l 231 726 b 83 1006 231 901 194 956 l 89 1044 b 215 1035 144 1039 178 1035 b 317 1046 250 1035 285 1040 l 1013 225 l 1013 782 b 844 1006 1013 901 983 956 l 850 1044 b 1040 1035 943 1036 997 1035 b 1203 1044 1083 1035 1135 1038 l 1208 1006 b 1068 782 1097 954 1068 901 l 1068 -1 l 1025 -26 l 286 846 l 286 253 b 454 29 286 133 315 81 l 449 -10 b 246 0 358 -3 294 0 b 89 -10 193 0 167 -3 l 83 29 m 671 1306 l 821 1306 l 831 1288 l 588 1088 l 560 1107 "},"Ň":{"ha":1292,"x_min":0,"x_max":0,"o":"m 83 29 b 231 253 194 79 231 133 l 231 726 b 83 1006 231 901 194 956 l 89 1044 b 215 1035 144 1039 178 1035 b 317 1046 250 1035 285 1040 l 1013 225 l 1013 782 b 844 1006 1013 901 983 956 l 850 1044 b 1040 1035 943 1036 997 1035 b 1203 1044 1083 1035 1135 1038 l 1208 1006 b 1068 782 1097 954 1068 901 l 1068 -1 l 1025 -26 l 286 846 l 286 253 b 454 29 286 133 315 81 l 449 -10 b 246 0 358 -3 294 0 b 89 -10 193 0 167 -3 l 83 29 m 435 1319 l 651 1226 l 868 1319 l 883 1297 l 660 1093 l 643 1093 l 419 1297 "},"Ņ":{"ha":1292,"x_min":0,"x_max":0,"o":"m 83 29 b 231 253 194 79 231 133 l 231 726 b 83 1006 231 901 194 956 l 89 1044 b 215 1035 144 1039 178 1035 b 317 1046 250 1035 285 1040 l 1013 225 l 1013 782 b 844 1006 1013 901 983 956 l 850 1044 b 1040 1035 943 1036 997 1035 b 1203 1044 1083 1035 1135 1038 l 1208 1006 b 1068 782 1097 954 1068 901 l 1068 -1 l 1025 -26 l 286 846 l 286 253 b 454 29 286 133 315 81 l 449 -10 b 246 0 358 -3 294 0 b 89 -10 193 0 167 -3 l 83 29 m 531 -432 b 538 -179 629 -375 667 -268 l 694 -89 b 556 -460 833 -233 721 -393 l 531 -432 "},"Ñ":{"ha":1292,"x_min":0,"x_max":0,"o":"m 83 29 b 231 253 194 79 231 133 l 231 726 b 83 1006 231 901 194 956 l 89 1044 b 215 1035 144 1039 178 1035 b 317 1046 250 1035 285 1040 l 1013 225 l 1013 782 b 844 1006 1013 901 983 956 l 850 1044 b 1040 1035 943 1036 997 1035 b 1203 1044 1083 1035 1135 1038 l 1208 1006 b 1068 782 1097 954 1068 901 l 1068 -1 l 1025 -26 l 286 846 l 286 253 b 454 29 286 133 315 81 l 449 -10 b 246 0 358 -3 294 0 b 89 -10 193 0 167 -3 l 83 29 m 458 1113 b 526 1181 465 1143 475 1181 b 739 1089 588 1181 646 1089 b 854 1247 818 1089 869 1171 l 831 1247 b 761 1179 826 1217 814 1179 b 549 1267 708 1179 649 1267 b 436 1111 469 1267 421 1189 "},"Ŋ":{"ha":1294,"x_min":0,"x_max":0,"o":"m 83 29 b 231 253 194 79 231 133 l 231 726 b 83 1006 231 901 194 956 l 89 1044 b 215 1035 144 1039 178 1035 b 317 1046 250 1035 285 1040 l 1022 213 l 1022 810 b 861 1006 1022 915 972 969 l 867 1044 b 1051 1035 951 1038 1007 1035 b 1233 1044 1096 1035 1165 1038 l 1239 1006 b 1078 810 1128 968 1078 915 l 1078 -32 b 771 -268 1078 -274 976 -342 l 774 -237 b 1022 -24 900 -237 1019 -156 l 286 846 l 286 253 b 454 29 286 133 315 81 l 449 -10 b 246 0 358 -3 294 0 b 89 -10 193 0 167 -3 l 83 29 "},"O":{"ha":1144,"x_min":0,"x_max":0,"o":"m 572 -21 b 42 519 279 -21 42 207 b 572 1056 42 815 279 1056 b 1103 519 864 1056 1103 829 b 572 -21 1103 221 864 -21 m 243 357 b 744 68 331 129 551 0 b 900 685 951 142 1019 414 b 392 964 801 904 578 1028 b 243 357 203 896 138 629 "},"Ó":{"ha":1144,"x_min":0,"x_max":0,"o":"m 572 -21 b 42 519 279 -21 42 207 b 572 1056 42 815 279 1056 b 1103 519 864 1056 1103 829 b 572 -21 1103 221 864 -21 m 243 357 b 744 68 331 129 551 0 b 900 685 951 142 1019 414 b 392 964 801 904 578 1028 b 243 357 203 896 138 629 m 588 1306 l 738 1306 l 747 1288 l 504 1088 l 476 1107 "},"Ǒ":{"ha":1144,"x_min":0,"x_max":0,"o":"m 572 -21 b 42 519 279 -21 42 207 b 572 1056 42 815 279 1056 b 1103 519 864 1056 1103 829 b 572 -21 1103 221 864 -21 m 243 357 b 744 68 331 129 551 0 b 900 685 951 142 1019 414 b 392 964 801 904 578 1028 b 243 357 203 896 138 629 m 351 1319 l 568 1226 l 785 1319 l 800 1297 l 576 1093 l 560 1093 l 336 1297 "},"Ô":{"ha":1144,"x_min":0,"x_max":0,"o":"m 572 -21 b 42 519 279 -21 42 207 b 572 1056 42 815 279 1056 b 1103 519 864 1056 1103 829 b 572 -21 1103 221 864 -21 m 243 357 b 744 68 331 129 551 0 b 900 685 951 142 1019 414 b 392 964 801 904 578 1028 b 243 357 203 896 138 629 m 564 1319 l 581 1319 l 804 1115 l 789 1093 l 572 1186 l 356 1093 l 340 1115 "},"Ö":{"ha":1144,"x_min":0,"x_max":0,"o":"m 572 -21 b 42 519 279 -21 42 207 b 572 1056 42 815 279 1056 b 1103 519 864 1056 1103 829 b 572 -21 1103 221 864 -21 m 243 357 b 744 68 331 129 551 0 b 900 685 951 142 1019 414 b 392 964 801 904 578 1028 b 243 357 203 896 138 629 m 346 1185 b 421 1260 346 1226 379 1260 b 496 1185 463 1260 496 1226 b 421 1110 496 1143 463 1110 b 346 1185 379 1110 346 1143 m 642 1185 b 717 1260 642 1226 675 1260 b 792 1185 758 1260 792 1226 b 717 1110 792 1143 758 1110 b 642 1185 675 1110 642 1143 "},"Ò":{"ha":1144,"x_min":0,"x_max":0,"o":"m 572 -21 b 42 519 279 -21 42 207 b 572 1056 42 815 279 1056 b 1103 519 864 1056 1103 829 b 572 -21 1103 221 864 -21 m 243 357 b 744 68 331 129 551 0 b 900 685 951 142 1019 414 b 392 964 801 904 578 1028 b 243 357 203 896 138 629 m 414 1306 l 564 1306 l 675 1107 l 647 1088 l 404 1288 "},"Ő":{"ha":1144,"x_min":0,"x_max":0,"o":"m 572 -21 b 42 519 279 -21 42 207 b 572 1056 42 815 279 1056 b 1103 519 864 1056 1103 829 b 572 -21 1103 221 864 -21 m 243 357 b 744 68 331 129 551 0 b 900 685 951 142 1019 414 b 392 964 801 904 578 1028 b 243 357 203 896 138 629 m 581 1343 l 596 1332 l 481 1119 l 449 1125 l 443 1288 m 800 1343 l 815 1332 l 700 1119 l 668 1125 l 663 1288 "},"Ō":{"ha":1144,"x_min":0,"x_max":0,"o":"m 572 -21 b 42 519 279 -21 42 207 b 572 1056 42 815 279 1056 b 1103 519 864 1056 1103 829 b 572 -21 1103 221 864 -21 m 243 357 b 744 68 331 129 551 0 b 900 685 951 142 1019 414 b 392 964 801 904 578 1028 b 243 357 203 896 138 629 m 775 1231 l 775 1161 l 371 1161 l 369 1231 "},"Ø":{"ha":1144,"x_min":0,"x_max":0,"o":"m 572 -21 b 242 92 447 -21 332 21 l 161 0 l 68 0 l 190 139 b 42 519 99 235 42 367 b 572 1056 42 815 279 1056 b 896 947 694 1056 807 1017 l 972 1035 l 1065 1035 l 949 901 b 1103 519 1044 807 1103 674 b 572 -21 1103 221 864 -21 m 243 357 b 293 258 257 321 274 288 l 799 836 b 392 964 686 957 529 1011 b 243 357 203 896 138 629 m 336 200 b 744 68 444 75 601 18 b 900 685 951 142 1019 414 b 844 782 885 719 865 751 l 336 200 "},"Õ":{"ha":1144,"x_min":0,"x_max":0,"o":"m 572 -21 b 42 519 279 -21 42 207 b 572 1056 42 815 279 1056 b 1103 519 864 1056 1103 829 b 572 -21 1103 221 864 -21 m 243 357 b 744 68 331 129 551 0 b 900 685 951 142 1019 414 b 392 964 801 904 578 1028 b 243 357 203 896 138 629 m 375 1113 b 443 1181 382 1143 392 1181 b 656 1089 504 1181 563 1089 b 771 1247 735 1089 786 1171 l 747 1247 b 678 1179 743 1217 731 1179 b 465 1267 625 1179 565 1267 b 353 1111 386 1267 338 1189 "},"Œ":{"ha":1972,"x_min":0,"x_max":0,"o":"m 572 -21 b 42 519 279 -21 42 207 b 572 1056 42 815 279 1056 b 1031 794 767 1056 939 954 b 1478 1056 1125 951 1293 1056 b 1882 1028 1649 1056 1779 969 l 1901 1014 b 1857 672 1875 910 1853 785 l 1822 668 b 1451 999 1758 899 1626 999 b 1099 588 1256 999 1106 824 b 1101 567 1100 581 1100 574 l 1382 567 b 1576 735 1482 567 1561 603 l 1611 735 b 1676 319 1629 575 1644 460 l 1642 307 b 1396 511 1576 471 1506 511 l 1103 511 l 1103 504 b 1525 101 1131 272 1307 101 b 1911 413 1736 101 1838 204 l 1944 407 b 1478 -21 1892 147 1739 -21 b 1026 242 1283 -21 1117 83 b 572 -21 933 85 764 -21 m 243 357 b 744 68 331 129 551 0 b 958 453 892 121 968 272 b 956 486 957 464 956 475 b 900 685 947 550 929 618 b 392 964 801 904 578 1028 b 243 357 203 896 138 629 "},"P":{"ha":950,"x_min":0,"x_max":0,"o":"m 83 29 b 224 225 194 65 224 119 l 224 810 b 83 1006 224 915 194 969 l 89 1044 b 288 1035 174 1038 243 1035 b 517 1042 332 1035 438 1038 b 922 739 763 1054 922 936 b 458 392 922 576 808 439 l 349 376 l 349 225 b 489 29 349 119 378 67 l 483 -10 b 288 0 415 -3 332 0 b 89 -10 243 0 174 -3 l 83 29 m 428 444 b 769 729 693 483 769 601 b 349 978 769 921 607 1000 l 349 433 "},"Þ":{"ha":888,"x_min":0,"x_max":0,"o":"m 83 29 b 224 225 194 65 224 119 l 224 810 b 83 1006 224 915 194 969 l 89 1044 b 288 1035 174 1038 243 1035 b 483 1044 332 1035 415 1038 l 489 1006 b 349 810 378 968 349 915 l 349 806 l 407 811 b 860 525 714 839 860 714 b 407 239 860 336 714 211 l 349 244 l 349 225 b 489 29 349 119 378 67 l 483 -10 b 288 0 415 -3 332 0 b 89 -10 243 0 174 -3 l 83 29 m 407 293 b 693 525 601 275 693 372 b 407 757 693 678 601 775 l 349 751 l 349 299 "},"Q":{"ha":1153,"x_min":0,"x_max":0,"o":"m 572 21 b 507 25 550 21 528 22 l 553 13 b 797 -43 618 -4 715 -28 b 1092 -1 883 -60 986 -49 l 1111 -26 b 922 -229 1035 -104 989 -142 b 151 -67 565 -49 388 -29 l 140 -33 b 444 35 256 -7 349 17 b 42 540 214 89 42 285 b 572 1056 42 825 279 1056 b 1103 540 864 1056 1103 838 b 572 21 1103 253 864 21 m 243 383 b 743 108 331 165 550 43 b 900 699 950 179 1019 439 b 392 965 801 910 578 1026 b 243 383 203 899 138 646 "},"R":{"ha":1086,"x_min":0,"x_max":0,"o":"m 83 29 b 224 225 194 65 224 119 l 224 810 b 83 1006 224 915 194 969 l 89 1044 b 288 1035 174 1038 243 1035 b 517 1042 332 1035 438 1038 b 922 794 781 1056 922 963 b 675 521 922 672 842 585 l 828 286 b 1086 32 943 108 994 72 l 1065 -7 b 832 -7 978 0 892 0 b 550 482 775 126 689 286 l 349 428 l 349 225 b 489 29 349 119 378 67 l 483 -10 b 288 0 415 -3 332 0 b 89 -10 243 0 174 -3 l 83 29 m 483 521 b 769 785 679 572 769 672 b 349 979 769 963 607 1001 l 349 485 "},"Ŕ":{"ha":1086,"x_min":0,"x_max":0,"o":"m 83 29 b 224 225 194 65 224 119 l 224 810 b 83 1006 224 915 194 969 l 89 1044 b 288 1035 174 1038 243 1035 b 517 1042 332 1035 438 1038 b 922 794 781 1056 922 963 b 675 521 922 672 842 585 l 828 286 b 1086 32 943 108 994 72 l 1065 -7 b 832 -7 978 0 892 0 b 550 482 775 126 689 286 l 349 428 l 349 225 b 489 29 349 119 378 67 l 483 -10 b 288 0 415 -3 332 0 b 89 -10 243 0 174 -3 l 83 29 m 483 521 b 769 785 679 572 769 672 b 349 979 769 963 607 1001 l 349 485 m 564 1306 l 714 1306 l 724 1288 l 481 1088 l 453 1107 "},"Ř":{"ha":1086,"x_min":0,"x_max":0,"o":"m 83 29 b 224 225 194 65 224 119 l 224 810 b 83 1006 224 915 194 969 l 89 1044 b 288 1035 174 1038 243 1035 b 517 1042 332 1035 438 1038 b 922 794 781 1056 922 963 b 675 521 922 672 842 585 l 828 286 b 1086 32 943 108 994 72 l 1065 -7 b 832 -7 978 0 892 0 b 550 482 775 126 689 286 l 349 428 l 349 225 b 489 29 349 119 378 67 l 483 -10 b 288 0 415 -3 332 0 b 89 -10 243 0 174 -3 l 83 29 m 328 1319 l 544 1226 l 761 1319 l 776 1297 l 553 1093 l 536 1093 l 313 1297 m 483 521 b 769 785 679 572 769 672 b 349 979 769 963 607 1001 l 349 485 "},"Ŗ":{"ha":1086,"x_min":0,"x_max":0,"o":"m 83 29 b 224 225 194 65 224 119 l 224 810 b 83 1006 224 915 194 969 l 89 1044 b 288 1035 174 1038 243 1035 b 517 1042 332 1035 438 1038 b 922 794 781 1056 922 963 b 675 521 922 672 842 585 l 828 286 b 1086 32 943 108 994 72 l 1065 -7 b 832 -7 978 0 892 0 b 550 482 775 126 689 286 l 349 428 l 349 225 b 489 29 349 119 378 67 l 483 -10 b 288 0 415 -3 332 0 b 89 -10 243 0 174 -3 l 83 29 m 483 521 b 769 785 679 572 769 672 b 349 979 769 963 607 1001 l 349 485 m 479 -432 b 486 -179 578 -375 615 -268 l 643 -89 b 504 -460 782 -233 669 -393 l 479 -432 "},"S":{"ha":928,"x_min":0,"x_max":0,"o":"m 136 392 b 511 35 221 122 365 35 b 739 183 653 35 739 97 b 414 465 739 290 649 364 b 107 794 197 558 107 660 b 447 1056 107 968 281 1056 b 792 1019 582 1056 614 1019 b 794 692 781 906 782 804 l 763 685 b 429 1000 694 918 554 1000 b 229 850 326 1000 229 939 b 524 576 229 742 322 667 b 858 244 765 468 858 386 b 472 -21 858 88 744 -21 b 83 36 351 -21 229 -10 b 101 381 115 117 121 288 l 136 392 "},"Ś":{"ha":928,"x_min":0,"x_max":0,"o":"m 136 392 b 511 35 221 122 365 35 b 739 183 653 35 739 97 b 414 465 739 290 649 364 b 107 794 197 558 107 660 b 447 1056 107 968 281 1056 b 792 1019 582 1056 614 1019 b 794 692 781 906 782 804 l 763 685 b 429 1000 694 918 554 1000 b 229 850 326 1000 229 939 b 524 576 229 742 322 667 b 858 244 765 468 858 386 b 472 -21 858 88 744 -21 b 83 36 351 -21 229 -10 b 101 381 115 117 121 288 l 136 392 m 501 1306 l 651 1306 l 661 1288 l 418 1088 l 390 1107 "},"Š":{"ha":928,"x_min":0,"x_max":0,"o":"m 136 392 b 511 35 221 122 365 35 b 739 183 653 35 739 97 b 414 465 739 290 649 364 b 107 794 197 558 107 660 b 447 1056 107 968 281 1056 b 792 1019 582 1056 614 1019 b 794 692 781 906 782 804 l 763 685 b 429 1000 694 918 554 1000 b 229 850 326 1000 229 939 b 524 576 229 742 322 667 b 858 244 765 468 858 386 b 472 -21 858 88 744 -21 b 83 36 351 -21 229 -10 b 101 381 115 117 121 288 l 136 392 m 265 1319 l 482 1226 l 699 1319 l 714 1297 l 490 1093 l 474 1093 l 250 1297 "},"Ş":{"ha":928,"x_min":0,"x_max":0,"o":"m 136 392 b 511 35 221 122 365 35 b 739 183 653 35 739 97 b 414 465 739 290 649 364 b 107 794 197 558 107 660 b 447 1056 107 968 281 1056 b 792 1019 582 1056 614 1019 b 794 692 781 906 782 804 l 763 685 b 429 1000 694 918 554 1000 b 229 850 326 1000 229 939 b 524 576 229 742 322 667 b 858 244 765 468 858 386 b 503 -21 858 93 753 -12 l 494 -79 b 676 -175 606 -79 676 -117 b 504 -297 676 -240 603 -297 b 271 -208 400 -297 321 -256 l 289 -190 b 553 -192 419 -265 553 -251 b 381 -126 553 -132 435 -126 l 475 -21 l 472 -21 b 83 36 351 -21 229 -10 b 101 381 115 117 121 288 l 136 392 "},"Ș":{"ha":928,"x_min":0,"x_max":0,"o":"m 136 392 b 511 35 221 122 365 35 b 739 183 653 35 739 97 b 414 465 739 290 649 364 b 107 794 197 558 107 660 b 447 1056 107 968 281 1056 b 792 1019 582 1056 614 1019 b 794 692 781 906 782 804 l 763 685 b 429 1000 694 918 554 1000 b 229 850 326 1000 229 939 b 524 576 229 742 322 667 b 858 244 765 468 858 386 b 472 -21 858 88 744 -21 b 83 36 351 -21 229 -10 b 101 381 115 117 121 288 l 136 392 m 336 -449 b 343 -196 435 -392 472 -285 l 500 -106 b 361 -476 639 -250 526 -410 l 336 -449 "},"T":{"ha":1015,"x_min":0,"x_max":0,"o":"m 264 29 b 446 225 417 65 446 119 l 446 822 b 317 982 446 928 417 982 b 61 650 160 983 83 871 l 22 650 l 14 1043 b 508 1035 149 1038 269 1036 b 1001 1043 747 1033 868 1038 l 994 650 l 956 650 b 700 982 933 871 857 983 b 571 822 600 981 571 928 l 571 225 b 753 29 571 119 600 67 l 747 -10 b 510 0 638 -3 554 0 b 269 -10 465 0 396 -3 l 264 29 "},"Ŧ":{"ha":1031,"x_min":0,"x_max":0,"o":"m 264 29 b 446 225 417 65 446 119 l 446 453 l 179 453 l 178 522 l 446 522 l 446 822 b 317 982 446 928 417 982 b 61 650 160 983 83 871 l 22 650 l 14 1043 b 508 1035 149 1038 269 1036 b 1001 1043 747 1033 868 1038 l 994 650 l 956 650 b 700 982 933 871 857 983 b 571 822 600 981 571 928 l 571 522 l 839 522 l 839 453 l 571 453 l 571 225 b 753 29 571 119 600 67 l 747 -10 b 510 0 638 -3 554 0 b 269 -10 465 0 396 -3 l 264 29 "},"Ť":{"ha":1015,"x_min":0,"x_max":0,"o":"m 264 29 b 446 225 417 65 446 119 l 446 822 b 317 982 446 928 417 982 b 61 650 160 983 83 871 l 22 650 l 14 1043 b 508 1035 149 1038 269 1036 b 1001 1043 747 1033 868 1038 l 994 650 l 956 650 b 700 982 933 871 857 983 b 571 822 600 981 571 928 l 571 225 b 753 29 571 119 600 67 l 747 -10 b 510 0 638 -3 554 0 b 269 -10 465 0 396 -3 l 264 29 m 294 1319 l 511 1226 l 728 1319 l 743 1297 l 519 1093 l 503 1093 l 279 1297 "},"Ţ":{"ha":1015,"x_min":0,"x_max":0,"o":"m 264 29 b 446 225 417 65 446 119 l 446 822 b 317 982 446 928 417 982 b 61 650 160 983 83 871 l 22 650 l 14 1043 b 508 1035 149 1038 269 1036 b 1001 1043 747 1033 868 1038 l 994 650 l 956 650 b 700 982 933 871 857 983 b 571 822 600 981 571 928 l 571 225 b 753 29 571 119 600 67 l 747 -10 b 519 0 644 -3 565 0 l 511 -61 b 693 -157 622 -61 693 -99 b 521 -279 693 -222 619 -279 b 288 -190 417 -279 338 -237 l 306 -172 b 569 -174 436 -247 569 -233 b 397 -108 569 -114 451 -108 l 494 0 b 269 -10 449 0 382 -4 l 264 29 "},"Ț":{"ha":1015,"x_min":0,"x_max":0,"o":"m 264 29 b 446 225 417 65 446 119 l 446 822 b 317 982 446 928 417 982 b 61 650 160 983 83 871 l 22 650 l 14 1043 b 508 1035 149 1038 269 1036 b 1001 1043 747 1033 868 1038 l 994 650 l 956 650 b 700 982 933 871 857 983 b 571 822 600 981 571 928 l 571 225 b 753 29 571 119 600 67 l 747 -10 b 510 0 638 -3 554 0 b 269 -10 465 0 396 -3 l 264 29 m 390 -432 b 397 -179 489 -375 526 -268 l 554 -89 b 415 -460 693 -233 581 -393 l 390 -432 "},"U":{"ha":1164,"x_min":0,"x_max":0,"o":"m 593 -21 b 168 461 321 -18 168 156 l 168 810 b 28 1006 168 915 139 968 l 33 1044 b 258 1035 144 1036 200 1035 b 476 1044 317 1035 378 1039 l 482 1003 b 293 810 315 967 293 915 l 293 492 b 621 104 293 243 411 104 b 940 469 826 104 940 235 l 940 713 b 731 1003 940 874 897 967 l 736 1044 b 949 1035 835 1039 904 1035 b 1131 1044 993 1035 1063 1038 l 1136 1006 b 996 713 1025 968 996 874 l 996 442 b 593 -21 996 142 851 -24 "},"Ú":{"ha":1164,"x_min":0,"x_max":0,"o":"m 593 -21 b 168 461 321 -18 168 156 l 168 810 b 28 1006 168 915 139 968 l 33 1044 b 258 1035 144 1036 200 1035 b 476 1044 317 1035 378 1039 l 482 1003 b 293 810 315 967 293 915 l 293 492 b 621 104 293 243 411 104 b 940 469 826 104 940 235 l 940 713 b 731 1003 940 874 897 967 l 736 1044 b 949 1035 835 1039 904 1035 b 1131 1044 993 1035 1063 1038 l 1136 1006 b 996 713 1025 968 996 874 l 996 442 b 593 -21 996 142 851 -24 m 613 1306 l 763 1306 l 772 1288 l 529 1088 l 501 1107 "},"Ǔ":{"ha":1164,"x_min":0,"x_max":0,"o":"m 593 -21 b 168 461 321 -18 168 156 l 168 810 b 28 1006 168 915 139 968 l 33 1044 b 258 1035 144 1036 200 1035 b 476 1044 317 1035 378 1039 l 482 1003 b 293 810 315 967 293 915 l 293 492 b 621 104 293 243 411 104 b 940 469 826 104 940 235 l 940 713 b 731 1003 940 874 897 967 l 736 1044 b 949 1035 835 1039 904 1035 b 1131 1044 993 1035 1063 1038 l 1136 1006 b 996 713 1025 968 996 874 l 996 442 b 593 -21 996 142 851 -24 m 376 1319 l 593 1226 l 810 1319 l 825 1297 l 601 1093 l 585 1093 l 361 1297 "},"Û":{"ha":1164,"x_min":0,"x_max":0,"o":"m 593 -21 b 168 461 321 -18 168 156 l 168 810 b 28 1006 168 915 139 968 l 33 1044 b 258 1035 144 1036 200 1035 b 476 1044 317 1035 378 1039 l 482 1003 b 293 810 315 967 293 915 l 293 492 b 621 104 293 243 411 104 b 940 469 826 104 940 235 l 940 713 b 731 1003 940 874 897 967 l 736 1044 b 949 1035 835 1039 904 1035 b 1131 1044 993 1035 1063 1038 l 1136 1006 b 996 713 1025 968 996 874 l 996 442 b 593 -21 996 142 851 -24 m 589 1319 l 606 1319 l 829 1115 l 814 1093 l 597 1186 l 381 1093 l 365 1115 "},"Ü":{"ha":1164,"x_min":0,"x_max":0,"o":"m 593 -21 b 168 461 321 -18 168 156 l 168 810 b 28 1006 168 915 139 968 l 33 1044 b 258 1035 144 1036 200 1035 b 476 1044 317 1035 378 1039 l 482 1003 b 293 810 315 967 293 915 l 293 492 b 621 104 293 243 411 104 b 940 469 826 104 940 235 l 940 713 b 731 1003 940 874 897 967 l 736 1044 b 949 1035 835 1039 904 1035 b 1131 1044 993 1035 1063 1038 l 1136 1006 b 996 713 1025 968 996 874 l 996 442 b 593 -21 996 142 851 -24 m 371 1185 b 446 1260 371 1226 404 1260 b 521 1185 488 1260 521 1226 b 446 1110 521 1143 488 1110 b 371 1185 404 1110 371 1143 m 667 1185 b 742 1260 667 1226 700 1260 b 817 1185 783 1260 817 1226 b 742 1110 817 1143 783 1110 b 667 1185 700 1110 667 1143 "},"Ǘ":{"ha":1164,"x_min":0,"x_max":0,"o":"m 593 -21 b 168 461 321 -18 168 156 l 168 810 b 28 1006 168 915 139 968 l 33 1044 b 258 1035 144 1036 200 1035 b 476 1044 317 1035 378 1039 l 482 1003 b 293 810 315 967 293 915 l 293 492 b 621 104 293 243 411 104 b 940 469 826 104 940 235 l 940 713 b 731 1003 940 874 897 967 l 736 1044 b 949 1035 835 1039 904 1035 b 1131 1044 993 1035 1063 1038 l 1136 1006 b 996 713 1025 968 996 874 l 996 442 b 593 -21 996 142 851 -24 m 371 1185 b 446 1260 371 1226 404 1260 b 521 1185 488 1260 521 1226 b 446 1110 521 1143 488 1110 b 371 1185 404 1110 371 1143 m 613 1593 l 763 1593 l 772 1575 l 529 1375 l 501 1394 m 667 1185 b 742 1260 667 1226 700 1260 b 817 1185 783 1260 817 1226 b 742 1110 817 1143 783 1110 b 667 1185 700 1110 667 1143 "},"Ǚ":{"ha":1164,"x_min":0,"x_max":0,"o":"m 593 -21 b 168 461 321 -18 168 156 l 168 810 b 28 1006 168 915 139 968 l 33 1044 b 258 1035 144 1036 200 1035 b 476 1044 317 1035 378 1039 l 482 1003 b 293 810 315 967 293 915 l 293 492 b 621 104 293 243 411 104 b 940 469 826 104 940 235 l 940 713 b 731 1003 940 874 897 967 l 736 1044 b 949 1035 835 1039 904 1035 b 1131 1044 993 1035 1063 1038 l 1136 1006 b 996 713 1025 968 996 874 l 996 442 b 593 -21 996 142 851 -24 m 376 1607 l 593 1514 l 810 1607 l 825 1585 l 601 1381 l 585 1381 l 361 1585 m 371 1185 b 446 1260 371 1226 404 1260 b 521 1185 488 1260 521 1226 b 446 1110 521 1143 488 1110 b 371 1185 404 1110 371 1143 m 667 1185 b 742 1260 667 1226 700 1260 b 817 1185 783 1260 817 1226 b 742 1110 817 1143 783 1110 b 667 1185 700 1110 667 1143 "},"Ǜ":{"ha":1164,"x_min":0,"x_max":0,"o":"m 593 -21 b 168 461 321 -18 168 156 l 168 810 b 28 1006 168 915 139 968 l 33 1044 b 258 1035 144 1036 200 1035 b 476 1044 317 1035 378 1039 l 482 1003 b 293 810 315 967 293 915 l 293 492 b 621 104 293 243 411 104 b 940 469 826 104 940 235 l 940 713 b 731 1003 940 874 897 967 l 736 1044 b 949 1035 835 1039 904 1035 b 1131 1044 993 1035 1063 1038 l 1136 1006 b 996 713 1025 968 996 874 l 996 442 b 593 -21 996 142 851 -24 m 371 1185 b 446 1260 371 1226 404 1260 b 521 1185 488 1260 521 1226 b 446 1110 521 1143 488 1110 b 371 1185 404 1110 371 1143 m 439 1593 l 589 1593 l 700 1394 l 672 1375 l 429 1575 m 667 1185 b 742 1260 667 1226 700 1260 b 817 1185 783 1260 817 1226 b 742 1110 817 1143 783 1110 b 667 1185 700 1110 667 1143 "},"Ǖ":{"ha":1164,"x_min":0,"x_max":0,"o":"m 593 -21 b 168 461 321 -18 168 156 l 168 810 b 28 1006 168 915 139 968 l 33 1044 b 258 1035 144 1036 200 1035 b 476 1044 317 1035 378 1039 l 482 1003 b 293 810 315 967 293 915 l 293 492 b 621 104 293 243 411 104 b 940 469 826 104 940 235 l 940 713 b 731 1003 940 874 897 967 l 736 1044 b 949 1035 835 1039 904 1035 b 1131 1044 993 1035 1063 1038 l 1136 1006 b 996 713 1025 968 996 874 l 996 442 b 593 -21 996 142 851 -24 m 371 1185 b 446 1260 371 1226 404 1260 b 521 1185 488 1260 521 1226 b 446 1110 521 1143 488 1110 b 371 1185 404 1110 371 1143 m 800 1518 l 800 1449 l 396 1449 l 394 1518 m 667 1185 b 742 1260 667 1226 700 1260 b 817 1185 783 1260 817 1226 b 742 1110 817 1143 783 1110 b 667 1185 700 1110 667 1143 "},"Ù":{"ha":1164,"x_min":0,"x_max":0,"o":"m 593 -21 b 168 461 321 -18 168 156 l 168 810 b 28 1006 168 915 139 968 l 33 1044 b 258 1035 144 1036 200 1035 b 476 1044 317 1035 378 1039 l 482 1003 b 293 810 315 967 293 915 l 293 492 b 621 104 293 243 411 104 b 940 469 826 104 940 235 l 940 713 b 731 1003 940 874 897 967 l 736 1044 b 949 1035 835 1039 904 1035 b 1131 1044 993 1035 1063 1038 l 1136 1006 b 996 713 1025 968 996 874 l 996 442 b 593 -21 996 142 851 -24 m 439 1306 l 589 1306 l 700 1107 l 672 1088 l 429 1288 "},"Ű":{"ha":1164,"x_min":0,"x_max":0,"o":"m 593 -21 b 168 461 321 -18 168 156 l 168 810 b 28 1006 168 915 139 968 l 33 1044 b 258 1035 144 1036 200 1035 b 476 1044 317 1035 378 1039 l 482 1003 b 293 810 315 967 293 915 l 293 492 b 621 104 293 243 411 104 b 940 469 826 104 940 235 l 940 713 b 731 1003 940 874 897 967 l 736 1044 b 949 1035 835 1039 904 1035 b 1131 1044 993 1035 1063 1038 l 1136 1006 b 996 713 1025 968 996 874 l 996 442 b 593 -21 996 142 851 -24 m 606 1343 l 621 1332 l 506 1119 l 474 1125 l 468 1288 m 825 1343 l 840 1332 l 725 1119 l 693 1125 l 688 1288 "},"Ū":{"ha":1164,"x_min":0,"x_max":0,"o":"m 593 -21 b 168 461 321 -18 168 156 l 168 810 b 28 1006 168 915 139 968 l 33 1044 b 258 1035 144 1036 200 1035 b 476 1044 317 1035 378 1039 l 482 1003 b 293 810 315 967 293 915 l 293 492 b 621 104 293 243 411 104 b 940 469 826 104 940 235 l 940 713 b 731 1003 940 874 897 967 l 736 1044 b 949 1035 835 1039 904 1035 b 1131 1044 993 1035 1063 1038 l 1136 1006 b 996 713 1025 968 996 874 l 996 442 b 593 -21 996 142 851 -24 m 800 1231 l 800 1161 l 396 1161 l 394 1231 "},"Ų":{"ha":1164,"x_min":0,"x_max":0,"o":"m 617 -267 b 486 -140 536 -267 485 -206 b 579 -21 488 -83 533 -43 b 168 461 315 -12 168 161 l 168 810 b 28 1006 168 915 139 968 l 33 1044 b 258 1035 144 1036 200 1035 b 476 1044 317 1035 378 1039 l 482 1003 b 293 810 315 967 293 915 l 293 492 b 621 104 293 243 411 104 b 940 469 826 104 940 235 l 940 713 b 731 1003 940 874 897 967 l 736 1044 b 949 1035 835 1039 904 1035 b 1131 1044 993 1035 1063 1038 l 1136 1006 b 996 713 1025 968 996 874 l 996 442 b 665 -17 996 171 878 10 b 572 -108 603 -29 572 -64 b 660 -182 572 -151 606 -182 b 782 -118 694 -182 738 -160 l 806 -142 b 617 -267 782 -182 715 -267 "},"Ů":{"ha":1164,"x_min":0,"x_max":0,"o":"m 593 -21 b 168 461 321 -18 168 156 l 168 810 b 28 1006 168 915 139 968 l 33 1044 b 258 1035 144 1036 200 1035 b 476 1044 317 1035 378 1039 l 482 1003 b 293 810 315 967 293 915 l 293 492 b 621 104 293 243 411 104 b 940 469 826 104 940 235 l 940 713 b 731 1003 940 874 897 967 l 736 1044 b 949 1035 835 1039 904 1035 b 1131 1044 993 1035 1063 1038 l 1136 1006 b 996 713 1025 968 996 874 l 996 442 b 593 -21 996 142 851 -24 m 504 1144 b 504 1332 454 1196 453 1282 b 690 1332 556 1382 640 1383 b 690 1146 742 1279 742 1194 b 504 1144 638 1096 553 1094 m 543 1183 b 651 1185 571 1154 622 1158 b 651 1293 682 1213 681 1263 b 543 1293 624 1322 572 1319 b 543 1183 513 1265 514 1213 "},"V":{"ha":1172,"x_min":0,"x_max":0,"o":"m -35 1043 b 233 1035 82 1036 174 1035 b 508 1043 294 1035 424 1039 l 513 1003 b 351 794 358 985 296 914 l 640 174 l 904 750 b 746 1003 969 893 896 981 l 753 1043 b 978 1035 849 1039 917 1035 b 1208 1043 1038 1035 1115 1036 l 1214 1003 b 957 733 1079 979 1022 876 l 614 -21 l 581 -21 l 201 786 b -42 1003 151 893 99 972 l -35 1043 "},"W":{"ha":1610,"x_min":0,"x_max":0,"o":"m 201 786 b -42 1003 160 899 99 972 l -35 1043 b 233 1035 82 1038 174 1035 b 508 1043 294 1035 424 1038 l 513 1003 b 346 794 358 985 300 921 l 554 225 l 833 1056 l 879 1056 l 1172 232 l 1342 750 b 1183 1003 1392 901 1333 981 l 1190 1043 b 1415 1035 1286 1038 1354 1035 b 1646 1043 1475 1035 1553 1038 l 1651 1003 b 1394 733 1517 979 1444 885 l 1149 -21 l 1115 -21 l 814 824 l 531 -21 l 497 -21 l 201 786 "},"Ẃ":{"ha":1610,"x_min":0,"x_max":0,"o":"m 201 786 b -42 1003 160 899 99 972 l -35 1043 b 233 1035 82 1038 174 1035 b 508 1043 294 1035 424 1038 l 513 1003 b 346 794 358 985 300 921 l 554 225 l 833 1056 l 879 1056 l 1172 232 l 1342 750 b 1183 1003 1392 901 1333 981 l 1190 1043 b 1415 1035 1286 1038 1354 1035 b 1646 1043 1475 1035 1553 1038 l 1651 1003 b 1394 733 1517 979 1444 885 l 1149 -21 l 1115 -21 l 814 824 l 531 -21 l 497 -21 l 201 786 m 865 1306 l 1015 1306 l 1025 1288 l 782 1088 l 754 1107 "},"Ŵ":{"ha":1610,"x_min":0,"x_max":0,"o":"m 201 786 b -42 1003 160 899 99 972 l -35 1043 b 233 1035 82 1038 174 1035 b 508 1043 294 1035 424 1038 l 513 1003 b 346 794 358 985 300 921 l 554 225 l 833 1056 l 879 1056 l 1172 232 l 1342 750 b 1183 1003 1392 901 1333 981 l 1190 1043 b 1415 1035 1286 1038 1354 1035 b 1646 1043 1475 1035 1553 1038 l 1651 1003 b 1394 733 1517 979 1444 885 l 1149 -21 l 1115 -21 l 814 824 l 531 -21 l 497 -21 l 201 786 m 842 1319 l 858 1319 l 1082 1115 l 1067 1093 l 850 1186 l 633 1093 l 618 1115 "},"Ẅ":{"ha":1610,"x_min":0,"x_max":0,"o":"m 201 786 b -42 1003 160 899 99 972 l -35 1043 b 233 1035 82 1038 174 1035 b 508 1043 294 1035 424 1038 l 513 1003 b 346 794 358 985 300 921 l 554 225 l 833 1056 l 879 1056 l 1172 232 l 1342 750 b 1183 1003 1392 901 1333 981 l 1190 1043 b 1415 1035 1286 1038 1354 1035 b 1646 1043 1475 1035 1553 1038 l 1651 1003 b 1394 733 1517 979 1444 885 l 1149 -21 l 1115 -21 l 814 824 l 531 -21 l 497 -21 l 201 786 m 624 1185 b 699 1260 624 1226 657 1260 b 774 1185 740 1260 774 1226 b 699 1110 774 1143 740 1110 b 624 1185 657 1110 624 1143 m 919 1185 b 994 1260 919 1226 953 1260 b 1069 1185 1036 1260 1069 1226 b 994 1110 1069 1143 1036 1110 b 919 1185 953 1110 919 1143 "},"Ẁ":{"ha":1610,"x_min":0,"x_max":0,"o":"m 201 786 b -42 1003 160 899 99 972 l -35 1043 b 233 1035 82 1038 174 1035 b 508 1043 294 1035 424 1038 l 513 1003 b 346 794 358 985 300 921 l 554 225 l 833 1056 l 879 1056 l 1172 232 l 1342 750 b 1183 1003 1392 901 1333 981 l 1190 1043 b 1415 1035 1286 1038 1354 1035 b 1646 1043 1475 1035 1553 1038 l 1651 1003 b 1394 733 1517 979 1444 885 l 1149 -21 l 1115 -21 l 814 824 l 531 -21 l 497 -21 l 201 786 m 692 1306 l 842 1306 l 953 1107 l 925 1088 l 682 1288 "},"X":{"ha":1168,"x_min":0,"x_max":0,"o":"m 0 31 b 317 249 135 57 232 136 l 515 513 l 296 828 b 13 1004 232 919 150 983 l 19 1043 b 240 1035 108 1038 186 1035 b 522 1043 294 1035 422 1038 l 529 1004 b 442 838 390 985 399 899 l 596 618 l 726 790 b 674 1004 807 897 808 985 l 681 1043 b 882 1035 767 1038 828 1035 b 1113 1043 936 1035 1031 1038 l 1119 1004 b 788 776 985 983 876 894 l 631 568 l 879 213 b 1168 31 949 114 1019 64 l 1161 -10 b 910 3 1058 -1 964 3 b 628 -10 856 3 728 -1 l 621 31 b 718 222 774 60 793 114 l 550 463 l 385 243 b 460 31 299 129 325 54 l 453 -10 b 238 3 367 -1 292 3 b 7 -10 183 3 89 -1 l 0 31 "},"Y":{"ha":1076,"x_min":0,"x_max":0,"o":"m 6 1043 b 214 1035 96 1039 168 1035 b 501 1043 261 1035 372 1038 l 506 1003 b 393 813 346 986 333 913 l 592 476 l 800 821 b 696 1003 860 919 813 986 l 701 1043 b 876 1035 775 1038 829 1035 b 1069 1043 922 1035 983 1038 l 1076 1003 b 850 793 988 963 913 894 l 622 421 l 622 225 b 790 29 622 119 651 67 l 785 -10 b 561 0 689 -3 606 0 b 335 -10 517 0 447 -3 l 329 29 b 497 225 468 65 497 119 l 497 396 l 246 811 b 0 1003 193 899 110 958 l 6 1043 "},"Ý":{"ha":1076,"x_min":0,"x_max":0,"o":"m 6 1043 b 214 1035 96 1039 168 1035 b 501 1043 261 1035 372 1038 l 506 1003 b 393 813 346 986 333 913 l 592 476 l 800 821 b 696 1003 860 919 813 986 l 701 1043 b 876 1035 775 1038 829 1035 b 1069 1043 922 1035 983 1038 l 1076 1003 b 850 793 988 963 913 894 l 622 421 l 622 225 b 790 29 622 119 651 67 l 785 -10 b 561 0 689 -3 606 0 b 335 -10 517 0 447 -3 l 329 29 b 497 225 468 65 497 119 l 497 396 l 246 811 b 0 1003 193 899 110 958 l 6 1043 m 615 1306 l 765 1306 l 775 1288 l 532 1088 l 504 1107 "},"Ŷ":{"ha":1076,"x_min":0,"x_max":0,"o":"m 6 1043 b 214 1035 96 1039 168 1035 b 501 1043 261 1035 372 1038 l 506 1003 b 393 813 346 986 333 913 l 592 476 l 800 821 b 696 1003 860 919 813 986 l 701 1043 b 876 1035 775 1038 829 1035 b 1069 1043 922 1035 983 1038 l 1076 1003 b 850 793 988 963 913 894 l 622 421 l 622 225 b 790 29 622 119 651 67 l 785 -10 b 561 0 689 -3 606 0 b 335 -10 517 0 447 -3 l 329 29 b 497 225 468 65 497 119 l 497 396 l 246 811 b 0 1003 193 899 110 958 l 6 1043 m 592 1319 l 608 1319 l 832 1115 l 817 1093 l 600 1186 l 383 1093 l 368 1115 "},"Ÿ":{"ha":1076,"x_min":0,"x_max":0,"o":"m 6 1043 b 214 1035 96 1039 168 1035 b 501 1043 261 1035 372 1038 l 506 1003 b 393 813 346 986 333 913 l 592 476 l 800 821 b 696 1003 860 919 813 986 l 701 1043 b 876 1035 775 1038 829 1035 b 1069 1043 922 1035 983 1038 l 1076 1003 b 850 793 988 963 913 894 l 622 421 l 622 225 b 790 29 622 119 651 67 l 785 -10 b 561 0 689 -3 606 0 b 335 -10 517 0 447 -3 l 329 29 b 497 225 468 65 497 119 l 497 396 l 246 811 b 0 1003 193 899 110 958 l 6 1043 m 374 1185 b 449 1260 374 1226 407 1260 b 524 1185 490 1260 524 1226 b 449 1110 524 1143 490 1110 b 374 1185 407 1110 374 1143 m 669 1185 b 744 1260 669 1226 703 1260 b 819 1185 786 1260 819 1226 b 744 1110 819 1143 786 1110 b 669 1185 703 1110 669 1143 "},"Ỳ":{"ha":1076,"x_min":0,"x_max":0,"o":"m 6 1043 b 214 1035 96 1039 168 1035 b 501 1043 261 1035 372 1038 l 506 1003 b 393 813 346 986 333 913 l 592 476 l 800 821 b 696 1003 860 919 813 986 l 701 1043 b 876 1035 775 1038 829 1035 b 1069 1043 922 1035 983 1038 l 1076 1003 b 850 793 988 963 913 894 l 622 421 l 622 225 b 790 29 622 119 651 67 l 785 -10 b 561 0 689 -3 606 0 b 335 -10 517 0 447 -3 l 329 29 b 497 225 468 65 497 119 l 497 396 l 246 811 b 0 1003 193 899 110 958 l 6 1043 m 442 1306 l 592 1306 l 703 1107 l 675 1088 l 432 1288 "},"Z":{"ha":1001,"x_min":0,"x_max":0,"o":"m 42 31 l 736 981 l 499 976 b 150 635 317 972 200 906 l 114 639 b 82 1044 126 789 118 939 l 111 1061 b 564 1035 201 1035 318 1035 l 904 1035 l 917 1003 l 225 54 l 496 65 b 894 401 721 74 881 113 l 931 400 b 974 24 933 236 950 113 l 951 0 l 57 0 "},"Ź":{"ha":1001,"x_min":0,"x_max":0,"o":"m 42 31 l 736 981 l 499 976 b 150 635 317 972 200 906 l 114 639 b 82 1044 126 789 118 939 l 111 1061 b 564 1035 201 1035 318 1035 l 904 1035 l 917 1003 l 225 54 l 496 65 b 894 401 721 74 881 113 l 931 400 b 974 24 933 236 950 113 l 951 0 l 57 0 m 549 1306 l 699 1306 l 708 1288 l 465 1088 l 438 1107 "},"Ž":{"ha":1001,"x_min":0,"x_max":0,"o":"m 42 31 l 736 981 l 499 976 b 150 635 317 972 200 906 l 114 639 b 82 1044 126 789 118 939 l 111 1061 b 564 1035 201 1035 318 1035 l 904 1035 l 917 1003 l 225 54 l 496 65 b 894 401 721 74 881 113 l 931 400 b 974 24 933 236 950 113 l 951 0 l 57 0 m 313 1319 l 529 1226 l 746 1319 l 761 1297 l 538 1093 l 521 1093 l 297 1297 "},"Ż":{"ha":1001,"x_min":0,"x_max":0,"o":"m 42 31 l 736 981 l 499 976 b 150 635 317 972 200 906 l 114 639 b 82 1044 126 789 118 939 l 111 1061 b 564 1035 201 1035 318 1035 l 904 1035 l 917 1003 l 225 54 l 496 65 b 894 401 721 74 881 113 l 931 400 b 974 24 933 236 950 113 l 951 0 l 57 0 m 460 1200 b 533 1274 460 1242 493 1274 b 608 1200 575 1274 608 1242 b 533 1125 608 1158 575 1125 b 460 1200 493 1125 460 1158 "},"a":{"ha":871,"x_min":0,"x_max":0,"o":"m 83 692 b 342 785 157 747 235 785 b 585 689 446 785 519 758 b 747 749 643 715 701 736 l 767 717 b 829 39 572 576 664 108 l 819 0 l 608 0 l 571 256 b 97 10 450 -18 183 -51 b 468 632 6 75 38 371 b 92 664 385 722 246 710 l 83 692 m 226 132 b 475 211 279 83 397 110 b 521 539 528 281 564 382 b 507 574 517 551 511 563 b 303 419 446 539 374 490 b 226 132 200 317 171 185 "},"á":{"ha":871,"x_min":0,"x_max":0,"o":"m 83 692 b 342 785 157 747 235 785 b 585 689 446 785 519 758 b 747 749 643 715 701 736 l 767 717 b 829 39 572 576 664 108 l 819 0 l 608 0 l 571 256 b 97 10 450 -18 183 -51 b 468 632 6 75 38 371 b 92 664 385 722 246 710 l 83 692 m 226 132 b 475 211 279 83 397 110 b 521 539 528 281 564 382 b 507 574 517 551 511 563 b 303 419 446 539 374 490 b 226 132 200 317 171 185 m 492 1160 l 642 1160 l 651 1142 l 408 858 l 381 878 "},"ă":{"ha":871,"x_min":0,"x_max":0,"o":"m 83 692 b 342 785 157 747 235 785 b 585 689 446 785 519 758 b 747 749 643 715 701 736 l 767 717 b 829 39 572 576 664 108 l 819 0 l 608 0 l 571 256 b 97 10 450 -18 183 -51 b 468 632 6 75 38 371 b 92 664 385 722 246 710 l 83 692 m 226 132 b 475 211 279 83 397 110 b 521 539 528 281 564 382 b 507 574 517 551 511 563 b 303 419 446 539 374 490 b 226 132 200 317 171 185 m 279 1150 b 443 1031 303 1072 372 1031 b 608 1150 510 1031 582 1072 l 643 1150 b 444 918 632 1015 564 918 b 244 1150 324 918 256 1015 "},"ǎ":{"ha":871,"x_min":0,"x_max":0,"o":"m 83 692 b 342 785 157 747 235 785 b 585 689 446 785 519 758 b 747 749 643 715 701 736 l 767 717 b 829 39 572 576 664 108 l 819 0 l 608 0 l 571 256 b 97 10 450 -18 183 -51 b 468 632 6 75 38 371 b 92 664 385 722 246 710 l 83 692 m 225 1167 l 442 1017 l 658 1167 l 686 1147 l 450 871 l 433 871 l 197 1147 m 226 132 b 475 211 279 83 397 110 b 521 539 528 281 564 382 b 507 574 517 551 511 563 b 303 419 446 539 374 490 b 226 132 200 317 171 185 "},"â":{"ha":871,"x_min":0,"x_max":0,"o":"m 83 692 b 342 785 157 747 235 785 b 585 689 446 785 519 758 b 747 749 643 715 701 736 l 767 717 b 829 39 572 576 664 108 l 819 0 l 608 0 l 571 256 b 97 10 450 -18 183 -51 b 468 632 6 75 38 371 b 92 664 385 722 246 710 l 83 692 m 439 1154 l 456 1154 l 692 878 l 664 858 l 447 1008 l 231 858 l 203 878 m 226 132 b 475 211 279 83 397 110 b 521 539 528 281 564 382 b 507 574 517 551 511 563 b 303 419 446 539 374 490 b 226 132 200 317 171 185 "},"ä":{"ha":871,"x_min":0,"x_max":0,"o":"m 83 692 b 342 785 157 747 235 785 b 585 689 446 785 519 758 b 747 749 643 715 701 736 l 767 717 b 829 39 572 576 664 108 l 819 0 l 608 0 l 571 256 b 97 10 450 -18 183 -51 b 468 632 6 75 38 371 b 92 664 385 722 246 710 l 83 692 m 226 132 b 475 211 279 83 397 110 b 521 539 528 281 564 382 b 507 574 517 551 511 563 b 303 419 446 539 374 490 b 226 132 200 317 171 185 m 235 996 b 317 1079 235 1042 271 1079 b 399 996 363 1079 399 1042 b 317 914 399 951 363 914 b 235 996 271 914 235 951 m 489 996 b 571 1079 489 1042 525 1079 b 653 996 617 1079 653 1042 b 571 914 653 951 617 914 b 489 996 525 914 489 951 "},"à":{"ha":871,"x_min":0,"x_max":0,"o":"m 83 692 b 342 785 157 747 235 785 b 585 689 446 785 519 758 b 747 749 643 715 701 736 l 767 717 b 829 39 572 576 664 108 l 819 0 l 608 0 l 571 256 b 97 10 450 -18 183 -51 b 468 632 6 75 38 371 b 92 664 385 722 246 710 l 83 692 m 228 1160 l 378 1160 l 489 878 l 461 858 l 218 1142 m 226 132 b 475 211 279 83 397 110 b 521 539 528 281 564 382 b 507 574 517 551 511 563 b 303 419 446 539 374 490 b 226 132 200 317 171 185 "},"ā":{"ha":871,"x_min":0,"x_max":0,"o":"m 83 692 b 342 785 157 747 235 785 b 585 689 446 785 519 758 b 747 749 643 715 701 736 l 767 717 b 829 39 572 576 664 108 l 819 0 l 608 0 l 571 256 b 97 10 450 -18 183 -51 b 468 632 6 75 38 371 b 92 664 385 722 246 710 l 83 692 m 226 132 b 475 211 279 83 397 110 b 521 539 528 281 564 382 b 507 574 517 551 511 563 b 303 419 446 539 374 490 b 226 132 200 317 171 185 m 635 1026 l 635 957 l 231 957 l 229 1026 "},"ą":{"ha":871,"x_min":0,"x_max":0,"o":"m 83 692 b 342 785 157 747 235 785 b 585 689 446 785 519 758 b 747 749 643 715 701 736 l 767 717 b 829 39 572 576 664 108 l 819 0 l 706 0 b 565 -108 599 0 565 -61 b 653 -182 565 -151 599 -182 b 775 -118 688 -182 731 -160 l 799 -142 b 610 -267 775 -182 708 -267 b 479 -140 529 -267 478 -206 b 606 15 481 -69 553 -6 l 571 256 b 97 10 450 -18 183 -51 b 468 632 6 75 38 371 b 92 664 385 722 246 710 l 83 692 m 226 132 b 475 211 279 83 397 110 b 521 539 528 281 564 382 b 507 574 517 551 511 563 b 303 419 446 539 374 490 b 226 132 200 317 171 185 "},"å":{"ha":871,"x_min":0,"x_max":0,"o":"m 83 692 b 342 785 157 747 235 785 b 585 689 446 785 519 758 b 747 749 643 715 701 736 l 767 717 b 829 39 572 576 664 108 l 819 0 l 608 0 l 571 256 b 97 10 450 -18 183 -51 b 468 632 6 75 38 371 b 92 664 385 722 246 710 l 83 692 m 226 132 b 475 211 279 83 397 110 b 521 539 528 281 564 382 b 507 574 517 551 511 563 b 303 419 446 539 374 490 b 226 132 200 317 171 185 m 332 911 b 332 1140 271 974 269 1079 b 560 1140 394 1201 499 1203 b 560 913 622 1076 622 972 b 332 911 496 851 392 850 m 371 950 b 521 951 408 910 481 914 b 521 1101 563 992 561 1060 b 371 1101 483 1142 411 1139 b 371 950 329 1063 331 992 "},"ã":{"ha":871,"x_min":0,"x_max":0,"o":"m 83 692 b 342 785 157 747 235 785 b 585 689 446 785 519 758 b 747 749 643 715 701 736 l 767 717 b 829 39 572 576 664 108 l 819 0 l 608 0 l 571 256 b 97 10 450 -18 183 -51 b 468 632 6 75 38 371 b 92 664 385 722 246 710 l 83 692 m 242 943 b 310 1011 249 974 258 1011 b 522 919 371 1011 429 919 b 638 1078 601 919 653 1001 l 614 1078 b 544 1010 610 1047 597 1010 b 332 1097 492 1010 432 1097 b 219 942 253 1097 204 1019 m 226 132 b 475 211 279 83 397 110 b 521 539 528 281 564 382 b 507 574 517 551 511 563 b 303 419 446 539 374 490 b 226 132 200 317 171 185 "},"æ":{"ha":1292,"x_min":0,"x_max":0,"o":"m 83 692 b 342 785 157 747 235 785 b 621 644 465 785 547 746 b 900 785 685 731 782 785 b 1231 431 1076 785 1244 686 l 669 432 b 739 226 672 360 694 286 b 1246 249 858 67 1125 61 l 1271 233 b 911 -21 1228 88 1106 -21 b 564 240 754 -21 617 83 b 97 10 439 -19 181 -50 b 468 632 6 75 38 371 b 92 664 385 722 246 710 l 83 692 m 226 132 b 475 211 279 83 397 110 b 521 539 528 281 564 382 b 507 574 517 551 511 563 b 303 419 446 539 374 490 b 226 132 200 317 171 185 m 1075 486 b 775 701 1075 683 913 793 b 671 488 717 663 679 579 "},"b":{"ha":961,"x_min":0,"x_max":0,"o":"m 567 -21 b 286 121 428 -21 339 33 l 199 0 l 151 0 b 176 392 165 107 176 217 l 176 768 b 42 963 176 874 144 963 l 42 1000 b 333 1156 185 1024 263 1074 l 358 1135 b 301 810 315 1028 301 915 l 301 667 b 557 785 353 740 435 785 b 926 381 764 785 926 607 b 567 -21 926 156 774 -21 m 308 378 b 597 38 335 172 454 32 b 761 393 719 43 788 190 b 464 704 732 597 610 725 b 308 378 350 688 286 553 "},"c":{"ha":772,"x_min":0,"x_max":0,"o":"m 394 -21 b 35 383 179 -21 35 150 b 394 785 35 606 179 785 b 700 750 535 785 592 708 l 718 736 b 681 447 697 649 683 553 l 650 444 b 269 701 569 711 393 771 b 240 226 146 632 125 381 b 713 249 360 67 592 60 l 738 233 b 394 -21 694 88 538 -21 "},"ć":{"ha":772,"x_min":0,"x_max":0,"o":"m 394 -21 b 35 383 179 -21 35 150 b 394 785 35 606 179 785 b 700 750 535 785 592 708 l 718 736 b 681 447 697 649 683 553 l 650 444 b 269 701 569 711 393 771 b 240 226 146 632 125 381 b 713 249 360 67 592 60 l 738 233 b 394 -21 694 88 538 -21 m 432 1139 l 582 1139 l 592 1121 l 349 838 l 321 857 "},"č":{"ha":772,"x_min":0,"x_max":0,"o":"m 394 -21 b 35 383 179 -21 35 150 b 394 785 35 606 179 785 b 700 750 535 785 592 708 l 718 736 b 681 447 697 649 683 553 l 650 444 b 269 701 569 711 393 771 b 240 226 146 632 125 381 b 713 249 360 67 592 60 l 738 233 b 394 -21 694 88 538 -21 m 165 1146 l 382 996 l 599 1146 l 626 1126 l 390 850 l 374 850 l 138 1126 "},"ç":{"ha":772,"x_min":0,"x_max":0,"o":"m 194 -185 b 458 -186 325 -260 458 -246 b 286 -121 458 -126 340 -121 l 376 -21 b 35 383 171 -11 35 157 b 394 785 35 606 179 785 b 700 750 535 785 592 708 l 718 736 b 681 447 697 649 683 553 l 650 444 b 269 701 569 711 393 771 b 240 226 146 632 125 381 b 713 249 360 67 592 60 l 738 233 b 407 -21 696 92 547 -14 l 400 -74 b 582 -169 511 -74 582 -111 b 410 -292 582 -235 508 -292 b 176 -203 306 -292 226 -250 l 194 -185 "},"ċ":{"ha":772,"x_min":0,"x_max":0,"o":"m 394 -21 b 35 383 179 -21 35 150 b 394 785 35 606 179 785 b 700 750 535 785 592 708 l 718 736 b 681 447 697 649 683 553 l 650 444 b 269 701 569 711 393 771 b 240 226 146 632 125 381 b 713 249 360 67 592 60 l 738 233 b 394 -21 694 88 538 -21 m 288 961 b 361 1035 288 1003 321 1035 b 436 961 403 1035 436 1003 b 361 886 436 919 403 886 b 288 961 321 886 288 919 "},"d":{"ha":964,"x_min":0,"x_max":0,"o":"m 404 -21 b 35 383 197 -21 35 157 b 394 785 35 608 188 785 b 657 669 518 785 603 742 b 522 963 654 922 619 963 l 522 1000 b 814 1156 665 1024 743 1074 l 842 1136 b 782 633 786 999 782 919 l 782 392 b 922 36 782 175 811 88 l 917 -6 b 678 -3 849 1 758 0 l 667 108 b 404 -21 617 29 533 -21 m 200 404 b 489 63 218 214 333 57 b 653 418 628 68 678 225 b 356 729 622 632 503 750 b 200 404 251 714 182 594 "},"ð":{"ha":889,"x_min":0,"x_max":0,"o":"m 432 -21 b 35 383 213 -21 35 150 b 432 785 35 606 213 785 b 676 682 517 785 603 756 b 583 903 651 771 619 844 l 319 832 l 318 901 l 542 961 b 375 1099 492 1024 435 1067 l 382 1132 b 621 983 457 1104 544 1057 l 847 1044 l 847 975 l 674 928 b 829 467 763 819 829 669 b 432 -21 829 146 650 -21 m 207 299 b 553 57 279 110 435 15 b 656 468 675 99 728 278 b 308 706 585 654 428 746 b 207 299 188 663 136 486 "},"ď":{"ha":964,"x_min":0,"x_max":0,"o":"m 404 -21 b 35 383 197 -21 35 157 b 394 785 35 608 188 785 b 657 669 518 785 603 742 b 522 963 654 922 619 963 l 522 1000 b 814 1156 665 1024 743 1074 l 842 1136 b 782 633 786 999 782 919 l 782 392 b 922 36 782 175 811 88 l 917 -6 b 678 -3 849 1 758 0 l 667 108 b 404 -21 617 29 533 -21 m 200 404 b 489 63 218 214 333 57 b 653 418 628 68 678 225 b 356 729 622 632 503 750 b 200 404 251 714 182 594 m 874 885 b 881 1204 972 957 1010 1092 l 1038 1319 b 899 849 1176 1136 1064 933 l 874 885 "},"đ":{"ha":992,"x_min":0,"x_max":0,"o":"m 404 -21 b 35 383 197 -21 35 157 b 394 785 35 608 188 785 b 657 668 519 785 604 742 l 657 697 b 653 835 657 751 656 797 l 393 833 l 392 903 l 646 904 b 522 1032 629 1011 593 1032 l 522 1069 b 814 1156 665 1069 743 1074 l 842 1136 b 788 906 810 1057 794 997 l 921 907 l 921 838 l 785 836 b 782 633 782 782 782 717 l 782 392 b 922 36 782 175 811 88 l 917 -6 b 678 -3 849 1 758 0 l 667 108 b 404 -21 617 29 533 -21 m 200 404 b 489 63 218 214 333 57 b 653 418 628 68 678 225 b 356 729 622 632 503 750 b 200 404 251 714 182 594 "},"e":{"ha":786,"x_min":0,"x_max":0,"o":"m 765 233 b 406 -21 722 88 600 -21 b 35 383 204 -21 35 150 b 394 785 35 606 179 785 b 725 431 571 785 739 686 l 164 432 b 233 226 167 360 189 286 b 740 249 353 67 619 61 l 765 233 m 569 486 b 269 701 569 683 407 793 b 165 488 211 663 174 579 "},"é":{"ha":786,"x_min":0,"x_max":0,"o":"m 765 233 b 406 -21 722 88 600 -21 b 35 383 204 -21 35 150 b 394 785 35 606 179 785 b 725 431 571 785 739 686 l 164 432 b 233 226 167 360 189 286 b 740 249 353 67 619 61 l 765 233 m 569 486 b 269 701 569 683 407 793 b 165 488 211 663 174 579 m 425 1139 l 575 1139 l 585 1121 l 342 838 l 314 857 "},"ě":{"ha":786,"x_min":0,"x_max":0,"o":"m 765 233 b 406 -21 722 88 600 -21 b 35 383 204 -21 35 150 b 394 785 35 606 179 785 b 725 431 571 785 739 686 l 164 432 b 233 226 167 360 189 286 b 740 249 353 67 619 61 l 765 233 m 158 1146 l 375 996 l 592 1146 l 619 1126 l 383 850 l 367 850 l 131 1126 m 569 486 b 269 701 569 683 407 793 b 165 488 211 663 174 579 "},"ê":{"ha":786,"x_min":0,"x_max":0,"o":"m 765 233 b 406 -21 722 88 600 -21 b 35 383 204 -21 35 150 b 394 785 35 606 179 785 b 725 431 571 785 739 686 l 164 432 b 233 226 167 360 189 286 b 740 249 353 67 619 61 l 765 233 m 372 1133 l 389 1133 l 625 857 l 597 838 l 381 988 l 164 838 l 136 857 m 569 486 b 269 701 569 683 407 793 b 165 488 211 663 174 579 "},"ë":{"ha":786,"x_min":0,"x_max":0,"o":"m 765 233 b 406 -21 722 88 600 -21 b 35 383 204 -21 35 150 b 394 785 35 606 179 785 b 725 431 571 785 739 686 l 164 432 b 233 226 167 360 189 286 b 740 249 353 67 619 61 l 765 233 m 569 486 b 269 701 569 683 407 793 b 165 488 211 663 174 579 m 168 975 b 250 1058 168 1021 204 1058 b 332 975 296 1058 332 1021 b 250 893 332 931 296 893 b 168 975 204 893 168 931 m 422 975 b 504 1058 422 1021 458 1058 b 586 975 550 1058 586 1021 b 504 893 586 931 550 893 b 422 975 458 893 422 931 "},"ė":{"ha":786,"x_min":0,"x_max":0,"o":"m 765 233 b 406 -21 722 88 600 -21 b 35 383 204 -21 35 150 b 394 785 35 606 179 785 b 725 431 571 785 739 686 l 164 432 b 233 226 167 360 189 286 b 740 249 353 67 619 61 l 765 233 m 569 486 b 269 701 569 683 407 793 b 165 488 211 663 174 579 m 281 961 b 354 1035 281 1003 314 1035 b 429 961 396 1035 429 1003 b 354 886 429 919 396 886 b 281 961 314 886 281 919 "},"è":{"ha":786,"x_min":0,"x_max":0,"o":"m 765 233 b 406 -21 722 88 600 -21 b 35 383 204 -21 35 150 b 394 785 35 606 179 785 b 725 431 571 785 739 686 l 164 432 b 233 226 167 360 189 286 b 740 249 353 67 619 61 l 765 233 m 161 1139 l 311 1139 l 422 857 l 394 838 l 151 1121 m 569 486 b 269 701 569 683 407 793 b 165 488 211 663 174 579 "},"ē":{"ha":786,"x_min":0,"x_max":0,"o":"m 765 233 b 406 -21 722 88 600 -21 b 35 383 204 -21 35 150 b 394 785 35 606 179 785 b 725 431 571 785 739 686 l 164 432 b 233 226 167 360 189 286 b 740 249 353 67 619 61 l 765 233 m 568 1006 l 568 936 l 164 936 l 163 1006 m 569 486 b 269 701 569 683 407 793 b 165 488 211 663 174 579 "},"ę":{"ha":786,"x_min":0,"x_max":0,"o":"m 547 -267 b 417 -140 467 -267 415 -206 b 492 -12 418 -94 451 -50 b 406 -21 465 -18 436 -21 b 35 383 204 -21 35 150 b 394 785 35 606 179 785 b 725 431 571 785 739 686 l 164 432 b 233 226 167 360 189 286 b 740 249 353 67 619 61 l 765 233 b 550 3 735 128 661 42 b 503 -108 517 -36 503 -75 b 590 -182 503 -151 536 -182 b 713 -118 625 -182 668 -160 l 736 -142 b 547 -267 713 -182 646 -267 m 569 486 b 269 701 569 683 407 793 b 165 488 211 663 174 579 "},"f":{"ha":667,"x_min":0,"x_max":0,"o":"m 56 33 b 200 225 153 65 200 119 l 200 431 b 63 646 200 604 160 646 l 63 683 b 203 840 179 693 190 747 b 722 1088 231 1039 422 1200 b 700 851 700 1008 689 949 l 672 843 b 421 1051 608 1019 517 1094 b 325 801 363 1026 325 929 l 325 708 l 649 722 l 661 703 l 604 625 l 325 639 l 325 225 b 519 29 325 119 339 69 l 514 -10 b 254 0 404 -3 299 0 b 61 -6 210 0 132 -3 l 56 33 "},"g":{"ha":922,"x_min":0,"x_max":0,"o":"m 438 165 b 222 226 357 165 282 188 b 186 71 154 174 147 110 b 503 67 228 29 358 44 b 842 38 715 99 796 114 b 628 -283 900 -60 800 -206 b 106 -329 436 -369 200 -374 b 149 -47 -22 -269 17 -126 b 119 -25 139 -42 129 -33 b 197 244 33 57 76 172 b 82 476 126 300 82 381 b 438 785 82 647 242 785 l 440 785 b 896 804 622 785 739 779 l 908 785 l 851 696 l 644 729 b 794 476 735 675 794 585 b 438 165 794 304 633 165 m 175 -61 b 193 -228 133 -126 154 -196 b 604 -233 282 -303 467 -293 b 763 -64 726 -181 775 -108 b 556 -47 750 -21 689 -22 b 175 -61 418 -74 274 -101 m 250 426 b 519 225 297 286 417 204 b 626 525 622 244 671 383 b 360 725 579 664 461 744 b 250 426 251 706 203 567 "},"ğ":{"ha":922,"x_min":0,"x_max":0,"o":"m 438 165 b 222 226 357 165 282 188 b 186 71 154 174 147 110 b 503 67 228 29 358 44 b 842 38 715 99 796 114 b 628 -283 900 -60 800 -206 b 106 -329 436 -369 200 -374 b 149 -47 -22 -269 17 -126 b 119 -25 139 -42 129 -33 b 197 244 33 57 76 172 b 82 476 126 300 82 381 b 438 785 82 647 242 785 l 440 785 b 896 804 622 785 739 779 l 908 785 l 851 696 l 644 729 b 794 476 735 675 794 585 b 438 165 794 304 633 165 m 175 -61 b 193 -228 133 -126 154 -196 b 604 -233 282 -303 467 -293 b 763 -64 726 -181 775 -108 b 556 -47 750 -21 689 -22 b 175 -61 418 -74 274 -101 m 276 1150 b 440 1031 300 1072 369 1031 b 606 1150 507 1031 579 1072 l 640 1150 b 442 918 629 1015 561 918 b 242 1150 321 918 253 1015 m 250 426 b 519 225 297 286 417 204 b 626 525 622 244 671 383 b 360 725 579 664 461 744 b 250 426 251 706 203 567 "},"ģ":{"ha":922,"x_min":0,"x_max":0,"o":"m 438 165 b 222 226 357 165 282 188 b 186 71 154 174 147 110 b 503 67 228 29 358 44 b 842 38 715 99 796 114 b 628 -283 900 -60 800 -206 b 106 -329 436 -369 200 -374 b 149 -47 -22 -269 17 -126 b 119 -25 139 -42 129 -33 b 197 244 33 57 76 172 b 82 476 126 300 82 381 b 438 785 82 647 242 785 l 440 785 b 896 804 622 785 739 779 l 908 785 l 851 696 l 644 729 b 794 476 735 675 794 585 b 438 165 794 304 633 165 m 175 -61 b 193 -228 133 -126 154 -196 b 604 -233 282 -303 467 -293 b 763 -64 726 -181 775 -108 b 556 -47 750 -21 689 -22 b 175 -61 418 -74 274 -101 m 250 426 b 519 225 297 286 417 204 b 626 525 622 244 671 383 b 360 725 579 664 461 744 b 250 426 251 706 203 567 m 421 939 b 538 1250 304 1060 399 1194 l 558 1226 b 553 1015 476 1179 444 1089 l 421 939 "},"ġ":{"ha":922,"x_min":0,"x_max":0,"o":"m 438 165 b 222 226 357 165 282 188 b 186 71 154 174 147 110 b 503 67 228 29 358 44 b 842 38 715 99 796 114 b 628 -283 900 -60 800 -206 b 106 -329 436 -369 200 -374 b 149 -47 -22 -269 17 -126 b 119 -25 139 -42 129 -33 b 197 244 33 57 76 172 b 82 476 126 300 82 381 b 438 785 82 647 242 785 l 440 785 b 896 804 622 785 739 779 l 908 785 l 851 696 l 644 729 b 794 476 735 675 794 585 b 438 165 794 304 633 165 m 175 -61 b 193 -228 133 -126 154 -196 b 604 -233 282 -303 467 -293 b 763 -64 726 -181 775 -108 b 556 -47 750 -21 689 -22 b 175 -61 418 -74 274 -101 m 250 426 b 519 225 297 286 417 204 b 626 525 622 244 671 383 b 360 725 579 664 461 744 b 250 426 251 706 203 567 m 344 982 b 418 1056 344 1024 378 1056 b 493 982 460 1056 493 1024 b 418 907 493 940 460 907 b 344 982 378 907 344 940 "},"h":{"ha":1058,"x_min":0,"x_max":0,"o":"m 625 29 b 751 225 722 65 751 119 l 751 454 b 581 678 751 604 694 678 b 335 510 463 678 396 599 l 335 225 b 475 29 335 119 364 67 l 469 -10 b 274 0 401 -3 318 0 b 75 -10 229 0 160 -3 l 69 29 b 210 225 181 65 210 119 l 210 768 b 75 963 210 874 178 963 l 75 996 b 367 1156 218 1022 296 1074 l 392 1135 b 335 810 349 1028 335 915 l 335 571 b 644 785 413 708 539 785 b 876 460 800 785 876 676 l 876 225 b 1017 29 876 119 906 67 l 1011 -10 b 815 0 943 -3 860 0 b 631 -10 771 0 701 -3 l 625 29 "},"ħ":{"ha":1058,"x_min":0,"x_max":0,"o":"m 625 29 b 751 225 722 65 751 119 l 751 454 b 581 678 751 604 694 678 b 335 510 463 678 396 599 l 335 225 b 475 29 335 119 364 67 l 469 -10 b 274 0 401 -3 318 0 b 75 -10 229 0 160 -3 l 69 29 b 210 225 181 65 210 119 l 210 671 l 44 565 l 44 658 l 210 764 l 210 768 b 75 963 210 874 178 963 l 75 996 b 367 1156 218 1022 296 1074 l 392 1135 b 335 843 353 1039 338 939 l 507 953 l 504 858 l 335 750 l 335 571 b 644 785 413 708 539 785 b 876 460 800 785 876 676 l 876 225 b 1017 29 876 119 906 67 l 1011 -10 b 815 0 943 -3 860 0 b 631 -10 771 0 701 -3 l 625 29 "},"i":{"ha":517,"x_min":0,"x_max":0,"o":"m 253 908 b 156 1006 199 908 156 951 b 253 1103 156 1060 199 1103 b 351 1006 307 1103 351 1060 b 253 908 351 951 307 908 m 69 29 b 210 225 181 65 210 119 l 210 407 b 75 593 210 503 179 585 l 75 626 b 311 779 183 660 258 711 l 350 769 b 335 458 329 633 335 550 l 335 225 b 475 29 335 119 364 67 l 469 -10 b 274 0 401 -3 318 0 b 75 -10 229 0 160 -3 l 69 29 "},"ı":{"ha":544,"x_min":0,"x_max":0,"o":"m 69 29 b 210 225 181 65 210 119 l 210 407 b 75 593 210 503 179 585 l 75 626 b 311 779 183 660 258 711 l 350 769 b 335 458 329 633 335 550 l 335 225 b 475 29 335 119 364 67 l 469 -10 b 274 0 401 -3 318 0 b 75 -10 229 0 160 -3 l 69 29 "},"í":{"ha":544,"x_min":0,"x_max":0,"o":"m 69 29 b 210 225 181 65 210 119 l 210 407 b 75 593 210 503 179 585 l 75 626 b 311 779 183 660 258 711 l 350 769 b 335 458 329 633 335 550 l 335 225 b 475 29 335 119 364 67 l 469 -10 b 274 0 401 -3 318 0 b 75 -10 229 0 160 -3 l 69 29 m 328 1139 l 478 1139 l 488 1121 l 244 838 l 217 857 "},"ǐ":{"ha":544,"x_min":0,"x_max":0,"o":"m 69 29 b 210 225 181 65 210 119 l 210 407 b 75 593 210 503 179 585 l 75 626 b 311 779 183 660 258 711 l 350 769 b 335 458 329 633 335 550 l 335 225 b 475 29 335 119 364 67 l 469 -10 b 274 0 401 -3 318 0 b 75 -10 229 0 160 -3 l 69 29 m 61 1146 l 278 996 l 494 1146 l 522 1126 l 286 850 l 269 850 l 33 1126 "},"î":{"ha":544,"x_min":0,"x_max":0,"o":"m 69 29 b 210 225 181 65 210 119 l 210 407 b 75 593 210 503 179 585 l 75 626 b 311 779 183 660 258 711 l 350 769 b 335 458 329 633 335 550 l 335 225 b 475 29 335 119 364 67 l 469 -10 b 274 0 401 -3 318 0 b 75 -10 229 0 160 -3 l 69 29 m 275 1133 l 292 1133 l 528 857 l 500 838 l 283 988 l 67 838 l 39 857 "},"ï":{"ha":544,"x_min":0,"x_max":0,"o":"m 69 29 b 210 225 181 65 210 119 l 210 407 b 75 593 210 503 179 585 l 75 626 b 311 779 183 660 258 711 l 350 769 b 335 458 329 633 335 550 l 335 225 b 475 29 335 119 364 67 l 469 -10 b 274 0 401 -3 318 0 b 75 -10 229 0 160 -3 l 69 29 m 71 975 b 153 1058 71 1021 107 1058 b 235 975 199 1058 235 1021 b 153 893 235 931 199 893 b 71 975 107 893 71 931 m 325 975 b 407 1058 325 1021 361 1058 b 489 975 453 1058 489 1021 b 407 893 489 931 453 893 b 325 975 361 893 325 931 "},"ì":{"ha":544,"x_min":0,"x_max":0,"o":"m 69 29 b 210 225 181 65 210 119 l 210 407 b 75 593 210 503 179 585 l 75 626 b 311 779 183 660 258 711 l 350 769 b 335 458 329 633 335 550 l 335 225 b 475 29 335 119 364 67 l 469 -10 b 274 0 401 -3 318 0 b 75 -10 229 0 160 -3 l 69 29 m 64 1139 l 214 1139 l 325 857 l 297 838 l 54 1121 "},"ī":{"ha":544,"x_min":0,"x_max":0,"o":"m 69 29 b 210 225 181 65 210 119 l 210 407 b 75 593 210 503 179 585 l 75 626 b 311 779 183 660 258 711 l 350 769 b 335 458 329 633 335 550 l 335 225 b 475 29 335 119 364 67 l 469 -10 b 274 0 401 -3 318 0 b 75 -10 229 0 160 -3 l 69 29 m 471 1006 l 471 936 l 67 936 l 65 1006 "},"į":{"ha":517,"x_min":0,"x_max":0,"o":"m 69 29 b 210 225 181 65 210 119 l 210 407 b 75 593 210 503 179 585 l 75 626 b 311 779 183 660 258 711 l 350 769 b 335 458 329 633 335 550 l 335 225 b 475 29 335 119 364 67 l 469 -10 b 338 -1 426 -6 379 -3 b 236 -108 272 1 236 -61 b 324 -182 236 -151 269 -182 b 446 -118 358 -182 401 -160 l 469 -142 b 281 -267 446 -182 379 -267 b 150 -140 200 -267 149 -206 b 247 0 151 -82 200 -29 b 75 -10 203 -1 144 -4 l 69 29 m 165 974 b 263 1071 165 1028 208 1071 b 361 974 318 1071 361 1028 b 263 875 361 918 318 875 b 165 974 208 875 165 918 "},"j":{"ha":468,"x_min":0,"x_max":0,"o":"m -28 -314 b 189 100 83 -264 189 -133 l 189 433 b 54 619 189 529 158 611 l 54 653 b 290 806 163 686 238 738 l 329 796 b 314 485 308 660 314 576 l 314 56 b -15 -343 314 -206 139 -304 l -28 -314 m 143 1006 b 240 1103 143 1060 186 1103 b 339 1006 294 1103 339 1060 b 240 908 339 951 294 908 b 143 1006 186 908 143 951 "},"k":{"ha":989,"x_min":0,"x_max":0,"o":"m 69 29 b 210 225 181 65 210 119 l 210 768 b 75 963 210 874 178 963 l 75 996 b 367 1156 218 1022 296 1074 l 392 1135 b 335 810 349 1028 335 915 l 335 385 l 561 549 b 522 743 658 618 647 721 l 528 774 b 739 764 613 767 694 764 b 925 774 783 764 857 767 l 931 746 b 638 539 829 681 731 608 l 596 508 b 939 28 717 290 854 99 l 926 -7 b 726 -7 867 0 786 0 b 499 436 708 96 660 181 l 335 315 l 335 225 b 475 29 335 119 364 67 l 469 -10 b 274 0 401 -3 318 0 b 75 -10 229 0 160 -3 l 69 29 "},"ķ":{"ha":989,"x_min":0,"x_max":0,"o":"m 69 29 b 210 225 181 65 210 119 l 210 768 b 75 963 210 874 178 963 l 75 996 b 367 1156 218 1022 296 1074 l 392 1135 b 335 810 349 1028 335 915 l 335 385 l 561 549 b 522 743 658 618 647 721 l 528 774 b 739 764 613 767 694 764 b 925 774 783 764 857 767 l 931 746 b 638 539 829 681 731 608 l 596 508 b 939 28 717 290 854 99 l 926 -7 b 726 -7 867 0 786 0 b 499 436 708 96 660 181 l 335 315 l 335 225 b 475 29 335 119 364 67 l 469 -10 b 274 0 401 -3 318 0 b 75 -10 229 0 160 -3 l 69 29 m 518 -378 b 524 -167 600 -331 632 -240 l 656 -90 b 539 -401 772 -211 678 -346 l 518 -378 "},"l":{"ha":531,"x_min":0,"x_max":0,"o":"m 69 29 b 210 225 181 65 210 119 l 210 768 b 75 963 210 874 178 963 l 75 1000 b 367 1156 218 1024 296 1074 l 392 1135 b 335 810 349 1028 335 915 l 335 225 b 475 29 335 119 364 67 l 469 -10 b 274 0 401 -3 318 0 b 75 -10 229 0 160 -3 l 69 29 "},"ĺ":{"ha":531,"x_min":0,"x_max":0,"o":"m 69 29 b 210 225 181 65 210 119 l 210 768 b 75 963 210 874 178 963 l 75 1000 b 367 1156 218 1024 296 1074 l 392 1135 b 335 810 349 1028 335 915 l 335 225 b 475 29 335 119 364 67 l 469 -10 b 274 0 401 -3 318 0 b 75 -10 229 0 160 -3 l 69 29 m 319 1486 l 469 1486 l 479 1468 l 236 1185 l 208 1204 "},"ľ":{"ha":531,"x_min":0,"x_max":0,"o":"m 69 29 b 210 225 181 65 210 119 l 210 768 b 75 963 210 874 178 963 l 75 1000 b 367 1156 218 1024 296 1074 l 392 1135 b 335 810 349 1028 335 915 l 335 225 b 475 29 335 119 364 67 l 469 -10 b 274 0 401 -3 318 0 b 75 -10 229 0 160 -3 l 69 29 m 53 1493 l 269 1343 l 486 1493 l 514 1474 l 278 1197 l 261 1197 l 25 1474 "},"ļ":{"ha":531,"x_min":0,"x_max":0,"o":"m 69 29 b 210 225 181 65 210 119 l 210 768 b 75 963 210 874 178 963 l 75 1000 b 367 1156 218 1024 296 1074 l 392 1135 b 335 810 349 1028 335 915 l 335 225 b 475 29 335 119 364 67 l 469 -10 b 274 0 401 -3 318 0 b 75 -10 229 0 160 -3 l 69 29 m 156 -392 b 161 -181 238 -344 269 -254 l 293 -104 b 176 -415 410 -225 315 -360 l 156 -392 "},"ł":{"ha":544,"x_min":0,"x_max":0,"o":"m 69 29 b 210 225 181 65 210 119 l 210 456 l 44 350 l 44 443 l 210 549 l 210 768 b 75 963 210 874 178 963 l 75 1000 b 367 1156 218 1024 296 1074 l 392 1135 b 335 810 349 1028 335 915 l 335 628 l 507 738 l 504 643 l 335 535 l 335 225 b 475 29 335 119 364 67 l 469 -10 b 274 0 401 -3 318 0 b 75 -10 229 0 160 -3 l 69 29 "},"m":{"ha":1489,"x_min":0,"x_max":0,"o":"m 1056 29 b 1182 225 1153 65 1182 119 l 1182 454 b 1036 678 1182 604 1136 678 b 819 514 932 678 874 601 b 821 460 821 497 821 479 l 821 225 b 961 29 821 119 850 67 l 956 -10 b 760 0 888 -3 804 0 b 575 -10 715 0 646 -3 l 569 29 b 696 225 667 65 696 119 l 696 454 b 551 678 696 604 653 678 b 335 513 446 678 388 600 l 335 458 l 335 225 b 475 29 335 119 364 67 l 469 -10 b 274 0 401 -3 318 0 b 75 -10 229 0 160 -3 l 69 29 b 210 225 181 65 210 119 l 210 407 b 75 593 210 503 179 585 l 75 626 b 311 779 183 660 258 711 l 350 769 b 335 586 339 696 335 638 b 608 785 399 718 490 785 b 813 576 718 785 789 715 b 1092 785 878 715 972 785 b 1307 460 1231 785 1307 676 l 1307 225 b 1447 29 1307 119 1336 67 l 1442 -10 b 1246 0 1374 -3 1290 0 b 1061 -10 1201 0 1132 -3 l 1056 29 "},"n":{"ha":1058,"x_min":0,"x_max":0,"o":"m 625 29 b 751 225 722 65 751 119 l 751 454 b 581 678 751 604 694 678 b 335 508 461 678 396 597 l 335 458 l 335 225 b 475 29 335 119 364 67 l 469 -10 b 274 0 401 -3 318 0 b 75 -10 229 0 160 -3 l 69 29 b 210 225 181 65 210 119 l 210 407 b 75 593 210 503 179 585 l 75 626 b 311 779 183 660 258 711 l 350 769 b 335 569 338 689 335 626 b 644 785 411 708 539 785 b 876 460 800 785 876 676 l 876 225 b 1017 29 876 119 906 67 l 1011 -10 b 815 0 943 -3 860 0 b 631 -10 771 0 701 -3 l 625 29 "},"ń":{"ha":1058,"x_min":0,"x_max":0,"o":"m 625 29 b 751 225 722 65 751 119 l 751 454 b 581 678 751 604 694 678 b 335 508 461 678 396 597 l 335 458 l 335 225 b 475 29 335 119 364 67 l 469 -10 b 274 0 401 -3 318 0 b 75 -10 229 0 160 -3 l 69 29 b 210 225 181 65 210 119 l 210 407 b 75 593 210 503 179 585 l 75 626 b 311 779 183 660 258 711 l 350 769 b 335 569 338 689 335 626 b 644 785 411 708 539 785 b 876 460 800 785 876 676 l 876 225 b 1017 29 876 119 906 67 l 1011 -10 b 815 0 943 -3 860 0 b 631 -10 771 0 701 -3 l 625 29 m 657 1158 l 807 1158 l 817 1140 l 574 857 l 546 876 "},"ň":{"ha":1058,"x_min":0,"x_max":0,"o":"m 625 29 b 751 225 722 65 751 119 l 751 454 b 581 678 751 604 694 678 b 335 508 461 678 396 597 l 335 458 l 335 225 b 475 29 335 119 364 67 l 469 -10 b 274 0 401 -3 318 0 b 75 -10 229 0 160 -3 l 69 29 b 210 225 181 65 210 119 l 210 407 b 75 593 210 503 179 585 l 75 626 b 311 779 183 660 258 711 l 350 769 b 335 569 338 689 335 626 b 644 785 411 708 539 785 b 876 460 800 785 876 676 l 876 225 b 1017 29 876 119 906 67 l 1011 -10 b 815 0 943 -3 860 0 b 631 -10 771 0 701 -3 l 625 29 m 390 1165 l 607 1015 l 824 1165 l 851 1146 l 615 869 l 599 869 l 363 1146 "},"ņ":{"ha":1058,"x_min":0,"x_max":0,"o":"m 625 29 b 751 225 722 65 751 119 l 751 454 b 581 678 751 604 694 678 b 335 508 461 678 396 597 l 335 458 l 335 225 b 475 29 335 119 364 67 l 469 -10 b 274 0 401 -3 318 0 b 75 -10 229 0 160 -3 l 69 29 b 210 225 181 65 210 119 l 210 407 b 75 593 210 503 179 585 l 75 626 b 311 779 183 660 258 711 l 350 769 b 335 569 338 689 335 626 b 644 785 411 708 539 785 b 876 460 800 785 876 676 l 876 225 b 1017 29 876 119 906 67 l 1011 -10 b 815 0 943 -3 860 0 b 631 -10 771 0 701 -3 l 625 29 m 436 -392 b 442 -181 518 -344 550 -254 l 574 -104 b 457 -415 690 -225 596 -360 l 436 -392 "},"ñ":{"ha":1058,"x_min":0,"x_max":0,"o":"m 625 29 b 751 225 722 65 751 119 l 751 454 b 581 678 751 604 694 678 b 335 508 461 678 396 597 l 335 458 l 335 225 b 475 29 335 119 364 67 l 469 -10 b 274 0 401 -3 318 0 b 75 -10 229 0 160 -3 l 69 29 b 210 225 181 65 210 119 l 210 407 b 75 593 210 503 179 585 l 75 626 b 311 779 183 660 258 711 l 350 769 b 335 569 338 689 335 626 b 644 785 411 708 539 785 b 876 460 800 785 876 676 l 876 225 b 1017 29 876 119 906 67 l 1011 -10 b 815 0 943 -3 860 0 b 631 -10 771 0 701 -3 l 625 29 m 407 942 b 475 1010 414 972 424 1010 b 688 918 536 1010 594 918 b 803 1076 767 918 818 1000 l 779 1076 b 710 1008 775 1046 763 1008 b 497 1096 657 1008 597 1096 b 385 940 418 1096 369 1018 "},"ŋ":{"ha":960,"x_min":0,"x_max":0,"o":"m 581 678 b 335 508 461 678 396 597 l 335 458 l 335 225 b 475 29 335 119 364 67 l 469 -10 b 274 0 401 -3 318 0 b 75 -10 229 0 160 -3 l 69 29 b 210 225 181 65 210 119 l 210 407 b 75 593 210 503 179 585 l 75 626 b 311 779 183 660 258 711 l 350 769 b 335 569 338 689 335 626 b 644 785 411 708 539 785 b 890 350 800 785 890 676 b 547 -260 890 -122 701 -221 l 535 -231 b 751 350 646 -181 751 -50 b 581 678 751 604 694 678 "},"o":{"ha":864,"x_min":0,"x_max":0,"o":"m 432 -21 b 35 383 213 -21 35 150 b 432 785 35 606 213 785 b 829 383 650 785 829 615 b 432 -21 829 160 650 -21 m 207 299 b 553 57 279 110 435 15 b 656 468 675 99 728 278 b 308 706 585 654 428 746 b 207 299 188 663 136 486 "},"ó":{"ha":864,"x_min":0,"x_max":0,"o":"m 432 -21 b 35 383 213 -21 35 150 b 432 785 35 606 213 785 b 829 383 650 785 829 615 b 432 -21 829 160 650 -21 m 207 299 b 553 57 279 110 435 15 b 656 468 675 99 728 278 b 308 706 585 654 428 746 b 207 299 188 663 136 486 m 494 1160 l 644 1160 l 654 1142 l 411 858 l 383 878 "},"ǒ":{"ha":864,"x_min":0,"x_max":0,"o":"m 432 -21 b 35 383 213 -21 35 150 b 432 785 35 606 213 785 b 829 383 650 785 829 615 b 432 -21 829 160 650 -21 m 228 1167 l 444 1017 l 661 1167 l 689 1147 l 453 871 l 436 871 l 200 1147 m 207 299 b 553 57 279 110 435 15 b 656 468 675 99 728 278 b 308 706 585 654 428 746 b 207 299 188 663 136 486 "},"ô":{"ha":864,"x_min":0,"x_max":0,"o":"m 432 -21 b 35 383 213 -21 35 150 b 432 785 35 606 213 785 b 829 383 650 785 829 615 b 432 -21 829 160 650 -21 m 442 1154 l 458 1154 l 694 878 l 667 858 l 450 1008 l 233 858 l 206 878 m 207 299 b 553 57 279 110 435 15 b 656 468 675 99 728 278 b 308 706 585 654 428 746 b 207 299 188 663 136 486 "},"ö":{"ha":864,"x_min":0,"x_max":0,"o":"m 432 -21 b 35 383 213 -21 35 150 b 432 785 35 606 213 785 b 829 383 650 785 829 615 b 432 -21 829 160 650 -21 m 207 299 b 553 57 279 110 435 15 b 656 468 675 99 728 278 b 308 706 585 654 428 746 b 207 299 188 663 136 486 m 238 996 b 319 1079 238 1042 274 1079 b 401 996 365 1079 401 1042 b 319 914 401 951 365 914 b 238 996 274 914 238 951 m 492 996 b 574 1079 492 1042 528 1079 b 656 996 619 1079 656 1042 b 574 914 656 951 619 914 b 492 996 528 914 492 951 "},"ò":{"ha":864,"x_min":0,"x_max":0,"o":"m 432 -21 b 35 383 213 -21 35 150 b 432 785 35 606 213 785 b 829 383 650 785 829 615 b 432 -21 829 160 650 -21 m 207 299 b 553 57 279 110 435 15 b 656 468 675 99 728 278 b 308 706 585 654 428 746 b 207 299 188 663 136 486 m 231 1160 l 381 1160 l 492 878 l 464 858 l 221 1142 "},"ő":{"ha":864,"x_min":0,"x_max":0,"o":"m 432 -21 b 35 383 213 -21 35 150 b 432 785 35 606 213 785 b 829 383 650 785 829 615 b 432 -21 829 160 650 -21 m 207 299 b 553 57 279 110 435 15 b 656 468 675 99 728 278 b 308 706 585 654 428 746 b 207 299 188 663 136 486 m 422 1183 l 363 889 l 331 888 l 282 1183 m 628 1183 l 568 889 l 536 888 l 488 1183 "},"ō":{"ha":864,"x_min":0,"x_max":0,"o":"m 432 -21 b 35 383 213 -21 35 150 b 432 785 35 606 213 785 b 829 383 650 785 829 615 b 432 -21 829 160 650 -21 m 207 299 b 553 57 279 110 435 15 b 656 468 675 99 728 278 b 308 706 585 654 428 746 b 207 299 188 663 136 486 m 638 1026 l 638 957 l 233 957 l 232 1026 "},"ø":{"ha":864,"x_min":0,"x_max":0,"o":"m 432 -21 b 192 58 342 -21 258 8 l 140 0 l 47 0 l 140 106 b 35 383 75 176 35 272 b 432 785 35 606 213 785 b 669 707 521 785 603 757 l 719 764 l 813 764 l 722 661 b 829 383 789 590 829 494 b 432 -21 829 160 650 -21 m 207 299 b 243 222 218 271 229 246 l 578 603 b 308 706 499 696 394 735 b 207 299 188 663 136 486 m 285 164 b 553 57 363 68 468 26 b 656 468 675 99 728 278 b 619 544 644 496 633 521 l 285 164 "},"õ":{"ha":864,"x_min":0,"x_max":0,"o":"m 432 -21 b 35 383 213 -21 35 150 b 432 785 35 606 213 785 b 829 383 650 785 829 615 b 432 -21 829 160 650 -21 m 207 299 b 553 57 279 110 435 15 b 656 468 675 99 728 278 b 308 706 585 654 428 746 b 207 299 188 663 136 486 m 244 907 b 313 975 251 938 261 975 b 525 883 374 975 432 883 b 640 1042 604 883 656 965 l 617 1042 b 547 974 613 1011 600 974 b 335 1061 494 974 435 1061 b 222 906 256 1061 207 983 "},"œ":{"ha":1417,"x_min":0,"x_max":0,"o":"m 432 -21 b 35 383 213 -21 35 150 b 432 785 35 606 213 785 b 757 619 565 785 685 722 b 1053 785 819 719 924 785 b 1356 431 1229 785 1369 686 l 822 432 b 892 226 825 360 847 286 b 1371 249 1011 67 1250 61 l 1396 233 b 1053 -21 1353 88 1196 -21 b 754 147 921 -21 815 43 b 432 -21 681 46 564 -21 m 207 299 b 553 57 279 110 435 15 b 656 468 675 99 728 278 b 308 706 585 654 428 746 b 207 299 188 663 136 486 m 1200 486 b 928 701 1200 683 1029 771 b 824 488 871 661 832 579 "},"p":{"ha":956,"x_min":0,"x_max":0,"o":"m 28 -314 b 172 -122 125 -282 172 -228 l 172 414 b 38 608 172 519 140 608 l 38 646 b 233 789 161 660 204 707 l 268 786 l 281 643 b 551 785 331 731 417 785 b 921 381 758 785 921 607 b 561 -21 921 156 768 -21 b 297 97 436 -21 351 24 l 297 -122 b 492 -318 297 -228 311 -278 l 486 -357 b 226 -347 376 -350 271 -347 b 33 -353 182 -347 104 -350 l 28 -314 m 303 378 b 592 38 329 172 449 32 b 756 393 714 43 782 190 b 458 704 726 597 604 725 b 303 378 344 688 281 553 "},"þ":{"ha":997,"x_min":0,"x_max":0,"o":"m 603 -21 b 339 97 478 -21 393 24 l 339 -122 b 533 -318 339 -228 353 -278 l 528 -357 b 268 -347 418 -350 313 -347 b 75 -353 224 -347 146 -350 l 69 -314 b 214 -122 167 -282 214 -228 l 214 768 b 79 963 214 874 182 963 l 79 1000 b 371 1156 222 1024 300 1074 l 396 1135 b 339 810 353 1028 339 915 l 339 669 b 593 785 390 740 472 785 b 963 381 800 785 963 607 b 603 -21 963 156 810 -21 m 344 378 b 633 38 371 172 490 32 b 797 393 756 43 824 190 b 500 704 768 597 646 725 b 344 378 386 688 322 553 "},"q":{"ha":957,"x_min":0,"x_max":0,"o":"m 404 -21 b 35 383 197 -21 35 157 b 394 785 35 608 188 785 b 675 643 533 785 622 731 l 763 764 l 810 764 b 785 372 796 657 785 547 l 785 -122 b 929 -314 785 -228 832 -282 l 924 -353 b 731 -347 853 -350 775 -347 b 471 -357 686 -347 581 -350 l 465 -318 b 660 -122 646 -278 660 -228 l 660 97 b 404 -21 608 24 526 -21 m 200 404 b 489 63 218 214 333 57 b 653 418 628 68 678 225 b 356 729 622 632 503 750 b 200 404 251 714 182 594 "},"r":{"ha":725,"x_min":0,"x_max":0,"o":"m 69 29 b 210 225 181 65 210 119 l 210 407 b 75 593 210 503 179 585 l 75 626 b 311 779 183 660 258 711 l 350 769 b 335 578 338 692 335 632 b 690 756 414 779 596 793 b 675 493 674 658 674 563 l 644 485 b 486 639 625 592 563 639 b 335 447 403 639 335 560 l 335 225 b 475 29 335 119 364 67 l 469 -10 b 274 0 401 -3 318 0 b 75 -10 229 0 160 -3 l 69 29 "},"ŕ":{"ha":725,"x_min":0,"x_max":0,"o":"m 69 29 b 210 225 181 65 210 119 l 210 407 b 75 593 210 503 179 585 l 75 626 b 311 779 183 660 258 711 l 350 769 b 335 578 338 692 335 632 b 690 756 414 779 596 793 b 675 493 674 658 674 563 l 644 485 b 486 639 625 592 563 639 b 335 447 403 639 335 560 l 335 225 b 475 29 335 119 364 67 l 469 -10 b 274 0 401 -3 318 0 b 75 -10 229 0 160 -3 l 69 29 m 528 1160 l 678 1160 l 688 1142 l 444 858 l 417 878 "},"ř":{"ha":725,"x_min":0,"x_max":0,"o":"m 69 29 b 210 225 181 65 210 119 l 210 407 b 75 593 210 503 179 585 l 75 626 b 311 779 183 660 258 711 l 350 769 b 335 578 338 692 335 632 b 690 756 414 779 596 793 b 675 493 674 658 674 563 l 644 485 b 486 639 625 592 563 639 b 335 447 403 639 335 560 l 335 225 b 475 29 335 119 364 67 l 469 -10 b 274 0 401 -3 318 0 b 75 -10 229 0 160 -3 l 69 29 m 261 1167 l 478 1017 l 694 1167 l 722 1147 l 486 871 l 469 871 l 233 1147 "},"ŗ":{"ha":725,"x_min":0,"x_max":0,"o":"m 69 29 b 210 225 181 65 210 119 l 210 407 b 75 593 210 503 179 585 l 75 626 b 311 779 183 660 258 711 l 350 769 b 335 578 338 692 335 632 b 690 756 414 779 596 793 b 675 493 674 658 674 563 l 644 485 b 486 639 625 592 563 639 b 335 447 403 639 335 560 l 335 225 b 475 29 335 119 364 67 l 469 -10 b 274 0 401 -3 318 0 b 75 -10 229 0 160 -3 l 69 29 m 229 -378 b 235 -167 311 -331 343 -240 l 367 -90 b 250 -401 483 -211 389 -346 l 229 -378 "},"s":{"ha":744,"x_min":0,"x_max":0,"o":"m 111 297 b 406 42 179 107 275 42 b 553 146 485 42 553 78 b 335 331 553 211 489 269 b 94 571 167 399 94 471 b 378 778 94 713 228 778 b 625 751 478 778 517 751 b 628 508 619 667 618 592 l 597 501 b 354 722 547 663 447 722 b 221 618 282 722 221 689 b 418 457 221 560 289 513 b 675 197 613 374 675 304 b 375 -14 675 64 585 -14 b 69 28 275 -14 182 -6 b 83 289 83 88 99 214 l 111 297 "},"ś":{"ha":744,"x_min":0,"x_max":0,"o":"m 111 297 b 406 42 179 107 275 42 b 553 146 485 42 553 78 b 335 331 553 211 489 269 b 94 571 167 399 94 471 b 378 778 94 713 228 778 b 625 751 478 778 517 751 b 628 508 619 667 618 592 l 597 501 b 354 722 547 663 447 722 b 221 618 282 722 221 689 b 418 457 221 560 289 513 b 675 197 613 374 675 304 b 375 -14 675 64 585 -14 b 69 28 275 -14 182 -6 b 83 289 83 88 99 214 l 111 297 m 418 1139 l 568 1139 l 578 1121 l 335 838 l 307 857 "},"š":{"ha":744,"x_min":0,"x_max":0,"o":"m 111 297 b 406 42 179 107 275 42 b 553 146 485 42 553 78 b 335 331 553 211 489 269 b 94 571 167 399 94 471 b 378 778 94 713 228 778 b 625 751 478 778 517 751 b 628 508 619 667 618 592 l 597 501 b 354 722 547 663 447 722 b 221 618 282 722 221 689 b 418 457 221 560 289 513 b 675 197 613 374 675 304 b 375 -14 675 64 585 -14 b 69 28 275 -14 182 -6 b 83 289 83 88 99 214 l 111 297 m 151 1146 l 368 996 l 585 1146 l 613 1126 l 376 850 l 360 850 l 124 1126 "},"ş":{"ha":744,"x_min":0,"x_max":0,"o":"m 111 297 b 406 42 179 107 275 42 b 553 146 485 42 553 78 b 335 331 553 211 489 269 b 94 571 167 399 94 471 b 378 778 94 713 228 778 b 625 751 478 778 517 751 b 628 508 619 667 618 592 l 597 501 b 354 722 547 663 447 722 b 221 618 282 722 221 689 b 418 457 221 560 289 513 b 675 197 613 374 675 304 b 394 -14 675 68 590 -10 l 386 -74 b 568 -169 497 -74 568 -111 b 396 -292 568 -235 494 -292 b 163 -203 292 -292 213 -250 l 181 -185 b 444 -186 311 -260 444 -246 b 272 -121 444 -126 326 -121 l 368 -14 b 69 28 271 -14 179 -4 b 83 289 83 88 99 214 l 111 297 "},"ș":{"ha":744,"x_min":0,"x_max":0,"o":"m 111 297 b 406 42 179 107 275 42 b 553 146 485 42 553 78 b 335 331 553 211 489 269 b 94 571 167 399 94 471 b 378 778 94 713 228 778 b 625 751 478 778 517 751 b 628 508 619 667 618 592 l 597 501 b 354 722 547 663 447 722 b 221 618 282 722 221 689 b 418 457 221 560 289 513 b 675 197 613 374 675 304 b 375 -14 675 64 585 -14 b 69 28 275 -14 182 -6 b 83 289 83 88 99 214 l 111 297 m 254 -378 b 260 -167 336 -331 368 -240 l 392 -90 b 275 -401 508 -211 414 -346 l 254 -378 "},"ß":{"ha":992,"x_min":0,"x_max":0,"o":"m 56 33 b 200 225 153 65 200 119 l 200 431 b 63 646 200 604 160 646 l 63 683 b 203 840 179 693 190 747 b 535 1125 224 993 343 1125 b 811 931 658 1125 811 1056 b 654 721 811 821 733 768 b 592 638 613 696 592 668 b 740 490 592 604 615 563 b 950 197 882 407 950 313 b 686 -14 950 69 846 -14 b 458 28 611 -14 542 -6 b 468 289 468 88 481 214 l 489 297 b 694 42 540 107 611 42 b 818 160 769 42 818 88 b 654 363 818 229 775 289 b 463 576 542 431 463 492 b 590 758 463 636 513 686 b 672 940 643 808 672 874 b 518 1060 672 1017 608 1060 b 325 801 354 1060 325 910 l 325 225 b 344 0 325 119 332 69 b 61 -6 271 0 132 -3 l 56 33 "},"t":{"ha":704,"x_min":0,"x_max":0,"o":"m 381 -21 b 149 283 225 -21 149 67 l 149 492 b 14 697 149 643 118 689 l 14 735 b 256 958 139 764 193 819 l 289 953 b 278 749 283 882 281 817 l 663 764 l 675 744 l 618 667 l 276 685 b 274 324 274 579 274 467 b 444 86 274 160 331 86 b 667 249 539 86 606 157 l 697 231 b 381 -21 624 67 496 -21 "},"ŧ":{"ha":757,"x_min":0,"x_max":0,"o":"m 46 469 l 149 471 l 149 492 b 14 697 149 643 118 689 l 14 735 b 256 958 139 764 193 819 l 289 953 b 278 749 283 882 281 817 l 663 764 l 675 744 l 618 667 l 276 685 b 274 471 275 618 274 549 l 632 474 l 632 404 l 274 401 l 274 324 b 444 86 274 160 331 86 b 667 249 539 86 606 157 l 697 231 b 381 -21 624 67 496 -21 b 149 283 225 -21 149 67 l 149 401 l 47 400 "},"ť":{"ha":704,"x_min":0,"x_max":0,"o":"m 381 -21 b 149 283 225 -21 149 67 l 149 492 b 14 697 149 643 118 689 l 14 735 b 256 958 139 764 193 819 l 289 953 b 278 749 283 882 281 817 l 663 764 l 675 744 l 618 667 l 276 685 b 274 324 274 579 274 467 b 444 86 274 160 331 86 b 667 249 539 86 606 157 l 697 231 b 381 -21 624 67 496 -21 m 132 1289 l 349 1139 l 565 1289 l 593 1269 l 357 993 l 340 993 l 104 1269 "},"ţ":{"ha":704,"x_min":0,"x_max":0,"o":"m 381 -21 b 149 283 225 -21 149 67 l 149 492 b 14 697 149 643 118 689 l 14 735 b 256 958 139 764 193 819 l 289 953 b 278 749 283 882 281 817 l 663 764 l 675 744 l 618 667 l 276 685 b 274 324 274 579 274 467 b 444 86 274 160 331 86 b 667 249 539 86 606 157 l 697 231 b 414 -18 631 82 521 -3 l 406 -86 b 588 -182 517 -86 588 -124 b 415 -304 588 -247 514 -304 b 182 -215 311 -304 232 -262 l 200 -197 b 464 -199 331 -272 464 -258 b 292 -133 464 -139 346 -133 l 392 -21 l 381 -21 "},"ț":{"ha":704,"x_min":0,"x_max":0,"o":"m 381 -21 b 149 283 225 -21 149 67 l 149 492 b 14 697 149 643 118 689 l 14 735 b 256 958 139 764 193 819 l 289 953 b 278 749 283 882 281 817 l 663 764 l 675 744 l 618 667 l 276 685 b 274 324 274 579 274 467 b 444 86 274 160 331 86 b 667 249 539 86 606 157 l 697 231 b 381 -21 624 67 496 -21 m 310 -411 b 315 -200 392 -364 424 -274 l 447 -124 b 331 -435 564 -244 469 -379 l 310 -411 "},"u":{"ha":924,"x_min":0,"x_max":0,"o":"m 367 -21 b 135 315 211 -21 135 99 l 135 413 b 14 628 135 564 104 619 l 14 656 b 251 790 125 685 189 726 l 275 781 b 260 418 260 663 260 565 l 260 321 b 431 86 260 171 317 86 b 649 256 519 86 589 169 l 649 413 b 514 628 649 564 618 619 l 514 656 b 758 790 639 685 696 726 l 782 781 b 767 418 767 663 767 565 l 767 351 b 896 81 767 200 813 117 l 896 49 l 696 -12 b 650 192 668 22 653 114 b 367 -21 575 60 469 -21 "},"ú":{"ha":924,"x_min":0,"x_max":0,"o":"m 367 -21 b 135 315 211 -21 135 99 l 135 413 b 14 628 135 564 104 619 l 14 656 b 251 790 125 685 189 726 l 275 781 b 260 418 260 663 260 565 l 260 321 b 431 86 260 171 317 86 b 649 256 519 86 589 169 l 649 413 b 514 628 649 564 618 619 l 514 656 b 758 790 639 685 696 726 l 782 781 b 767 418 767 663 767 565 l 767 351 b 896 81 767 200 813 117 l 896 49 l 696 -12 b 650 192 668 22 653 114 b 367 -21 575 60 469 -21 m 504 1139 l 654 1139 l 664 1121 l 421 838 l 393 857 "},"ǔ":{"ha":924,"x_min":0,"x_max":0,"o":"m 367 -21 b 135 315 211 -21 135 99 l 135 413 b 14 628 135 564 104 619 l 14 656 b 251 790 125 685 189 726 l 275 781 b 260 418 260 663 260 565 l 260 321 b 431 86 260 171 317 86 b 649 256 519 86 589 169 l 649 413 b 514 628 649 564 618 619 l 514 656 b 758 790 639 685 696 726 l 782 781 b 767 418 767 663 767 565 l 767 351 b 896 81 767 200 813 117 l 896 49 l 696 -12 b 650 192 668 22 653 114 b 367 -21 575 60 469 -21 m 238 1146 l 454 996 l 671 1146 l 699 1126 l 463 850 l 446 850 l 210 1126 "},"û":{"ha":924,"x_min":0,"x_max":0,"o":"m 367 -21 b 135 315 211 -21 135 99 l 135 413 b 14 628 135 564 104 619 l 14 656 b 251 790 125 685 189 726 l 275 781 b 260 418 260 663 260 565 l 260 321 b 431 86 260 171 317 86 b 649 256 519 86 589 169 l 649 413 b 514 628 649 564 618 619 l 514 656 b 758 790 639 685 696 726 l 782 781 b 767 418 767 663 767 565 l 767 351 b 896 81 767 200 813 117 l 896 49 l 696 -12 b 650 192 668 22 653 114 b 367 -21 575 60 469 -21 m 453 1161 l 469 1161 l 706 885 l 678 865 l 461 1015 l 244 865 l 217 885 "},"ü":{"ha":924,"x_min":0,"x_max":0,"o":"m 367 -21 b 135 315 211 -21 135 99 l 135 413 b 14 628 135 564 104 619 l 14 656 b 251 790 125 685 189 726 l 275 781 b 260 418 260 663 260 565 l 260 321 b 431 86 260 171 317 86 b 649 256 519 86 589 169 l 649 413 b 514 628 649 564 618 619 l 514 656 b 758 790 639 685 696 726 l 782 781 b 767 418 767 663 767 565 l 767 351 b 896 81 767 200 813 117 l 896 49 l 696 -12 b 650 192 668 22 653 114 b 367 -21 575 60 469 -21 m 247 975 b 329 1058 247 1021 283 1058 b 411 975 375 1058 411 1021 b 329 893 411 931 375 893 b 247 975 283 893 247 931 m 501 975 b 583 1058 501 1021 538 1058 b 665 975 629 1058 665 1021 b 583 893 665 931 629 893 b 501 975 538 893 501 931 "},"ǘ":{"ha":924,"x_min":0,"x_max":0,"o":"m 367 -21 b 135 315 211 -21 135 99 l 135 413 b 14 628 135 564 104 619 l 14 656 b 251 790 125 685 189 726 l 275 781 b 260 418 260 663 260 565 l 260 321 b 431 86 260 171 317 86 b 649 256 519 86 589 169 l 649 413 b 514 628 649 564 618 619 l 514 656 b 758 790 639 685 696 726 l 782 781 b 767 418 767 663 767 565 l 767 351 b 896 81 767 200 813 117 l 896 49 l 696 -12 b 650 192 668 22 653 114 b 367 -21 575 60 469 -21 m 247 975 b 329 1058 247 1021 283 1058 b 411 975 375 1058 411 1021 b 329 893 411 931 375 893 b 247 975 283 893 247 931 m 504 1507 l 654 1507 l 664 1489 l 421 1206 l 393 1225 m 501 975 b 583 1058 501 1021 538 1058 b 665 975 629 1058 665 1021 b 583 893 665 931 629 893 b 501 975 538 893 501 931 "},"ǚ":{"ha":924,"x_min":0,"x_max":0,"o":"m 367 -21 b 135 315 211 -21 135 99 l 135 413 b 14 628 135 564 104 619 l 14 656 b 251 790 125 685 189 726 l 275 781 b 260 418 260 663 260 565 l 260 321 b 431 86 260 171 317 86 b 649 256 519 86 589 169 l 649 413 b 514 628 649 564 618 619 l 514 656 b 758 790 639 685 696 726 l 782 781 b 767 418 767 663 767 565 l 767 351 b 896 81 767 200 813 117 l 896 49 l 696 -12 b 650 192 668 22 653 114 b 367 -21 575 60 469 -21 m 238 1514 l 454 1364 l 671 1514 l 699 1494 l 463 1218 l 446 1218 l 210 1494 m 247 975 b 329 1058 247 1021 283 1058 b 411 975 375 1058 411 1021 b 329 893 411 931 375 893 b 247 975 283 893 247 931 m 501 975 b 583 1058 501 1021 538 1058 b 665 975 629 1058 665 1021 b 583 893 665 931 629 893 b 501 975 538 893 501 931 "},"ǜ":{"ha":924,"x_min":0,"x_max":0,"o":"m 367 -21 b 135 315 211 -21 135 99 l 135 413 b 14 628 135 564 104 619 l 14 656 b 251 790 125 685 189 726 l 275 781 b 260 418 260 663 260 565 l 260 321 b 431 86 260 171 317 86 b 649 256 519 86 589 169 l 649 413 b 514 628 649 564 618 619 l 514 656 b 758 790 639 685 696 726 l 782 781 b 767 418 767 663 767 565 l 767 351 b 896 81 767 200 813 117 l 896 49 l 696 -12 b 650 192 668 22 653 114 b 367 -21 575 60 469 -21 m 240 1507 l 390 1507 l 501 1225 l 474 1206 l 231 1489 m 247 975 b 329 1058 247 1021 283 1058 b 411 975 375 1058 411 1021 b 329 893 411 931 375 893 b 247 975 283 893 247 931 m 501 975 b 583 1058 501 1021 538 1058 b 665 975 629 1058 665 1021 b 583 893 665 931 629 893 b 501 975 538 893 501 931 "},"ǖ":{"ha":924,"x_min":0,"x_max":0,"o":"m 367 -21 b 135 315 211 -21 135 99 l 135 413 b 14 628 135 564 104 619 l 14 656 b 251 790 125 685 189 726 l 275 781 b 260 418 260 663 260 565 l 260 321 b 431 86 260 171 317 86 b 649 256 519 86 589 169 l 649 413 b 514 628 649 564 618 619 l 514 656 b 758 790 639 685 696 726 l 782 781 b 767 418 767 663 767 565 l 767 351 b 896 81 767 200 813 117 l 896 49 l 696 -12 b 650 192 668 22 653 114 b 367 -21 575 60 469 -21 m 647 1374 l 647 1304 l 243 1304 l 242 1374 m 247 975 b 329 1058 247 1021 283 1058 b 411 975 375 1058 411 1021 b 329 893 411 931 375 893 b 247 975 283 893 247 931 m 501 975 b 583 1058 501 1021 538 1058 b 665 975 629 1058 665 1021 b 583 893 665 931 629 893 b 501 975 538 893 501 931 "},"ù":{"ha":924,"x_min":0,"x_max":0,"o":"m 367 -21 b 135 315 211 -21 135 99 l 135 413 b 14 628 135 564 104 619 l 14 656 b 251 790 125 685 189 726 l 275 781 b 260 418 260 663 260 565 l 260 321 b 431 86 260 171 317 86 b 649 256 519 86 589 169 l 649 413 b 514 628 649 564 618 619 l 514 656 b 758 790 639 685 696 726 l 782 781 b 767 418 767 663 767 565 l 767 351 b 896 81 767 200 813 117 l 896 49 l 696 -12 b 650 192 668 22 653 114 b 367 -21 575 60 469 -21 m 240 1139 l 390 1139 l 501 857 l 474 838 l 231 1121 "},"ű":{"ha":924,"x_min":0,"x_max":0,"o":"m 367 -21 b 135 315 211 -21 135 99 l 135 413 b 14 628 135 564 104 619 l 14 656 b 251 790 125 685 189 726 l 275 781 b 260 418 260 663 260 565 l 260 321 b 431 86 260 171 317 86 b 649 256 519 86 589 169 l 649 413 b 514 628 649 564 618 619 l 514 656 b 758 790 639 685 696 726 l 782 781 b 767 418 767 663 767 565 l 767 351 b 896 81 767 200 813 117 l 896 49 l 696 -12 b 650 192 668 22 653 114 b 367 -21 575 60 469 -21 m 432 1163 l 372 868 l 340 867 l 292 1163 m 638 1163 l 578 868 l 546 867 l 497 1163 "},"ū":{"ha":924,"x_min":0,"x_max":0,"o":"m 367 -21 b 135 315 211 -21 135 99 l 135 413 b 14 628 135 564 104 619 l 14 656 b 251 790 125 685 189 726 l 275 781 b 260 418 260 663 260 565 l 260 321 b 431 86 260 171 317 86 b 649 256 519 86 589 169 l 649 413 b 514 628 649 564 618 619 l 514 656 b 758 790 639 685 696 726 l 782 781 b 767 418 767 663 767 565 l 767 351 b 896 81 767 200 813 117 l 896 49 l 696 -12 b 650 192 668 22 653 114 b 367 -21 575 60 469 -21 m 647 1006 l 647 936 l 243 936 l 242 1006 "},"ų":{"ha":924,"x_min":0,"x_max":0,"o":"m 367 -21 b 135 315 211 -21 135 99 l 135 413 b 14 628 135 564 104 619 l 14 656 b 251 790 125 685 189 726 l 275 781 b 260 418 260 663 260 565 l 260 321 b 431 86 260 171 317 86 b 649 256 519 86 589 169 l 649 413 b 514 628 649 564 618 619 l 514 656 b 758 790 639 685 696 726 l 782 781 b 767 418 767 663 767 565 l 767 351 b 896 81 767 200 813 117 l 896 49 l 779 13 l 786 11 b 649 -108 688 -21 649 -61 b 736 -182 649 -151 682 -182 b 858 -118 771 -182 814 -160 l 882 -142 b 693 -267 858 -182 792 -267 b 563 -140 613 -267 561 -206 b 683 10 564 -74 619 -22 b 650 192 664 53 653 126 b 367 -21 575 60 469 -21 "},"ů":{"ha":924,"x_min":0,"x_max":0,"o":"m 367 -21 b 135 315 211 -21 135 99 l 135 413 b 14 628 135 564 104 619 l 14 656 b 251 790 125 685 189 726 l 275 781 b 260 418 260 663 260 565 l 260 321 b 431 86 260 171 317 86 b 649 256 519 86 589 169 l 649 413 b 514 628 649 564 618 619 l 514 656 b 758 790 639 685 696 726 l 782 781 b 767 418 767 663 767 565 l 767 351 b 896 81 767 200 813 117 l 896 49 l 696 -12 b 650 192 668 22 653 114 b 367 -21 575 60 469 -21 m 344 890 b 344 1119 283 953 282 1058 b 572 1119 407 1181 511 1182 b 572 892 635 1056 635 951 b 344 890 508 831 404 829 m 383 929 b 533 931 421 889 493 893 b 533 1081 575 971 574 1039 b 383 1081 496 1121 424 1118 b 383 929 342 1042 343 971 "},"v":{"ha":857,"x_min":0,"x_max":0,"o":"m -36 764 b 171 754 49 757 126 754 b 349 764 215 754 267 757 l 354 725 b 315 531 256 706 269 626 l 483 179 l 647 539 b 556 725 689 629 667 706 l 561 764 b 703 754 632 757 658 754 b 893 764 747 754 825 757 l 899 725 b 699 517 788 674 744 618 l 454 -21 l 425 -21 l 172 506 b -42 725 118 619 64 689 l -36 764 "},"w":{"ha":1232,"x_min":0,"x_max":0,"o":"m -36 764 b 171 754 49 757 126 754 b 349 764 215 754 267 757 l 354 725 b 303 531 256 706 261 628 l 440 210 l 638 776 l 667 776 l 910 213 l 1022 539 b 931 725 1054 632 1042 706 l 936 764 b 1078 754 1007 757 1033 754 b 1268 764 1122 754 1200 757 l 1274 725 b 1074 517 1163 674 1110 621 l 886 -21 l 860 -21 l 617 543 l 417 -21 l 388 -21 l 163 506 b -42 725 113 622 64 689 l -36 764 "},"ẃ":{"ha":1232,"x_min":0,"x_max":0,"o":"m -36 764 b 171 754 49 757 126 754 b 349 764 215 754 267 757 l 354 725 b 303 531 256 706 261 628 l 440 210 l 638 776 l 667 776 l 910 213 l 1022 539 b 931 725 1054 632 1042 706 l 936 764 b 1078 754 1007 757 1033 754 b 1268 764 1122 754 1200 757 l 1274 725 b 1074 517 1163 674 1110 621 l 886 -21 l 860 -21 l 617 543 l 417 -21 l 388 -21 l 163 506 b -42 725 113 622 64 689 l -36 764 m 699 1139 l 849 1139 l 858 1121 l 615 838 l 588 857 "},"ŵ":{"ha":1232,"x_min":0,"x_max":0,"o":"m -36 764 b 171 754 49 757 126 754 b 349 764 215 754 267 757 l 354 725 b 303 531 256 706 261 628 l 440 210 l 638 776 l 667 776 l 910 213 l 1022 539 b 931 725 1054 632 1042 706 l 936 764 b 1078 754 1007 757 1033 754 b 1268 764 1122 754 1200 757 l 1274 725 b 1074 517 1163 674 1110 621 l 886 -21 l 860 -21 l 617 543 l 417 -21 l 388 -21 l 163 506 b -42 725 113 622 64 689 l -36 764 m 646 1133 l 663 1133 l 899 857 l 871 838 l 654 988 l 438 838 l 410 857 "},"ẅ":{"ha":1232,"x_min":0,"x_max":0,"o":"m -36 764 b 171 754 49 757 126 754 b 349 764 215 754 267 757 l 354 725 b 303 531 256 706 261 628 l 440 210 l 638 776 l 667 776 l 910 213 l 1022 539 b 931 725 1054 632 1042 706 l 936 764 b 1078 754 1007 757 1033 754 b 1268 764 1122 754 1200 757 l 1274 725 b 1074 517 1163 674 1110 621 l 886 -21 l 860 -21 l 617 543 l 417 -21 l 388 -21 l 163 506 b -42 725 113 622 64 689 l -36 764 m 442 975 b 524 1058 442 1021 478 1058 b 606 975 569 1058 606 1021 b 524 893 606 931 569 893 b 442 975 478 893 442 931 m 696 975 b 778 1058 696 1021 732 1058 b 860 975 824 1058 860 1021 b 778 893 860 931 824 893 b 696 975 732 893 696 931 "},"ẁ":{"ha":1232,"x_min":0,"x_max":0,"o":"m -36 764 b 171 754 49 757 126 754 b 349 764 215 754 267 757 l 354 725 b 303 531 256 706 261 628 l 440 210 l 638 776 l 667 776 l 910 213 l 1022 539 b 931 725 1054 632 1042 706 l 936 764 b 1078 754 1007 757 1033 754 b 1268 764 1122 754 1200 757 l 1274 725 b 1074 517 1163 674 1110 621 l 886 -21 l 860 -21 l 617 543 l 417 -21 l 388 -21 l 163 506 b -42 725 113 622 64 689 l -36 764 m 435 1139 l 585 1139 l 696 857 l 668 838 l 425 1121 "},"x":{"ha":903,"x_min":0,"x_max":0,"o":"m 14 29 b 265 213 125 81 201 138 l 388 358 l 269 522 b 11 725 213 603 122 689 l 17 764 b 183 754 101 757 139 754 b 415 764 228 754 333 757 l 421 725 b 413 554 296 701 349 644 l 476 464 l 544 544 b 518 725 625 640 629 706 l 524 764 b 660 754 594 757 615 754 b 850 764 704 754 782 757 l 856 725 b 579 500 744 674 658 593 l 510 418 l 658 211 b 889 29 711 138 778 65 l 883 -10 b 676 0 799 -3 721 0 b 471 -10 632 0 553 -3 l 465 29 b 515 179 590 39 574 97 l 421 311 l 300 168 b 351 29 235 90 240 49 l 346 -10 b 181 0 275 -3 225 0 b 19 -10 136 0 88 -3 l 14 29 "},"y":{"ha":850,"x_min":0,"x_max":0,"o":"m 3 -139 b 365 0 161 -179 292 -143 l 400 67 l 175 517 b -35 725 128 611 76 675 l -29 764 b 178 754 56 757 133 754 b 410 764 222 754 328 757 l 415 725 b 324 533 290 701 272 642 l 476 215 l 643 538 b 525 725 694 636 636 706 l 531 764 b 696 754 601 757 651 754 b 886 764 740 754 818 757 l 892 725 b 697 515 781 674 738 593 l 243 -347 l 213 -347 b -12 -165 153 -274 78 -212 l 3 -139 "},"ý":{"ha":850,"x_min":0,"x_max":0,"o":"m 3 -139 b 365 0 161 -179 292 -143 l 400 67 l 175 517 b -35 725 128 611 76 675 l -29 764 b 178 754 56 757 133 754 b 410 764 222 754 328 757 l 415 725 b 324 533 290 701 272 642 l 476 215 l 643 538 b 525 725 694 636 636 706 l 531 764 b 696 754 601 757 651 754 b 886 764 740 754 818 757 l 892 725 b 697 515 781 674 738 593 l 243 -347 l 213 -347 b -12 -165 153 -274 78 -212 l 3 -139 m 507 1139 l 657 1139 l 667 1121 l 424 838 l 396 857 "},"ŷ":{"ha":850,"x_min":0,"x_max":0,"o":"m 3 -139 b 365 0 161 -179 292 -143 l 400 67 l 175 517 b -35 725 128 611 76 675 l -29 764 b 178 754 56 757 133 754 b 410 764 222 754 328 757 l 415 725 b 324 533 290 701 272 642 l 476 215 l 643 538 b 525 725 694 636 636 706 l 531 764 b 696 754 601 757 651 754 b 886 764 740 754 818 757 l 892 725 b 697 515 781 674 738 593 l 243 -347 l 213 -347 b -12 -165 153 -274 78 -212 l 3 -139 m 454 1133 l 471 1133 l 707 857 l 679 838 l 463 988 l 246 838 l 218 857 "},"ÿ":{"ha":850,"x_min":0,"x_max":0,"o":"m 3 -139 b 365 0 161 -179 292 -143 l 400 67 l 175 517 b -35 725 128 611 76 675 l -29 764 b 178 754 56 757 133 754 b 410 764 222 754 328 757 l 415 725 b 324 533 290 701 272 642 l 476 215 l 643 538 b 525 725 694 636 636 706 l 531 764 b 696 754 601 757 651 754 b 886 764 740 754 818 757 l 892 725 b 697 515 781 674 738 593 l 243 -347 l 213 -347 b -12 -165 153 -274 78 -212 l 3 -139 m 250 975 b 332 1058 250 1021 286 1058 b 414 975 378 1058 414 1021 b 332 893 414 931 378 893 b 250 975 286 893 250 931 m 504 975 b 586 1058 504 1021 540 1058 b 668 975 632 1058 668 1021 b 586 893 668 931 632 893 b 504 975 540 893 504 931 "},"ỳ":{"ha":850,"x_min":0,"x_max":0,"o":"m 3 -139 b 365 0 161 -179 292 -143 l 400 67 l 175 517 b -35 725 128 611 76 675 l -29 764 b 178 754 56 757 133 754 b 410 764 222 754 328 757 l 415 725 b 324 533 290 701 272 642 l 476 215 l 643 538 b 525 725 694 636 636 706 l 531 764 b 696 754 601 757 651 754 b 886 764 740 754 818 757 l 892 725 b 697 515 781 674 738 593 l 243 -347 l 213 -347 b -12 -165 153 -274 78 -212 l 3 -139 m 243 1139 l 393 1139 l 504 857 l 476 838 l 233 1121 "},"z":{"ha":808,"x_min":0,"x_max":0,"o":"m 44 29 l 561 708 l 417 708 b 140 465 261 708 190 667 l 110 468 b 72 785 117 576 106 674 l 94 797 b 457 764 167 771 263 764 l 739 764 l 744 731 l 231 56 l 369 56 b 704 322 547 56 649 107 l 735 319 b 767 18 732 196 744 83 l 750 0 l 57 0 "},"ź":{"ha":808,"x_min":0,"x_max":0,"o":"m 44 29 l 561 708 l 417 708 b 140 465 261 708 190 667 l 110 468 b 72 785 117 576 106 674 l 94 797 b 457 764 167 771 263 764 l 739 764 l 744 731 l 231 56 l 369 56 b 704 322 547 56 649 107 l 735 319 b 767 18 732 196 744 83 l 750 0 l 57 0 m 422 1139 l 572 1139 l 582 1121 l 339 838 l 311 857 "},"ž":{"ha":808,"x_min":0,"x_max":0,"o":"m 44 29 l 561 708 l 417 708 b 140 465 261 708 190 667 l 110 468 b 72 785 117 576 106 674 l 94 797 b 457 764 167 771 263 764 l 739 764 l 744 731 l 231 56 l 369 56 b 704 322 547 56 649 107 l 735 319 b 767 18 732 196 744 83 l 750 0 l 57 0 m 156 1146 l 372 996 l 589 1146 l 617 1126 l 381 850 l 364 850 l 128 1126 "},"ż":{"ha":808,"x_min":0,"x_max":0,"o":"m 44 29 l 561 708 l 417 708 b 140 465 261 708 190 667 l 110 468 b 72 785 117 576 106 674 l 94 797 b 457 764 167 771 263 764 l 739 764 l 744 731 l 231 56 l 369 56 b 704 322 547 56 649 107 l 735 319 b 767 18 732 196 744 83 l 750 0 l 57 0 m 326 1006 b 424 1103 326 1060 369 1103 b 522 1006 478 1103 522 1060 b 424 908 522 951 478 908 b 326 1006 369 908 326 951 "},"ﬁ":{"ha":1197,"x_min":0,"x_max":0,"o":"m 56 33 b 200 225 153 65 200 119 l 200 431 b 63 646 200 604 160 646 l 63 683 b 203 840 179 693 190 747 b 718 1093 231 1039 422 1200 b 740 856 697 1010 706 932 l 714 843 b 421 1051 608 1019 517 1094 b 325 801 363 1026 325 929 l 325 708 l 649 722 l 661 703 l 604 625 l 325 639 l 325 225 b 519 29 325 119 339 69 l 514 -10 b 254 0 404 -3 299 0 b 61 -6 210 0 132 -3 l 56 33 m 750 29 b 890 225 861 65 890 119 l 890 407 b 756 593 890 503 860 585 l 756 626 b 992 779 864 660 939 711 l 1031 769 b 1015 458 1010 633 1015 550 l 1015 225 b 1156 29 1015 119 1044 67 l 1150 -10 b 954 0 1082 -3 999 0 b 756 -10 910 0 840 -3 l 750 29 m 836 1006 b 933 1103 836 1060 879 1103 b 1032 1006 988 1103 1032 1060 b 933 908 1032 951 988 908 b 836 1006 879 908 836 951 "},"ﬂ":{"ha":1197,"x_min":0,"x_max":0,"o":"m 56 33 b 200 225 153 65 200 119 l 200 431 b 63 646 200 604 160 646 l 63 683 b 203 840 179 693 190 747 b 708 1088 231 1039 408 1200 b 686 851 686 1008 675 949 l 658 843 b 421 1051 594 1019 517 1094 b 325 801 363 1026 325 929 l 325 708 l 649 722 l 661 703 l 604 625 l 325 639 l 325 225 b 519 29 325 119 339 69 l 514 -10 b 254 0 404 -3 299 0 b 61 -6 210 0 132 -3 l 56 33 m 736 29 b 876 225 847 65 876 119 l 876 768 b 742 963 876 874 844 963 l 742 1000 b 1033 1156 885 1024 963 1074 l 1058 1135 b 1001 810 1015 1028 1001 915 l 1001 225 b 1142 29 1001 119 1031 67 l 1136 -10 b 940 0 1068 -3 985 0 b 742 -10 896 0 826 -3 l 736 29 "},"ª":{"ha":472,"x_min":0,"x_max":0,"o":"m 38 1018 b 181 1074 71 1054 125 1074 b 311 1025 228 1074 275 1061 b 401 1064 344 1042 378 1058 l 426 1025 b 458 699 325 953 365 769 l 453 654 l 317 654 l 299 772 b 51 660 235 632 90 622 b 232 982 0 708 24 850 b 54 978 186 1021 117 1013 l 38 1018 m 144 751 b 253 793 169 731 218 749 b 269 928 267 811 290 853 l 265 938 b 186 878 239 921 210 901 b 144 751 138 832 121 772 "},"º":{"ha":475,"x_min":0,"x_max":0,"o":"m 238 638 b 13 857 113 638 13 731 b 238 1075 13 976 113 1075 b 463 857 360 1075 463 982 b 238 638 463 736 360 638 m 151 807 b 319 713 200 722 272 683 b 322 906 368 740 369 826 b 154 1000 275 992 203 1029 b 151 807 107 972 106 886 "},"⁄":{"ha":1138,"x_min":0,"x_max":0,"o":"m 28 -97 l 968 1111 l 1110 1111 l 169 -97 "},"¹":{"ha":435,"x_min":0,"x_max":0,"o":"m 32 772 b 172 878 149 786 172 811 l 172 1081 l 40 1044 l 28 1075 b 242 1260 131 1132 186 1183 l 286 1254 b 274 1094 278 1188 274 1140 l 274 878 b 407 772 274 811 296 786 l 404 731 b 224 735 310 733 246 735 b 35 731 203 735 138 733 l 32 772 "},"²":{"ha":476,"x_min":0,"x_max":0,"o":"m 14 764 l 194 940 b 294 1110 256 1000 294 1065 b 211 1183 294 1154 261 1183 b 76 1071 149 1183 96 1139 l 40 1076 b 235 1263 54 1188 126 1263 b 408 1114 349 1263 408 1200 b 247 874 408 1040 354 963 l 142 786 l 207 788 b 396 932 321 790 375 801 l 431 932 b 456 761 432 850 443 806 l 444 731 l 22 731 "},"³":{"ha":504,"x_min":0,"x_max":0,"o":"m 254 718 b 39 863 129 718 58 803 l 71 888 b 233 790 106 833 161 790 b 349 889 301 790 349 829 b 246 974 349 940 308 974 b 164 967 210 974 188 972 l 154 1013 b 326 1147 286 1056 326 1115 b 257 1208 326 1181 301 1208 b 126 1060 199 1208 157 1168 l 88 1067 b 65 1240 90 1125 78 1188 l 90 1254 b 261 1261 142 1225 174 1261 b 440 1158 369 1261 440 1221 b 306 1021 440 1096 388 1043 l 306 1018 b 465 893 410 1011 465 960 b 254 718 465 790 368 718 "},".":{"ha":428,"x_min":0,"x_max":0,"o":"m 214 -22 b 111 81 157 -22 111 24 b 214 183 111 138 157 183 b 317 81 271 183 317 138 b 214 -22 317 24 271 -22 "},",":{"ha":351,"x_min":0,"x_max":0,"o":"m 56 -218 b 63 101 154 -146 192 -11 l 219 217 b 81 -254 358 33 246 -169 l 56 -218 "},":":{"ha":429,"x_min":0,"x_max":0,"o":"m 214 -22 b 111 81 157 -22 111 24 b 214 183 111 138 157 183 b 317 81 271 183 317 138 b 214 -22 317 24 271 -22 m 113 639 b 215 742 113 696 158 742 b 318 639 272 742 318 696 b 215 536 318 582 272 536 b 113 639 158 536 113 582 "},";":{"ha":428,"x_min":0,"x_max":0,"o":"m 106 -218 b 113 101 204 -146 242 -11 l 269 217 b 131 -254 408 33 296 -169 l 106 -218 m 113 639 b 215 742 113 696 158 742 b 318 639 272 742 318 696 b 215 536 318 582 272 536 b 113 639 158 536 113 582 "},"…":{"ha":1100,"x_min":0,"x_max":0,"o":"m 886 -22 b 783 81 829 -22 783 24 b 886 183 783 138 829 183 b 989 81 943 183 989 138 b 886 -22 989 24 943 -22 m 111 81 b 214 183 111 138 157 183 b 317 81 271 183 317 138 b 214 -22 317 24 271 -22 b 111 81 157 -22 111 24 m 447 81 b 550 183 447 138 493 183 b 653 81 607 183 653 138 b 550 -22 653 24 607 -22 b 447 81 493 -22 447 24 "},"!":{"ha":428,"x_min":0,"x_max":0,"o":"m 214 -22 b 111 81 157 -22 111 24 b 214 183 111 138 157 183 b 317 81 271 183 317 138 b 214 -22 317 24 271 -22 m 289 1056 l 232 351 l 196 351 l 139 1056 "},"¡":{"ha":428,"x_min":0,"x_max":0,"o":"m 214 806 b 317 703 271 806 317 760 b 214 600 317 646 271 600 b 111 703 157 600 111 646 b 214 806 111 760 157 806 m 196 432 l 232 432 l 289 -272 l 139 -272 "},"?":{"ha":872,"x_min":0,"x_max":0,"o":"m 413 -22 b 310 81 356 -22 310 24 b 413 183 310 138 356 183 b 515 81 469 183 515 138 b 413 -22 515 24 469 -22 m 131 1028 b 469 1056 233 969 299 1056 b 796 836 646 1056 796 967 b 556 569 796 701 706 643 b 429 344 461 524 426 468 l 393 344 b 506 619 371 483 411 551 b 651 842 600 688 651 765 b 476 1000 651 919 594 1000 b 190 668 329 1000 254 899 l 156 672 b 111 1014 160 785 138 910 "},"¿":{"ha":824,"x_min":0,"x_max":0,"o":"m 467 799 b 569 696 524 799 569 753 b 467 593 569 639 524 593 b 364 696 410 593 364 639 b 467 799 364 753 410 799 m 83 -60 b 324 207 83 75 174 133 b 450 432 418 253 453 308 l 486 432 b 374 157 508 293 468 225 b 228 -65 279 89 228 11 b 403 -224 228 -143 285 -224 b 689 108 550 -224 625 -122 l 724 104 b 768 -237 719 -8 742 -133 l 749 -251 b 410 -279 646 -193 581 -279 b 83 -60 233 -279 83 -190 "},"·":{"ha":428,"x_min":0,"x_max":0,"o":"m 214 293 b 111 396 157 293 111 339 b 214 499 111 453 157 499 b 317 396 271 499 317 453 b 214 293 317 339 271 293 "},"•":{"ha":585,"x_min":0,"x_max":0,"o":"m 292 281 b 146 426 211 281 146 346 b 292 572 146 507 211 572 b 438 426 372 572 438 507 b 292 281 438 346 372 281 "},"*":{"ha":533,"x_min":0,"x_max":0,"o":"m 86 1057 l 246 949 l 221 1163 l 240 1171 l 343 1143 l 289 957 l 488 1047 l 501 1031 l 506 925 l 315 918 l 460 760 l 449 742 l 349 704 l 283 885 l 176 696 l 156 700 l 89 783 l 242 903 l 31 946 l 28 967 "},"#":{"ha":1221,"x_min":0,"x_max":0,"o":"m 246 0 l 331 329 l 56 329 l 82 415 l 353 415 l 421 678 l 131 678 l 157 764 l 443 764 l 533 1111 l 625 1111 l 536 764 l 792 764 l 882 1111 l 974 1111 l 885 764 l 1165 764 l 1138 678 l 863 678 l 794 415 l 1090 415 l 1063 329 l 772 329 l 688 0 l 594 0 l 679 329 l 424 329 l 339 0 m 701 415 l 769 678 l 514 678 l 446 415 "},"/":{"ha":676,"x_min":0,"x_max":0,"o":"m 21 -279 l 536 1111 l 656 1111 l 142 -279 "},"\\":{"ha":676,"x_min":0,"x_max":0,"o":"m 21 1111 l 140 1111 l 656 -279 l 535 -279 "},"-":{"ha":531,"x_min":0,"x_max":0,"o":"m 83 456 l 447 460 l 447 376 l 85 372 "},"­":{"ha":531,"x_min":0,"x_max":0,"o":"m 83 456 l 447 460 l 447 376 l 85 372 "},"–":{"ha":753,"x_min":0,"x_max":0,"o":"m 111 456 l 642 460 l 642 376 l 113 372 "},"—":{"ha":1044,"x_min":0,"x_max":0,"o":"m 111 456 l 933 460 l 933 376 l 113 372 "},"_":{"ha":739,"x_min":0,"x_max":0,"o":"m 69 -15 l 669 -11 l 669 -94 l 71 -99 "},"(":{"ha":569,"x_min":0,"x_max":0,"o":"m 500 1101 b 271 419 350 946 271 679 b 500 -261 271 163 350 -104 l 464 -292 b 111 419 243 -126 111 110 b 464 1133 111 731 243 968 l 500 1101 "},")":{"ha":569,"x_min":0,"x_max":0,"o":"m 106 1133 b 458 419 326 968 458 731 b 106 -292 458 110 326 -126 l 69 -261 b 299 419 219 -104 299 163 b 69 1101 299 679 219 946 l 106 1133 "},"{":{"ha":524,"x_min":0,"x_max":0,"o":"m 496 1099 b 307 864 360 1099 285 1007 l 335 694 b 194 440 354 569 301 478 b 335 186 301 403 354 311 l 307 17 b 496 -218 285 -126 360 -218 l 496 -267 b 168 44 265 -267 138 -144 l 196 219 b 69 419 215 340 165 419 l 69 461 b 196 661 165 461 215 540 l 168 836 b 496 1147 138 1025 265 1147 l 496 1099 "},"}":{"ha":524,"x_min":0,"x_max":0,"o":"m 28 1147 b 356 836 258 1147 386 1025 l 328 661 b 454 461 308 540 358 461 l 454 419 b 328 219 358 419 308 340 l 356 44 b 28 -267 386 -144 258 -267 l 28 -218 b 217 17 164 -218 239 -126 l 189 186 b 329 440 169 311 222 403 b 189 694 222 478 169 569 l 217 864 b 28 1099 239 1007 164 1099 l 28 1147 "},"[":{"ha":511,"x_min":0,"x_max":0,"o":"m 497 1104 l 497 1057 l 264 1029 l 264 -215 l 497 -243 l 497 -290 l 139 -290 l 139 1104 "},"]":{"ha":511,"x_min":0,"x_max":0,"o":"m 372 -290 l 14 -290 l 14 -243 l 247 -215 l 247 1029 l 14 1057 l 14 1104 l 372 1104 "},"‚":{"ha":324,"x_min":0,"x_max":0,"o":"m 50 -162 b 57 157 149 -90 186 44 l 214 272 b 75 -199 353 89 240 -114 l 50 -162 "},"„":{"ha":604,"x_min":0,"x_max":0,"o":"m 331 -162 b 338 157 429 -90 467 44 l 494 272 b 356 -199 633 89 521 -114 l 331 -162 m 50 -162 b 57 157 149 -90 186 44 l 214 272 b 75 -199 353 89 240 -114 l 50 -162 "},"“":{"ha":604,"x_min":0,"x_max":0,"o":"m 274 1181 b 267 861 175 1108 138 974 l 110 746 b 249 1217 -29 929 83 1132 l 274 1181 m 390 746 b 529 1217 251 929 364 1132 l 554 1181 b 547 861 456 1108 418 974 l 390 746 "},"”":{"ha":604,"x_min":0,"x_max":0,"o":"m 331 782 b 338 1101 429 854 467 989 l 494 1217 b 356 746 633 1033 521 831 l 331 782 m 50 782 b 57 1101 149 854 186 989 l 214 1217 b 75 746 353 1033 240 831 l 50 782 "},"‘":{"ha":324,"x_min":0,"x_max":0,"o":"m 274 1181 b 267 861 175 1108 138 974 l 110 746 b 249 1217 -29 929 83 1132 l 274 1181 "},"’":{"ha":324,"x_min":0,"x_max":0,"o":"m 50 782 b 57 1101 149 854 186 989 l 214 1217 b 75 746 353 1033 240 831 l 50 782 "},"«":{"ha":738,"x_min":0,"x_max":0,"o":"m 632 718 l 668 689 l 501 381 l 668 72 l 632 43 l 339 364 l 339 397 m 42 397 l 335 718 l 371 689 l 204 381 l 371 72 l 335 43 l 42 364 "},"»":{"ha":738,"x_min":0,"x_max":0,"o":"m 399 364 l 106 43 l 69 72 l 236 381 l 69 689 l 106 718 l 399 397 m 533 381 l 367 689 l 403 718 l 696 397 l 696 364 l 403 43 l 367 72 "},"‹":{"ha":440,"x_min":0,"x_max":0,"o":"m 335 718 l 371 689 l 204 381 l 371 72 l 335 43 l 42 364 l 42 397 "},"›":{"ha":440,"x_min":0,"x_max":0,"o":"m 399 364 l 106 43 l 69 72 l 236 381 l 69 689 l 106 718 l 399 397 "},"\"":{"ha":511,"x_min":0,"x_max":0,"o":"m 69 1111 l 206 1111 l 156 713 l 119 713 m 442 1111 l 392 713 l 356 713 l 306 1111 "},"'":{"ha":275,"x_min":0,"x_max":0,"o":"m 69 1111 l 206 1111 l 156 713 l 119 713 "},"☀":{"ha":1289,"x_min":0,"x_max":0,"o":"m 644 374 b 463 556 543 374 463 456 b 644 738 463 656 543 738 b 825 556 744 738 825 656 b 644 374 825 456 744 374 m 142 625 l 393 572 l 393 538 l 139 490 m 456 389 l 479 365 l 335 151 l 240 249 m 338 960 l 478 744 l 454 721 l 240 867 m 628 304 l 663 304 l 711 50 l 576 53 m 713 1058 l 661 807 l 626 807 l 578 1061 m 954 960 l 1049 863 l 833 722 l 810 746 m 835 390 l 1049 244 l 951 151 l 811 367 m 896 574 l 1150 621 l 1147 486 l 896 539 "},"★":{"ha":1310,"x_min":0,"x_max":0,"o":"m 656 340 l 346 118 l 329 131 l 447 489 l 139 710 l 144 731 l 526 731 l 646 1090 l 668 1090 l 786 729 l 1164 729 l 1171 708 l 865 490 l 983 129 l 967 117 "},"☆":{"ha":1240,"x_min":0,"x_max":0,"o":"m 656 315 l 346 92 l 304 122 l 422 481 l 115 701 l 128 751 l 511 751 l 631 1111 l 683 1111 l 801 750 l 1179 750 l 1196 700 l 890 482 l 1008 121 l 967 90 m 472 497 l 360 154 l 656 365 l 953 153 l 840 499 l 1135 708 l 771 708 l 657 1057 l 542 710 l 174 710 "},"☽":{"ha":1244,"x_min":0,"x_max":0,"o":"m 336 175 b 471 146 378 156 422 146 b 801 476 653 146 801 294 b 471 807 801 658 653 807 b 190 653 353 807 249 744 l 139 685 b 611 1028 203 883 390 1028 b 1106 532 883 1028 1106 804 b 611 38 1106 260 883 38 b 314 136 500 38 397 74 l 336 175 "},"☾":{"ha":1244,"x_min":0,"x_max":0,"o":"m 908 890 b 774 919 867 910 822 919 b 443 589 592 919 443 771 b 774 258 443 407 592 258 b 1054 413 892 258 996 321 l 1106 381 b 633 38 1042 182 854 38 b 139 533 361 38 139 261 b 633 1028 139 806 361 1028 b 931 929 744 1028 847 992 l 908 890 "},"♠":{"ha":1336,"x_min":0,"x_max":0,"o":"m 717 1008 b 1197 382 833 679 1197 696 b 989 164 1197 249 1111 164 b 792 338 869 164 796 240 l 750 338 l 750 225 b 932 29 750 119 779 67 l 926 -10 b 675 0 817 -3 733 0 b 421 -10 617 0 547 -3 l 415 29 b 597 225 568 65 597 119 l 597 338 l 558 338 b 347 164 554 240 474 164 b 139 382 225 164 139 249 b 618 1008 139 697 500 678 l 647 1090 l 688 1090 l 717 1008 "},"♡":{"ha":1406,"x_min":0,"x_max":0,"o":"m 656 75 b 388 415 599 235 432 374 b 139 828 286 508 139 633 b 424 1124 139 1019 264 1124 b 696 888 568 1124 671 1028 b 982 1124 722 1028 831 1124 b 1267 828 1142 1124 1267 1019 b 1019 415 1267 644 1144 531 b 751 75 911 315 801 213 l 733 21 l 674 21 l 656 75 m 181 828 b 415 446 181 663 263 586 b 694 89 524 346 642 236 l 704 64 l 713 89 b 992 446 765 236 883 346 b 1225 828 1115 561 1225 663 b 982 1082 1225 997 1125 1082 b 732 800 822 1082 724 967 l 660 800 b 424 1082 668 968 575 1082 b 181 828 281 1082 181 997 "},"♢":{"ha":1279,"x_min":0,"x_max":0,"o":"m 604 43 b 139 519 556 349 429 478 l 139 590 b 604 1065 429 632 556 760 l 675 1065 b 1140 590 724 760 850 632 l 1140 519 b 675 43 850 478 724 349 l 604 43 m 185 554 b 639 85 453 506 586 367 b 1094 554 693 367 826 506 b 640 1024 826 604 693 742 b 185 554 586 742 453 604 "},"♣":{"ha":1514,"x_min":0,"x_max":0,"o":"m 757 1104 b 1019 842 901 1104 1019 986 b 881 590 1019 738 951 657 l 894 574 b 1114 682 956 635 1031 682 b 1375 419 1258 682 1375 564 b 1114 158 1375 276 1258 158 b 857 363 985 158 896 242 l 835 363 l 835 225 b 1017 29 835 119 864 79 l 1011 -10 b 757 0 885 -3 815 0 b 503 -10 699 0 629 -3 l 497 29 b 679 225 650 79 679 119 l 679 363 l 657 363 b 400 158 618 242 529 158 b 139 419 256 158 139 276 b 400 682 139 564 256 682 b 619 574 483 682 558 635 l 633 590 b 494 842 563 657 494 738 b 757 1104 494 986 613 1104 "},"♤":{"ha":1378,"x_min":0,"x_max":0,"o":"m 757 1015 b 1014 721 810 865 918 789 b 1239 382 1156 619 1239 560 b 1010 143 1239 238 1143 143 b 793 317 888 143 807 218 l 792 317 l 792 225 b 976 44 792 121 815 82 l 965 -32 b 696 -21 846 -24 757 -21 b 424 -32 635 -21 563 -24 l 413 46 b 597 225 574 81 597 121 l 597 308 b 368 143 579 214 493 143 b 139 382 235 143 139 238 b 363 721 139 585 303 678 b 619 1015 463 792 568 867 l 653 1111 l 724 1111 l 757 1015 m 181 382 b 368 185 181 257 254 185 b 558 358 494 185 564 260 l 639 358 l 639 225 b 460 14 639 115 608 53 l 460 13 b 696 21 574 18 640 21 b 929 13 751 21 829 18 l 929 14 b 750 225 781 54 750 115 l 750 358 l 833 358 b 1010 185 828 258 892 185 b 1197 382 1124 185 1197 257 b 990 686 1197 549 1081 621 b 718 1001 883 763 776 842 l 693 1069 l 683 1069 l 658 1001 b 388 686 600 842 488 758 b 181 382 274 606 181 539 "},"♥":{"ha":1364,"x_min":0,"x_max":0,"o":"m 654 82 b 139 800 544 389 139 526 b 403 1103 139 1007 253 1103 b 660 821 557 1103 660 985 l 690 821 b 961 1103 690 985 799 1103 b 1225 800 1111 1103 1225 1007 b 711 82 1225 526 821 389 l 697 42 l 668 42 l 654 82 "},"♦":{"ha":1078,"x_min":0,"x_max":0,"o":"m 525 3 b 139 522 438 219 313 388 l 139 558 b 525 1078 313 693 438 861 l 553 1078 b 939 558 640 861 765 693 l 939 522 b 553 3 765 388 640 219 l 525 3 "},"♧":{"ha":1556,"x_min":0,"x_max":0,"o":"m 778 1125 b 1061 842 933 1125 1061 997 b 996 663 1061 772 1033 714 b 1135 703 1038 688 1085 703 b 1417 419 1290 703 1417 575 b 1135 138 1417 265 1290 138 b 876 308 1014 138 924 207 l 876 225 b 1061 43 876 122 899 94 l 1050 -32 b 778 -21 911 -24 839 -21 b 506 -32 717 -21 644 -24 l 494 43 b 679 225 657 94 679 122 l 679 308 b 421 138 631 206 543 138 b 139 419 265 138 139 265 b 421 703 139 575 265 703 b 560 663 471 703 517 688 b 494 842 522 714 494 772 b 778 1125 494 997 622 1125 m 181 419 b 421 179 181 285 285 179 b 663 383 547 179 628 260 l 721 383 l 721 225 b 542 15 721 115 690 67 l 542 13 b 778 21 656 18 722 21 b 1014 13 833 21 900 18 l 1014 15 b 835 225 865 67 835 115 l 835 383 l 893 383 b 1135 179 928 260 1008 179 b 1375 419 1271 179 1375 285 b 1135 661 1375 556 1271 661 b 914 543 1050 661 978 610 l 872 592 b 1019 842 949 661 1019 739 b 778 1083 1019 978 914 1083 b 536 842 642 1083 536 978 b 683 592 536 739 607 661 l 642 543 b 421 661 567 618 499 661 b 181 419 285 661 181 556 "},"✦":{"ha":1238,"x_min":0,"x_max":0,"o":"m 601 64 b 139 538 550 357 418 493 l 139 572 b 601 1044 418 617 550 751 l 636 1044 b 1099 572 688 751 819 617 l 1099 538 b 636 64 819 493 688 357 l 601 64 "},"✧":{"ha":1279,"x_min":0,"x_max":0,"o":"m 604 43 b 139 519 556 349 429 478 l 139 590 b 604 1065 429 632 556 760 l 675 1065 b 1140 590 724 760 850 632 l 1140 519 b 675 43 850 478 724 349 l 604 43 m 185 554 b 639 85 453 506 586 367 b 1094 554 693 367 826 506 b 640 1024 826 604 693 742 b 185 554 586 742 453 604 "},"✫":{"ha":1310,"x_min":0,"x_max":0,"o":"m 656 289 l 346 67 l 329 79 l 447 438 l 139 658 l 144 679 l 526 679 l 646 1039 l 668 1039 l 786 678 l 1164 678 l 1171 657 l 865 439 l 983 78 l 967 65 m 485 503 b 654 335 485 410 560 335 b 822 503 746 335 822 410 b 654 671 822 597 746 671 b 485 503 560 671 485 597 "},"✬":{"ha":1240,"x_min":0,"x_max":0,"o":"m 657 276 l 332 42 l 289 74 l 413 450 l 90 682 l 104 735 l 506 735 l 631 1111 l 686 1111 l 810 733 l 1207 733 l 1224 681 l 904 451 l 1028 72 l 983 40 m 465 468 l 347 107 l 657 329 l 969 106 l 851 469 l 1160 689 l 778 689 l 658 1056 l 538 690 l 151 690 m 485 529 b 654 361 485 436 560 361 b 822 529 746 361 822 436 b 654 697 822 624 746 697 b 485 529 560 697 485 624 "},"✶":{"ha":1164,"x_min":0,"x_max":0,"o":"m 488 392 l 163 288 l 139 318 l 396 553 l 139 788 l 156 821 l 489 714 l 563 1050 l 600 1050 l 675 714 l 1003 821 l 1024 788 l 768 553 l 1025 318 l 1001 288 l 676 392 l 604 57 l 565 57 "},"✷":{"ha":1294,"x_min":0,"x_max":0,"o":"m 486 393 l 150 332 l 139 356 l 428 553 l 140 747 l 150 769 l 486 711 l 429 1049 l 451 1058 l 646 771 l 843 1060 l 867 1050 l 806 711 l 1144 769 l 1154 747 l 865 553 l 1156 356 l 1146 332 l 804 393 l 867 54 l 843 43 l 646 331 l 451 44 l 429 54 "},"✹":{"ha":1282,"x_min":0,"x_max":0,"o":"m 590 325 l 572 331 l 400 111 l 382 124 l 485 381 l 471 394 l 211 292 l 201 311 l 419 483 l 414 500 l 139 542 l 139 563 l 417 603 l 421 621 l 201 793 l 211 813 l 472 708 l 486 724 l 382 982 l 401 992 l 574 772 l 590 778 l 631 1054 l 653 1054 l 693 779 l 710 774 l 882 992 l 901 982 l 799 726 l 813 711 l 1071 814 l 1083 794 l 864 621 l 868 603 l 1143 564 l 1143 540 l 868 500 l 863 483 l 1081 313 l 1069 290 l 814 393 l 800 379 l 903 125 l 882 113 l 711 329 l 693 324 l 654 51 l 629 51 "},"@":{"ha":1519,"x_min":0,"x_max":0,"o":"m 567 276 b 771 363 615 228 699 263 b 838 640 833 451 842 539 b 567 276 644 522 494 349 m 69 297 b 815 1057 69 732 413 1057 b 1386 749 1129 1057 1300 953 b 1192 107 1467 558 1469 190 b 824 318 1043 61 869 160 b 419 125 715 151 493 51 b 967 767 257 289 724 703 l 1011 718 b 929 301 939 610 863 451 b 1175 178 976 196 1075 149 b 1261 668 1303 215 1328 488 b 814 1001 1193 853 1036 1001 b 229 300 481 1001 229 726 b 718 -176 229 11 443 -176 b 1161 6 875 -176 1026 -106 l 1204 -29 b 679 -262 1060 -171 875 -262 b 69 297 331 -262 69 -43 "},"&":{"ha":1118,"x_min":0,"x_max":0,"o":"m 874 0 l 789 93 b 456 -19 700 21 586 -19 b 83 246 243 -19 83 94 b 382 535 83 378 207 494 l 342 578 b 215 835 264 663 215 746 b 526 1057 215 951 338 1057 b 861 1021 657 1057 729 1021 b 982 546 904 864 982 751 b 890 207 982 414 949 299 b 1076 39 956 143 1021 85 l 1057 0 m 242 249 b 511 50 242 135 357 50 b 750 135 601 50 683 81 l 414 500 b 242 249 313 451 242 351 m 360 890 b 451 679 357 828 393 749 b 849 249 511 608 679 418 b 926 546 899 331 926 432 b 522 1003 926 807 753 1003 b 360 890 424 1003 364 956 "},"¶":{"ha":978,"x_min":0,"x_max":0,"o":"m 553 0 b 307 -10 458 0 403 -3 l 301 29 b 469 225 440 67 469 119 l 469 422 b 83 739 221 424 83 536 b 486 1036 83 935 228 1042 l 553 1035 l 553 0 m 629 1035 b 847 1044 696 1035 779 1038 l 853 1006 b 713 810 742 968 713 915 l 713 225 b 853 29 713 119 742 67 l 847 -10 b 629 0 779 -3 696 0 "},"§":{"ha":932,"x_min":0,"x_max":0,"o":"m 83 517 b 236 693 83 588 150 656 b 125 861 153 742 125 797 b 417 1056 125 983 264 1056 b 767 1017 565 1056 631 1017 b 769 756 756 935 757 864 l 738 751 b 419 1000 669 944 544 1000 b 247 900 317 1000 247 963 b 514 742 247 844 313 806 b 849 494 756 665 849 594 b 694 321 849 422 801 357 b 835 154 797 272 835 224 b 518 -21 835 43 707 -21 b 115 46 342 -21 236 8 b 133 290 147 104 153 225 l 168 299 b 543 35 267 107 411 35 b 715 117 643 35 715 63 b 404 272 715 178 639 200 b 83 517 188 338 83 421 m 206 569 b 514 389 206 507 313 453 b 633 347 560 375 599 361 b 729 438 694 363 729 388 b 404 624 729 499 639 551 b 289 665 360 638 321 651 b 206 569 242 646 206 614 "},"©":{"ha":1188,"x_min":0,"x_max":0,"o":"m 592 -12 b 69 500 303 -12 69 201 b 592 1008 69 781 303 1008 b 1118 500 882 1008 1118 793 b 592 -12 1118 215 882 -12 m 133 500 b 592 51 133 238 338 51 b 1054 500 847 51 1054 249 b 592 947 1054 756 847 947 b 133 500 338 947 133 744 m 413 414 b 704 400 488 297 631 303 b 686 693 775 496 761 650 b 451 535 610 736 501 699 l 432 536 b 410 714 431 601 422 660 l 421 722 b 608 744 488 697 522 744 b 831 497 742 744 831 633 b 608 249 831 353 742 249 b 397 404 521 249 424 315 "},"°":{"ha":539,"x_min":0,"x_max":0,"o":"m 269 614 b 42 835 142 614 42 706 b 269 1056 42 957 142 1056 b 497 835 393 1056 497 963 b 269 614 497 713 393 614 m 115 835 b 269 685 115 747 183 685 b 424 835 351 685 424 753 b 269 983 424 921 351 983 b 115 835 183 983 115 915 "},"|":{"ha":361,"x_min":0,"x_max":0,"o":"m 139 -231 l 139 1035 l 222 1035 l 222 -228 "},"¦":{"ha":361,"x_min":0,"x_max":0,"o":"m 139 514 l 139 1035 l 222 1035 l 222 514 m 139 292 l 222 292 l 222 -229 l 139 -229 "},"†":{"ha":833,"x_min":0,"x_max":0,"o":"m 364 613 l 101 565 l 101 715 l 361 668 l 342 1035 l 492 1035 l 472 668 l 732 715 l 732 565 l 469 613 l 435 -44 l 399 -44 "},"‡":{"ha":833,"x_min":0,"x_max":0,"o":"m 372 303 l 101 254 l 101 404 l 376 354 l 389 496 l 374 669 l 101 621 l 101 771 l 369 722 l 342 1035 l 492 1035 l 464 722 l 732 771 l 732 621 l 460 669 l 444 496 l 457 354 l 732 404 l 732 254 l 461 303 l 492 -44 l 342 -44 "},"¢":{"ha":772,"x_min":0,"x_max":0,"o":"m 368 -61 l 368 138 b 35 519 168 150 35 308 b 368 900 35 722 168 888 l 368 1111 l 451 1111 l 451 897 b 700 868 553 882 607 833 l 718 854 b 681 581 697 772 683 681 l 650 578 b 451 831 606 719 531 799 l 451 258 b 713 392 547 251 646 294 l 738 378 b 451 142 700 257 576 164 l 451 -58 m 240 371 b 368 276 275 326 319 294 l 368 847 b 269 822 333 847 300 839 b 240 371 146 756 125 517 "},"$":{"ha":908,"x_min":0,"x_max":0,"o":"m 135 396 b 438 76 206 183 318 97 l 438 443 b 406 457 428 449 417 453 b 107 768 194 544 107 644 b 438 1010 107 929 275 1010 l 438 1097 l 521 1097 l 521 1004 b 774 976 593 996 643 976 b 776 674 763 871 764 778 l 746 667 b 521 938 697 825 611 906 l 521 569 b 839 260 751 472 839 390 b 521 15 839 125 744 29 l 521 -72 l 438 -75 l 438 14 b 83 67 328 15 217 28 b 101 386 115 142 121 300 l 135 396 m 226 819 b 438 607 226 733 293 676 l 438 954 l 421 954 b 226 819 321 954 226 901 m 521 71 b 722 204 647 76 722 128 b 521 407 722 285 665 339 l 521 71 "},"€":{"ha":1065,"x_min":0,"x_max":0,"o":"m 1038 406 b 606 -21 990 146 844 -21 b 140 386 378 -21 192 150 l 28 386 l 49 456 l 129 456 b 126 518 128 476 126 497 b 131 592 126 543 128 568 l 39 592 l 60 661 l 144 661 b 606 1056 201 888 392 1056 b 975 1028 761 1056 881 969 l 997 1013 b 956 672 969 910 951 785 l 921 668 b 582 999 863 899 742 999 b 265 661 422 999 296 860 l 814 661 l 790 592 l 258 592 l 258 569 b 269 456 258 531 263 492 l 754 456 l 731 386 l 289 386 b 649 101 347 217 486 101 b 1001 413 842 101 935 204 l 1038 406 "},"£":{"ha":964,"x_min":0,"x_max":0,"o":"m 56 29 b 314 458 319 154 413 314 l 83 458 l 83 528 l 258 528 b 143 794 188 614 143 681 b 483 1056 143 968 317 1056 b 828 1019 618 1056 650 1019 b 831 692 817 906 818 804 l 799 685 b 465 1000 731 918 590 1000 b 265 850 363 1000 265 939 b 435 569 265 742 358 667 b 463 528 446 556 454 542 l 747 528 l 747 458 l 490 458 b 376 169 514 367 483 267 l 251 56 l 493 56 b 869 440 714 56 818 178 l 908 440 l 889 -8 b 483 0 808 -3 700 0 b 61 -10 215 0 146 -3 l 56 29 "},"¥":{"ha":1076,"x_min":0,"x_max":0,"o":"m 6 1047 b 214 1038 96 1040 168 1038 b 501 1047 261 1038 372 1040 l 506 1007 b 393 813 343 988 324 906 l 592 549 l 800 821 b 696 1007 869 913 813 986 l 701 1047 b 876 1038 775 1040 829 1038 b 1069 1047 922 1038 983 1040 l 1076 1008 b 850 793 988 964 922 886 l 622 499 l 890 499 l 890 429 l 622 429 l 622 321 l 890 321 l 890 251 l 622 251 l 622 225 b 790 29 622 119 651 67 l 785 -10 b 561 0 689 -3 606 0 b 335 -10 517 0 447 -3 l 329 29 b 497 225 468 65 497 119 l 497 251 l 226 251 l 226 321 l 497 321 l 497 429 l 226 429 l 226 499 l 483 499 l 246 811 b 0 1008 183 893 110 960 l 6 1047 "},"+":{"ha":776,"x_min":0,"x_max":0,"o":"m 111 556 l 346 557 l 346 793 l 429 793 l 429 558 l 665 560 l 665 476 l 429 475 l 429 240 l 346 239 l 346 474 l 113 472 "},"−":{"ha":721,"x_min":0,"x_max":0,"o":"m 111 556 l 610 560 l 610 476 l 113 472 "},"×":{"ha":771,"x_min":0,"x_max":0,"o":"m 111 299 l 326 515 l 111 733 l 171 793 l 386 576 l 600 793 l 660 733 l 444 515 l 660 299 l 599 240 l 386 456 l 172 240 "},"÷":{"ha":860,"x_min":0,"x_max":0,"o":"m 69 556 l 790 560 l 790 476 l 71 472 m 342 246 b 431 335 342 294 381 335 b 518 246 479 335 518 294 b 431 157 518 197 479 157 b 342 246 381 157 342 197 m 342 814 b 431 903 342 863 381 903 b 518 814 479 903 518 863 b 431 725 518 765 479 725 b 342 814 381 725 342 765 "},"=":{"ha":776,"x_min":0,"x_max":0,"o":"m 139 690 l 638 694 l 638 611 l 140 607 m 638 415 l 638 332 l 140 328 l 139 411 "},"≠":{"ha":833,"x_min":0,"x_max":0,"o":"m 111 676 l 432 679 l 510 888 l 611 888 l 533 679 l 721 681 l 721 597 l 503 596 l 439 428 l 721 429 l 721 346 l 408 343 l 332 140 l 229 140 l 306 343 l 113 342 l 111 425 l 336 426 l 400 594 l 113 593 "},">":{"ha":635,"x_min":0,"x_max":0,"o":"m 593 513 l 106 192 l 69 221 l 403 529 l 69 838 l 106 867 l 593 546 "},"<":{"ha":635,"x_min":0,"x_max":0,"o":"m 529 867 l 565 838 l 232 529 l 565 221 l 529 192 l 42 513 l 42 546 "},"≥":{"ha":832,"x_min":0,"x_max":0,"o":"m 718 582 l 133 314 l 111 360 l 501 599 l 111 838 l 133 883 l 718 615 m 721 263 l 721 179 l 113 175 l 111 258 "},"≤":{"ha":832,"x_min":0,"x_max":0,"o":"m 699 883 l 721 838 l 331 599 l 721 360 l 699 314 l 114 582 l 114 615 m 111 263 l 721 258 l 719 175 l 111 179 "},"±":{"ha":747,"x_min":0,"x_max":0,"o":"m 111 625 l 331 626 l 329 765 l 413 765 l 414 628 l 636 629 l 636 546 l 415 544 l 417 407 l 333 406 l 332 543 l 111 542 m 111 321 l 636 325 l 636 242 l 111 238 "},"≈":{"ha":738,"x_min":0,"x_max":0,"o":"m 243 483 b 101 328 140 483 81 406 l 125 329 b 214 397 135 360 147 397 b 490 306 293 397 369 306 b 636 464 593 306 656 388 l 610 464 b 519 396 604 433 588 396 b 243 483 451 396 374 483 m 125 579 b 214 647 135 610 147 647 b 490 556 293 647 369 556 b 633 714 593 556 653 638 l 610 714 b 519 646 604 683 588 646 b 243 733 451 646 374 733 b 101 578 140 733 81 656 "},"~":{"ha":617,"x_min":0,"x_max":0,"o":"m 185 1076 b 72 921 106 1076 57 999 l 94 922 b 163 990 101 953 111 990 b 375 899 224 990 282 899 b 490 1057 454 899 506 981 l 467 1057 b 397 989 463 1026 450 989 b 185 1076 344 989 285 1076 "},"¬":{"ha":751,"x_min":0,"x_max":0,"o":"m 111 625 l 553 629 l 636 629 l 640 299 l 557 297 l 554 546 l 111 542 "},"^":{"ha":553,"x_min":0,"x_max":0,"o":"m 265 1133 l 282 1133 l 518 857 l 490 838 l 274 988 l 57 838 l 29 857 "},"∞":{"ha":1301,"x_min":0,"x_max":0,"o":"m 597 465 b 339 719 515 653 425 719 b 167 518 235 719 167 640 b 365 317 167 396 244 317 b 607 443 469 317 546 358 l 597 465 m 111 517 b 372 851 111 719 214 851 b 672 631 499 851 596 781 b 939 851 726 782 819 851 b 1190 514 1092 851 1190 719 b 929 179 1190 311 1088 179 b 628 399 803 179 707 249 b 363 179 574 249 482 179 b 111 517 210 179 111 311 m 703 565 b 963 311 786 378 876 311 b 1135 513 1067 311 1135 390 b 936 714 1135 635 1057 714 b 694 586 832 714 754 672 "},"%":{"ha":1275,"x_min":0,"x_max":0,"o":"m 126 0 l 989 1035 l 1133 1035 l 272 0 m 97 813 b 329 1047 97 943 200 1047 b 561 813 457 1047 561 949 b 329 576 561 682 457 576 b 97 813 200 576 97 676 m 215 771 b 390 647 251 674 331 625 b 442 854 453 669 478 760 b 267 976 407 950 326 997 b 215 771 204 954 179 865 m 714 232 b 946 467 714 363 817 467 b 1178 232 1074 467 1178 368 b 946 -4 1178 101 1074 -4 b 714 232 817 -4 714 96 m 832 190 b 1007 67 868 93 947 44 b 1058 274 1069 89 1094 179 b 883 396 1024 369 943 417 b 832 190 821 374 796 285 "},"‰":{"ha":1792,"x_min":0,"x_max":0,"o":"m 126 0 l 989 1035 l 1133 1035 l 272 0 m 97 813 b 329 1047 97 943 200 1047 b 561 813 457 1047 561 949 b 329 576 561 682 457 576 b 97 813 200 576 97 676 m 215 771 b 390 647 251 674 331 625 b 442 854 453 669 478 760 b 267 976 407 950 326 997 b 215 771 204 954 179 865 m 714 232 b 946 467 714 363 817 467 b 1178 232 1074 467 1178 368 b 946 -4 1178 101 1074 -4 b 714 232 817 -4 714 96 m 832 190 b 1007 67 868 93 947 44 b 1058 274 1069 89 1094 179 b 883 396 1024 369 943 417 b 832 190 821 374 796 285 m 1231 232 b 1463 467 1231 363 1333 467 b 1694 232 1590 467 1694 368 b 1463 -4 1694 101 1590 -4 b 1231 232 1333 -4 1231 96 m 1349 190 b 1524 67 1385 93 1464 44 b 1575 274 1586 89 1611 179 b 1400 396 1540 369 1460 417 b 1349 190 1338 374 1313 285 "},"̈":{"ha":0,"x_min":0,"x_max":0,"o":"m 475 893 b 393 975 429 893 393 931 b 475 1058 393 1021 429 1058 b 557 975 521 1058 557 1021 b 475 893 557 931 521 893 m 139 975 b 221 1058 139 1021 175 1058 b 303 975 267 1058 303 1021 b 221 893 303 931 267 893 b 139 975 175 893 139 931 "},"̇":{"ha":0,"x_min":0,"x_max":0,"o":"m 224 886 b 150 961 183 886 150 919 b 224 1035 150 1003 183 1035 b 299 961 265 1035 299 1003 b 224 886 299 919 265 886 "},"̀":{"ha":0,"x_min":0,"x_max":0,"o":"m 328 838 l 85 1121 l 94 1139 l 244 1139 l 356 857 "},"́":{"ha":0,"x_min":0,"x_max":0,"o":"m 260 1139 l 410 1139 l 419 1121 l 176 838 l 149 857 "},"̋":{"ha":0,"x_min":0,"x_max":0,"o":"m 108 1163 l 249 1163 l 189 868 l 157 867 m 454 1163 l 394 868 l 363 867 l 314 1163 "},"̂":{"ha":0,"x_min":0,"x_max":0,"o":"m 265 1133 l 282 1133 l 518 857 l 490 838 l 274 988 l 57 838 l 29 857 "},"̌":{"ha":0,"x_min":0,"x_max":0,"o":"m 57 1146 l 274 996 l 490 1146 l 518 1126 l 282 850 l 265 850 l 29 1126 "},"̆":{"ha":0,"x_min":0,"x_max":0,"o":"m 103 1129 b 267 1010 126 1051 196 1010 b 432 1129 333 1010 406 1051 l 467 1129 b 268 897 456 994 388 897 b 68 1129 147 897 79 994 l 103 1129 "},"̊":{"ha":0,"x_min":0,"x_max":0,"o":"m 115 890 b 115 1119 54 953 53 1058 b 343 1119 178 1181 282 1182 b 343 892 406 1056 406 951 b 115 890 279 831 175 829 m 154 929 b 304 931 192 889 264 893 b 304 1081 346 971 344 1039 b 154 1081 267 1121 194 1118 b 154 929 113 1042 114 971 "},"̃":{"ha":0,"x_min":0,"x_max":0,"o":"m 185 1076 b 72 921 106 1076 57 999 l 94 922 b 163 990 101 953 111 990 b 375 899 224 990 282 899 b 490 1057 454 899 506 981 l 467 1057 b 397 989 463 1026 450 989 b 185 1076 344 989 285 1076 "},"̄":{"ha":0,"x_min":0,"x_max":0,"o":"m 136 1006 l 542 1006 l 542 936 l 138 936 "},"̒":{"ha":0,"x_min":0,"x_max":0,"o":"m 347 1206 b 342 994 265 1158 233 1068 l 210 918 b 326 1229 93 1039 188 1174 l 347 1206 "},"̦":{"ha":0,"x_min":0,"x_max":0,"o":"m 117 -378 b 122 -167 199 -331 231 -240 l 254 -90 b 138 -401 371 -211 276 -346 l 117 -378 "},"̧":{"ha":0,"x_min":0,"x_max":0,"o":"m 85 -185 b 349 -186 215 -260 349 -246 b 176 -121 349 -126 231 -121 l 303 21 l 290 -74 b 472 -169 401 -74 472 -111 b 300 -292 472 -235 399 -292 b 67 -203 196 -292 117 -250 l 85 -185 "},"̨":{"ha":0,"x_min":0,"x_max":0,"o":"m 228 -297 b 97 -171 147 -297 96 -236 b 268 31 99 -89 201 -17 l 278 17 b 183 -139 211 -35 183 -92 b 271 -212 183 -182 217 -212 b 393 -149 306 -212 349 -190 l 417 -172 b 228 -297 393 -212 326 -297 "},"¨":{"ha":703,"x_min":0,"x_max":0,"o":"m 475 893 b 393 975 429 893 393 931 b 475 1058 393 1021 429 1058 b 557 975 521 1058 557 1021 b 475 893 557 931 521 893 m 139 975 b 221 1058 139 1021 175 1058 b 303 975 267 1058 303 1021 b 221 893 303 931 267 893 b 139 975 175 893 139 931 "},"˙":{"ha":499,"x_min":0,"x_max":0,"o":"m 224 886 b 150 961 183 886 150 919 b 224 1035 150 1003 183 1035 b 299 961 265 1035 299 1003 b 224 886 299 919 265 886 "},"`":{"ha":833,"x_min":0,"x_max":0,"o":"m 328 838 l 85 1121 l 94 1139 l 244 1139 l 356 857 "},"´":{"ha":833,"x_min":0,"x_max":0,"o":"m 260 1139 l 410 1139 l 419 1121 l 176 838 l 149 857 "},"˝":{"ha":715,"x_min":0,"x_max":0,"o":"m 108 1163 l 249 1163 l 189 868 l 157 867 m 454 1163 l 394 868 l 363 867 l 314 1163 "},"ˆ":{"ha":651,"x_min":0,"x_max":0,"o":"m 313 1133 l 329 1133 l 565 857 l 538 838 l 321 988 l 104 838 l 76 857 "},"ˇ":{"ha":651,"x_min":0,"x_max":0,"o":"m 104 1146 l 321 996 l 538 1146 l 565 1126 l 329 850 l 313 850 l 76 1126 "},"˘":{"ha":539,"x_min":0,"x_max":0,"o":"m 144 1129 b 308 1010 168 1051 238 1010 b 474 1129 375 1010 447 1051 l 508 1129 b 310 897 497 994 429 897 b 110 1129 189 897 121 994 l 144 1129 "},"˚":{"ha":833,"x_min":0,"x_max":0,"o":"m 115 890 b 115 1119 54 953 53 1058 b 343 1119 178 1181 282 1182 b 343 892 406 1056 406 951 b 115 890 279 831 175 829 m 154 929 b 304 931 192 889 264 893 b 304 1081 346 971 344 1039 b 154 1081 267 1121 194 1118 b 154 929 113 1042 114 971 "},"˜":{"ha":833,"x_min":0,"x_max":0,"o":"m 185 1076 b 72 921 106 1076 57 999 l 94 922 b 163 990 101 953 111 990 b 375 899 224 990 282 899 b 490 1057 454 899 506 981 l 467 1057 b 397 989 463 1026 450 989 b 185 1076 344 989 285 1076 "},"¯":{"ha":708,"x_min":0,"x_max":0,"o":"m 136 1006 l 542 1006 l 542 936 l 138 936 "},"¸":{"ha":833,"x_min":0,"x_max":0,"o":"m 85 -185 b 349 -186 215 -260 349 -246 b 176 -121 349 -126 231 -121 l 303 21 l 290 -74 b 472 -169 401 -74 472 -111 b 300 -292 472 -235 399 -292 b 67 -203 196 -292 117 -250 l 85 -185 "},"˛":{"ha":468,"x_min":0,"x_max":0,"o":"m 228 -297 b 97 -171 147 -297 96 -236 b 268 31 99 -89 201 -17 l 278 17 b 183 -139 211 -35 183 -92 b 271 -212 183 -182 217 -212 b 393 -149 306 -212 349 -190 l 417 -172 b 228 -297 393 -212 326 -297 "}}}
